<?xml version="1.0" encoding="utf-8"?><svg xmlns="http://www.w3.org/2000/svg" xmlns:xlink="http://www.w3.org/1999/xlink"><symbol fill="none" viewBox="0 0 24 24" id="24x24--alarm" xmlns="http://www.w3.org/2000/svg"><path fill="currentColor" fill-rule="evenodd" d="M3.22 1.375a1 1 0 111.56 1.25l-2 2.5a1 1 0 01-1.56-1.25l2-2.5zm16.155-.156a1 1 0 011.406.156l2 2.5a1 1 0 11-1.562 1.25l-2-2.5a1 1 0 01.156-1.406zM4 12a8 8 0 1116 0 8 8 0 01-16 0zm8-10C6.477 2 2 6.477 2 12s4.477 10 10 10 10-4.477 10-10S17.523 2 12 2zm1 5.5a1 1 0 10-2 0v4.032l-2.64 2.2a1 1 0 101.28 1.536l3-2.5A1 1 0 0013 12V7.5z"/></symbol><symbol fill="none" viewBox="0 0 24 24" id="24x24--align-center" xmlns="http://www.w3.org/2000/svg"><path fill="currentColor" fill-rule="evenodd" d="M20 7a1 1 0 100-2H4a1 1 0 000 2h16zm-4 4a1 1 0 100-2H8a1 1 0 100 2h8zm5 3a1 1 0 01-1 1H4a1 1 0 110-2h16a1 1 0 011 1zm-5 5a1 1 0 100-2H8a1 1 0 100 2h8z"/></symbol><symbol fill="none" viewBox="0 0 24 24" id="24x24--align-justify" xmlns="http://www.w3.org/2000/svg"><path fill="currentColor" fill-rule="evenodd" d="M20 7a1 1 0 100-2H4a1 1 0 000 2h16zm0 4a1 1 0 100-2H4a1 1 0 100 2h16zm1 3a1 1 0 01-1 1H4a1 1 0 110-2h16a1 1 0 011 1zm-1 5a1 1 0 100-2H4a1 1 0 100 2h16z"/></symbol><symbol fill="none" viewBox="0 0 24 24" id="24x24--align-left" xmlns="http://www.w3.org/2000/svg"><path fill="currentColor" fill-rule="evenodd" d="M20 7a1 1 0 100-2H4a1 1 0 000 2h16zm-8 4a1 1 0 100-2H4a1 1 0 100 2h8zm9 3a1 1 0 01-1 1H4a1 1 0 110-2h16a1 1 0 011 1zm-9 5a1 1 0 100-2H4a1 1 0 100 2h8z"/></symbol><symbol fill="none" viewBox="0 0 24 24" id="24x24--align-right" xmlns="http://www.w3.org/2000/svg"><path fill="currentColor" fill-rule="evenodd" d="M20 7a1 1 0 100-2H4a1 1 0 000 2h16zm0 4a1 1 0 100-2h-8a1 1 0 100 2h8zm1 3a1 1 0 01-1 1H4a1 1 0 110-2h16a1 1 0 011 1zm-1 5a1 1 0 100-2h-8a1 1 0 100 2h8z"/></symbol><symbol fill="none" viewBox="0 0 24 24" id="24x24--arrow-bottom-left" xmlns="http://www.w3.org/2000/svg"><path stroke="currentColor" stroke-linecap="round" stroke-linejoin="round" stroke-width="2" d="M17.657 6.343L6.343 17.657m0 0h9.9m-9.9 0v-9.9"/></symbol><symbol fill="none" viewBox="0 0 24 24" id="24x24--arrow-bottom-right" xmlns="http://www.w3.org/2000/svg"><path stroke="currentColor" stroke-linecap="round" stroke-linejoin="round" stroke-width="2" d="M6.343 6.343l11.314 11.314m0 0v-9.9m0 9.9h-9.9"/></symbol><symbol fill="none" viewBox="0 0 24 24" id="24x24--arrow-down" xmlns="http://www.w3.org/2000/svg"><path stroke="currentColor" stroke-linecap="round" stroke-linejoin="round" stroke-width="2" d="M12 4v16m0 0l7-7m-7 7l-7-7"/></symbol><symbol fill="none" viewBox="0 0 24 24" id="24x24--arrow-left" xmlns="http://www.w3.org/2000/svg"><path stroke="currentColor" stroke-linecap="round" stroke-linejoin="round" stroke-width="2" d="M20 12H4m0 0l7 7m-7-7l7-7"/></symbol><symbol fill="none" viewBox="0 0 24 24" id="24x24--arrow-left-right" xmlns="http://www.w3.org/2000/svg"><path stroke="currentColor" stroke-linecap="round" stroke-linejoin="round" stroke-width="2" d="M3 12h18M3 12l4-4m-4 4l4 4m14-4l-4-4m4 4l-4 4"/></symbol><symbol fill="none" viewBox="0 0 24 24" id="24x24--arrow-right" xmlns="http://www.w3.org/2000/svg"><path stroke="currentColor" stroke-linecap="round" stroke-linejoin="round" stroke-width="2" d="M4 12h16m0 0l-7-7m7 7l-7 7"/></symbol><symbol fill="none" viewBox="0 0 24 24" id="24x24--arrow-top" xmlns="http://www.w3.org/2000/svg"><path stroke="currentColor" stroke-linecap="round" stroke-linejoin="round" stroke-width="2" d="M12 20V4m0 0l-7 7m7-7l7 7"/></symbol><symbol fill="none" viewBox="0 0 24 24" id="24x24--arrow-top-bottom" xmlns="http://www.w3.org/2000/svg"><path stroke="currentColor" stroke-linecap="round" stroke-linejoin="round" stroke-width="2" d="M12 21V3m0 18l-4-4m4 4l4-4M12 3L8 7m4-4l4 4"/></symbol><symbol fill="none" viewBox="0 0 24 24" id="24x24--arrow-top-left" xmlns="http://www.w3.org/2000/svg"><path stroke="currentColor" stroke-linecap="round" stroke-linejoin="round" stroke-width="2" d="M17.657 17.657L6.343 6.343m0 0v9.9m0-9.9h9.9"/></symbol><symbol fill="none" viewBox="0 0 24 24" id="24x24--arrow-top-right" xmlns="http://www.w3.org/2000/svg"><path stroke="currentColor" stroke-linecap="round" stroke-linejoin="round" stroke-width="2" d="M6.343 17.657L17.657 6.343m0 0h-9.9m9.9 0v9.9"/></symbol><symbol fill="none" viewBox="0 0 24 24" id="24x24--battery-0" xmlns="http://www.w3.org/2000/svg"><path fill="currentColor" fill-rule="evenodd" d="M4 7.15l.004-.004a.022.022 0 01.007-.005h.007c1.456.177 4.064.46 5.982.46 1.918 0 4.526-.283 5.982-.46h.007c.002 0 .005.002.007.005A.017.017 0 0116 7.15v9.7l-.004.004a.022.022 0 01-.007.005h-.007c-1.456-.177-4.064-.46-5.982-.46-1.918 0-4.526.283-5.982.46a.02.02 0 01-.005 0h-.002a.022.022 0 01-.007-.005A.016.016 0 014 16.85v-9.7zm.26-1.995A2.015 2.015 0 002 7.15v9.7a2.015 2.015 0 002.26 1.995c1.458-.177 3.957-.445 5.74-.445 1.783 0 4.282.268 5.74.445A2.015 2.015 0 0018 16.85v-9.7a2.015 2.015 0 00-2.26-1.995c-1.458.177-3.957.445-5.74.445-1.783 0-4.282-.268-5.74-.445zM21 10a1 1 0 10-2 0v4.5a1 1 0 102 0V10z"/></symbol><symbol fill="none" viewBox="0 0 24 24" id="24x24--battery-1" xmlns="http://www.w3.org/2000/svg"><path fill="currentColor" fill-rule="evenodd" d="M4 7.149v9.701l.004.004a.022.022 0 00.007.005h.007c1.456-.177 4.064-.46 5.982-.46 1.918 0 4.526.283 5.982.46a.02.02 0 00.005 0h.002a.022.022 0 00.007-.005.014.014 0 00.004-.004v-9.7l-.004-.004a.022.022 0 00-.007-.005h-.007c-1.456.177-4.064.46-5.982.46-1.918 0-4.526-.283-5.982-.46h-.007a.022.022 0 00-.01.009zM2 7.15a2.015 2.015 0 012.26-1.995c1.458.177 3.957.445 5.74.445 1.783 0 4.282-.268 5.74-.445A2.015 2.015 0 0118 7.15v9.7a2.015 2.015 0 01-2.26 1.995c-1.458-.177-3.957-.445-5.74-.445-1.783 0-4.282.268-5.74.445A2.015 2.015 0 012 16.85v-9.7zM20 9a1 1 0 011 1v4.5a1 1 0 11-2 0V10a1 1 0 011-1zM8 10a1 1 0 10-2 0v4a1 1 0 102 0v-4z"/></symbol><symbol fill="none" viewBox="0 0 24 24" id="24x24--battery-2" xmlns="http://www.w3.org/2000/svg"><path fill="currentColor" fill-rule="evenodd" d="M4 7.15l.004-.004a.022.022 0 01.007-.005h.007c1.456.177 4.064.46 5.982.46 1.918 0 4.526-.283 5.982-.46h.007c.002 0 .005.002.007.005A.017.017 0 0116 7.15v9.7l-.004.004a.022.022 0 01-.007.005h-.007c-1.456-.177-4.064-.46-5.982-.46-1.918 0-4.526.283-5.982.46a.02.02 0 01-.005 0h-.002a.022.022 0 01-.007-.005A.016.016 0 014 16.85v-9.7zm.26-1.995A2.015 2.015 0 002 7.15v9.7a2.015 2.015 0 002.26 1.995c1.458-.177 3.957-.445 5.74-.445 1.783 0 4.282.268 5.74.445A2.015 2.015 0 0018 16.85v-9.7a2.015 2.015 0 00-2.26-1.995c-1.458.177-3.957.445-5.74.445-1.783 0-4.282-.268-5.74-.445zM21 10a1 1 0 10-2 0v4.5a1 1 0 102 0V10zM7 9a1 1 0 011 1v4a1 1 0 11-2 0v-4a1 1 0 011-1zm4 1a1 1 0 10-2 0v4a1 1 0 102 0v-4z"/></symbol><symbol fill="none" viewBox="0 0 24 24" id="24x24--battery-3" xmlns="http://www.w3.org/2000/svg"><path fill="currentColor" fill-rule="evenodd" d="M4 7.149v9.701l.004.004a.022.022 0 00.007.005h.007c1.456-.177 4.064-.46 5.982-.46 1.918 0 4.526.283 5.982.46a.02.02 0 00.005 0h.002a.022.022 0 00.007-.005.014.014 0 00.004-.004v-9.7l-.004-.004a.022.022 0 00-.007-.005h-.007c-1.456.177-4.064.46-5.982.46-1.918 0-4.526-.283-5.982-.46h-.007a.022.022 0 00-.01.009zM2 7.15a2.015 2.015 0 012.26-1.995c1.458.177 3.957.445 5.74.445 1.783 0 4.282-.268 5.74-.445A2.015 2.015 0 0118 7.15v9.7a2.015 2.015 0 01-2.26 1.995c-1.458-.177-3.957-.445-5.74-.445-1.783 0-4.282.268-5.74.445A2.015 2.015 0 012 16.85v-9.7zM20 9a1 1 0 011 1v4.5a1 1 0 11-2 0V10a1 1 0 011-1zM8 10a1 1 0 10-2 0v4a1 1 0 102 0v-4zm2-1a1 1 0 011 1v4a1 1 0 11-2 0v-4a1 1 0 011-1zm4 1a1 1 0 10-2 0v4a1 1 0 102 0v-4z"/></symbol><symbol fill="none" viewBox="0 0 24 24" id="24x24--battery-charge" xmlns="http://www.w3.org/2000/svg"><path fill="currentColor" fill-rule="evenodd" d="M4 7.149v9.701l.004.004a.022.022 0 00.007.005h.007c1.456-.177 4.064-.46 5.982-.46 1.918 0 4.526.283 5.982.46a.02.02 0 00.005 0h.002a.022.022 0 00.007-.005.014.014 0 00.004-.004v-9.7l-.004-.004a.022.022 0 00-.007-.005h-.007c-1.456.177-4.064.46-5.982.46-1.918 0-4.526-.283-5.982-.46h-.007a.022.022 0 00-.01.009zM2 7.15a2.015 2.015 0 012.26-1.995c1.458.177 3.957.445 5.74.445 1.783 0 4.282-.268 5.74-.445A2.015 2.015 0 0118 7.15v9.7a2.015 2.015 0 01-2.26 1.995c-1.458-.177-3.957-.445-5.74-.445-1.783 0-4.282.268-5.74.445A2.015 2.015 0 012 16.85v-9.7zM20 9a1 1 0 011 1v4.5a1 1 0 11-2 0V10a1 1 0 011-1zm-9.47-.348A1 1 0 009 9.5v3.218l-2.573-1.572a1 1 0 00-1.042 1.707l4.094 2.5A1 1 0 0011 14.5v-3.196l2.47 1.544a1 1 0 001.06-1.696l-4-2.5z"/></symbol><symbol fill="none" viewBox="0 0 24 24" id="24x24--bell" xmlns="http://www.w3.org/2000/svg"><path fill="currentColor" fill-rule="evenodd" d="M4.495 9.999C4.422 5.775 7.636 2 12 2s7.578 3.775 7.505 7.999c-.003.172-.005.34-.005.501 0 1.978.236 4.757.383 6.296.007.069.01.137.01.204H22a1 1 0 110 2h-6a4 4 0 01-8 0H2a1 1 0 110-2h2.107c0-.067.003-.135.01-.204.147-1.54.383-4.318.383-6.296 0-.162-.002-.329-.005-.501zM9.023 17h8.863l.003-.003a.016.016 0 00.003-.005v-.005c-.147-1.537-.392-4.402-.392-6.487 0-.174.002-.354.005-.536C17.562 6.716 15.109 4 12 4S6.438 6.716 6.495 9.964c.003.182.005.362.005.536 0 2.085-.245 4.95-.393 6.487a.02.02 0 000 .004v.001a.017.017 0 00.007.008h2.909zM10 19a2 2 0 104 0h-4z"/></symbol><symbol fill="none" viewBox="0 0 24 24" id="24x24--bold" xmlns="http://www.w3.org/2000/svg"><path fill="currentColor" fill-rule="evenodd" d="M6 3a1 1 0 00-1 1v16a1 1 0 001 1v-1 1h8a5 5 0 001.745-9.687A5 5 0 0012 3H6zm6 8a3 3 0 100-6H7v6h5zm-5 2v6h7a3 3 0 100-6H7z"/></symbol><symbol fill="none" viewBox="0 0 24 24" id="24x24--bookmark" xmlns="http://www.w3.org/2000/svg"><path stroke="currentColor" stroke-width="2" d="M5.093 5.09A1.007 1.007 0 016.095 4h11.81c.588 0 1.05.504 1.002 1.09-.144 1.778-.407 5.362-.407 7.91 0 1.9.146 4.373.28 6.247.067.933-1.072 1.46-1.734.8l-4.339-4.34a1 1 0 00-1.414 0l-4.34 4.34c-.66.66-1.8.133-1.733-.8.134-1.874.28-4.348.28-6.247 0-2.548-.263-6.132-.407-7.91z"/></symbol><symbol fill="none" viewBox="0 0 24 24" id="24x24--box" xmlns="http://www.w3.org/2000/svg"><path fill="currentColor" fill-rule="evenodd" d="M20.77 4H3.228l-.001.002a.013.013 0 00-.003.004v.003c.06.748.143 1.815.217 2.991h17.117c.075-1.176.156-2.243.217-2.99v-.004A.014.014 0 0020.77 4zM3.971 9.727A23.196 23.196 0 013.724 9h16.552a23.08 23.08 0 01-.248.727l-.02.06c-.223.627-.508 1.431-.508 2.213 0 2.594.266 6.214.41 7.991v.005l-.002.002V20l-.002.001H4.094l-.002-.002a.011.011 0 01-.003-.003v-.004c.145-1.777.411-5.397.411-7.991 0-.782-.285-1.586-.507-2.213l-.021-.06zM3.23 2h17.538a2.008 2.008 0 012 2.171c-.076.935-.185 2.369-.27 3.885-.047.82-.334 1.63-.559 2.264l-.026.075c-.256.724-.414 1.21-.414 1.605 0 2.502.26 6.049.404 7.83a2.007 2.007 0 01-2 2.17H4.096a2.007 2.007 0 01-1.999-2.17c.145-1.781.404-5.327.404-7.83 0-.395-.158-.881-.414-1.605l-.026-.075c-.225-.634-.512-1.444-.558-2.264-.086-1.516-.194-2.95-.27-3.885A2.008 2.008 0 013.23 2zM9 13a1 1 0 100 2h6a1 1 0 100-2H9z"/></symbol><symbol fill="none" viewBox="0 0 24 24" id="24x24--calendar" xmlns="http://www.w3.org/2000/svg"><path fill="currentColor" fill-rule="evenodd" d="M8 2a1 1 0 011 1v.416c1.048.05 2.093.084 3 .084s1.952-.034 3-.084V3a1 1 0 112 0v.302c1.051-.067 2.01-.14 2.719-.197 1.24-.1 2.275.94 2.17 2.18-.147 1.73-.389 4.935-.389 7.215 0 2.327.252 5.616.398 7.319A2.008 2.008 0 0119.9 22H4.1a2.008 2.008 0 01-1.998-2.181c.146-1.703.398-4.992.398-7.319 0-2.28-.242-5.484-.39-7.215a2.017 2.017 0 012.171-2.18c.709.057 1.668.13 2.719.197V3a1 1 0 011-1zm7 3.418V7a1 1 0 102 0V5.306a170.422 170.422 0 002.884-.208l.007.005a.022.022 0 01.005.007v.005c-.1 1.171-.246 3.054-.33 4.885H4.434c-.084-1.83-.23-3.714-.33-4.885V5.11a.02.02 0 01.005-.007.02.02 0 01.006-.004h.006c.736.059 1.757.136 2.879.207V7a1 1 0 102 0V5.418c1.044.049 2.086.082 3 .082.914 0 1.956-.033 3-.082zM4.497 12l.003.5c0 2.423-.26 5.79-.405 7.49a.02.02 0 000 .004v.002l.003.003.001.001H19.9l.002-.001a.014.014 0 00.003-.005v-.005c-.145-1.7-.405-5.066-.405-7.489l.003-.5H4.497z"/></symbol><symbol fill="none" viewBox="0 0 24 24" id="24x24--calendar-check" xmlns="http://www.w3.org/2000/svg"><path fill="currentColor" fill-rule="evenodd" d="M9 3a1 1 0 00-2 0v.302c-1.051-.067-2.01-.14-2.719-.197-1.24-.1-2.275.94-2.17 2.18.147 1.73.389 4.935.389 7.215 0 2.327-.252 5.616-.398 7.319A2.008 2.008 0 004.1 22h15.8a2.008 2.008 0 001.998-2.181c-.146-1.703-.398-4.992-.398-7.319 0-2.28.242-5.484.39-7.215a2.017 2.017 0 00-2.171-2.18c-.709.057-1.668.13-2.719.197V3a1 1 0 10-2 0v.416c-1.048.05-2.093.084-3 .084s-1.952-.034-3-.084V3zm6 4V5.418a66.023 66.023 0 01-3 .082c-.914 0-1.956-.033-3-.082V7a1 1 0 01-2 0V5.306a170.371 170.371 0 01-2.88-.208h-.004l-.007.005a.02.02 0 00-.005.007v.005c.147 1.73.396 5.01.396 7.385 0 2.423-.26 5.79-.405 7.49a.02.02 0 000 .004v.002l.003.003.001.001h15.803l.001-.001a.016.016 0 00.003-.005v-.005c-.145-1.7-.405-5.066-.405-7.489 0-2.375.25-5.656.396-7.385V5.11a.02.02 0 00-.005-.007.02.02 0 00-.006-.004h-.005c-.737.059-1.758.136-2.88.207V7a1 1 0 11-2 0zm1.426 4.65a1 1 0 10-1.519-1.3l-3.64 4.248-1.624-1.364a1 1 0 00-1.286 1.532l2.38 2a1 1 0 001.403-.115l4.286-5z"/></symbol><symbol fill="none" viewBox="0 0 24 24" id="24x24--calendar-min" xmlns="http://www.w3.org/2000/svg"><path fill="currentColor" fill-rule="evenodd" d="M9 3a1 1 0 00-2 0v.302c-1.051-.067-2.01-.14-2.719-.197-1.24-.1-2.275.94-2.17 2.18.147 1.73.389 4.935.389 7.215 0 2.327-.252 5.616-.398 7.319A2.008 2.008 0 004.1 22h15.8a2.008 2.008 0 001.998-2.181c-.146-1.703-.398-4.992-.398-7.319 0-2.28.242-5.484.39-7.215a2.017 2.017 0 00-2.171-2.18c-.709.057-1.668.13-2.719.197V3a1 1 0 10-2 0v.416c-1.048.05-2.093.084-3 .084s-1.952-.034-3-.084V3zm6 4V5.418a66.023 66.023 0 01-3 .082c-.914 0-1.956-.033-3-.082V7a1 1 0 01-2 0V5.306a170.371 170.371 0 01-2.88-.208h-.004l-.007.005a.02.02 0 00-.005.007v.005c.147 1.73.396 5.01.396 7.385 0 2.423-.26 5.79-.405 7.49a.02.02 0 000 .004v.002l.003.003.001.001h15.803l.001-.001a.016.016 0 00.003-.005v-.005c-.145-1.7-.405-5.066-.405-7.489 0-2.375.25-5.656.396-7.385V5.11a.02.02 0 00-.005-.007.02.02 0 00-.006-.004h-.005c-.737.059-1.758.136-2.88.207V7a1 1 0 11-2 0zm1 7a1 1 0 100-2H8a1 1 0 100 2h8z"/></symbol><symbol fill="none" viewBox="0 0 24 24" id="24x24--calendar-plus" xmlns="http://www.w3.org/2000/svg"><path fill="currentColor" fill-rule="evenodd" d="M8 2a1 1 0 011 1v.416c1.048.05 2.093.084 3 .084s1.952-.034 3-.084V3a1 1 0 112 0v.302c1.051-.067 2.01-.14 2.719-.197 1.24-.1 2.275.94 2.17 2.18-.147 1.73-.389 4.935-.389 7.215 0 2.327.252 5.616.398 7.319A2.008 2.008 0 0119.9 22H4.1a2.008 2.008 0 01-1.998-2.181c.146-1.703.398-4.992.398-7.319 0-2.28-.242-5.484-.39-7.215a2.017 2.017 0 012.171-2.18c.709.057 1.668.13 2.719.197V3a1 1 0 011-1zm7 3.418V7a1 1 0 102 0V5.306a170.345 170.345 0 002.884-.208.02.02 0 01.008.005.02.02 0 01.004.007v.005c-.146 1.73-.396 5.01-.396 7.385 0 2.423.26 5.79.405 7.49v.004l-.003.005-.001.001H4.1l-.002-.001a.014.014 0 01-.002-.003l-.001-.002v-.005c.145-1.7.405-5.066.405-7.489 0-2.375-.25-5.656-.396-7.385a.02.02 0 010-.004V5.11a.02.02 0 01.005-.007.02.02 0 01.006-.004h.006c.736.059 1.757.136 2.879.207V7a1 1 0 102 0V5.418c1.044.049 2.086.082 3 .082.914 0 1.956-.033 3-.082zM12 8a1 1 0 011 1v3h3a1 1 0 110 2h-3v3a1 1 0 11-2 0v-3H8a1 1 0 110-2h3V9a1 1 0 011-1z"/></symbol><symbol fill="none" viewBox="0 0 24 24" id="24x24--camera" xmlns="http://www.w3.org/2000/svg"><path fill="currentColor" fill-rule="evenodd" d="M8.78 3a2 2 0 00-1.94 1.515L6.22 7H4.145a2.017 2.017 0 00-1.998 2.252C2.296 10.52 2.5 12.543 2.5 14c0 1.415-.192 3.364-.34 4.639a2.026 2.026 0 002.17 2.252c1.828-.147 5.241-.391 7.67-.391 2.429 0 5.842.244 7.67.391a2.026 2.026 0 002.17-2.252c-.148-1.275-.34-3.224-.34-4.639 0-1.457.204-3.48.352-4.748A2.017 2.017 0 0019.854 7H17.78l-.621-2.485A1.999 1.999 0 0015.22 3H8.78zm0 2h.005l7.075 2.558A2 2 0 0017.78 9h2.07l.01.004a.025.025 0 01.005.008v.008c-.148 1.27-.365 3.395-.365 4.98 0 1.54.205 3.59.352 4.868a.02.02 0 010 .011.035.035 0 01-.017.018h-.005c-1.826-.146-5.312-.397-7.83-.397s-6.004.251-7.83.398h-.004a.035.035 0 01-.017-.019l-.001-.004a.03.03 0 010-.007C4.295 17.59 4.5 15.54 4.5 14c0-1.585-.217-3.71-.365-4.98v-.008A.025.025 0 014.145 9h2.074a2 2 0 001.94-1.515L8.781 5zm11.07 4h.006L15.86 7.556a1.866 1.866 0 01-.02-.07L15.22 5H8.784l7.075 2.556v.002L19.85 9zM10 13a2 2 0 114 0 2 2 0 01-4 0zm2-4a4 4 0 100 8 4 4 0 000-8z"/></symbol><symbol fill="none" viewBox="0 0 24 24" id="24x24--caret-circle" xmlns="http://www.w3.org/2000/svg"><path fill="currentColor" fill-rule="evenodd" d="M12 4a8 8 0 100 16 8 8 0 000-16zM2 12C2 6.477 6.477 2 12 2s10 4.477 10 10-4.477 10-10 10S2 17.523 2 12zm10.707-5.707l3 3a1 1 0 01-1.414 1.414L12 8.414l-2.293 2.293a1 1 0 01-1.414-1.414l3-3a1 1 0 011.414 0zm-4.414 8.414l3 3a1 1 0 001.414 0l3-3a1 1 0 00-1.414-1.414L12 15.586l-2.293-2.293a1 1 0 00-1.414 1.414z"/></symbol><symbol fill="none" viewBox="0 0 24 24" id="24x24--caret-vertical" xmlns="http://www.w3.org/2000/svg"><path fill="currentColor" fill-rule="evenodd" d="M12.707 3.293a1 1 0 00-1.414 0l-6 6a1 1 0 001.414 1.414L12 5.414l5.293 5.293a1 1 0 001.414-1.414l-6-6zM5.293 15.707l6 6a1 1 0 001.414 0l6-6a1 1 0 00-1.414-1.414L12 19.586l-5.293-5.293a1 1 0 00-1.414 1.414z"/></symbol><symbol fill="none" viewBox="0 0 24 24" id="24x24--check" xmlns="http://www.w3.org/2000/svg"><path stroke="currentColor" stroke-linecap="round" stroke-linejoin="round" stroke-width="2" d="M20 6L9.714 18 4 13.2"/></symbol><symbol fill="none" viewBox="0 0 24 24" id="24x24--check-circle" xmlns="http://www.w3.org/2000/svg"><path fill="currentColor" fill-rule="evenodd" d="M4 12a8 8 0 0110.636-7.556 1 1 0 00.659-1.888A9.987 9.987 0 0012 2C6.477 2 2 6.477 2 12s4.477 10 10 10 10-4.477 10-10c0-.375-.02-.745-.061-1.11a1 1 0 00-1.988.22A8 8 0 114 12zm17.767-7.359a1 1 0 00-1.534-1.282l-7.707 9.22-3.873-3.337a1 1 0 00-1.306 1.516l4.643 4a1 1 0 001.42-.117l8.357-10z"/></symbol><symbol fill="none" viewBox="0 0 24 24" id="24x24--chevron-double-down" xmlns="http://www.w3.org/2000/svg"><path fill="currentColor" fill-rule="evenodd" d="M4.293 5.707l7 7a1 1 0 001.414 0l7-7a1 1 0 00-1.414-1.414L12 10.586 5.707 4.293a1 1 0 00-1.414 1.414zm0 8l7 7a1 1 0 001.414 0l7-7a1 1 0 00-1.414-1.414L12 18.586l-6.293-6.293a1 1 0 00-1.414 1.414z"/></symbol><symbol fill="none" viewBox="0 0 24 24" id="24x24--chevron-double-left" xmlns="http://www.w3.org/2000/svg"><path fill="currentColor" fill-rule="evenodd" d="M3.793 11.793a1 1 0 000 1.414l7 7a1 1 0 001.414-1.414L5.914 12.5l6.293-6.293a1 1 0 00-1.414-1.414l-7 7zm8 0a1 1 0 000 1.414l7 7a1 1 0 001.414-1.414L13.914 12.5l6.293-6.293a1 1 0 00-1.414-1.414l-7 7z"/></symbol><symbol fill="none" viewBox="0 0 24 24" id="24x24--chevron-double-right" xmlns="http://www.w3.org/2000/svg"><path fill="currentColor" fill-rule="evenodd" d="M5.207 20.207l7-7a1 1 0 000-1.414l-7-7a1 1 0 00-1.414 1.414l6.293 6.293-6.293 6.293a1 1 0 101.414 1.414zm8 0l7-7a1 1 0 000-1.414l-7-7a1 1 0 10-1.414 1.414l6.293 6.293-6.293 6.293a1 1 0 001.414 1.414z"/></symbol><symbol fill="none" viewBox="0 0 24 24" id="24x24--chevron-double-up" xmlns="http://www.w3.org/2000/svg"><path fill="currentColor" fill-rule="evenodd" d="M12.707 4.293a1 1 0 00-1.414 0l-7 7a1 1 0 101.414 1.414L12 6.414l6.293 6.293a1 1 0 001.414-1.414l-7-7zm7 15l-7-7a1 1 0 00-1.414 0l-7 7a1 1 0 101.414 1.414L12 14.414l6.293 6.293a1 1 0 001.414-1.414z"/></symbol><symbol fill="none" viewBox="0 0 24 24" id="24x24--chevron-down" xmlns="http://www.w3.org/2000/svg"><path stroke="currentColor" stroke-linecap="round" stroke-linejoin="round" stroke-width="2" d="M19 8l-7 7-7-7"/></symbol><symbol fill="none" viewBox="0 0 24 24" id="24x24--chevron-left" xmlns="http://www.w3.org/2000/svg"><path stroke="currentColor" stroke-linecap="round" stroke-linejoin="round" stroke-width="2" d="M15.5 19l-7-7 7-7"/></symbol><symbol fill="none" viewBox="0 0 24 24" id="24x24--chevron-right" xmlns="http://www.w3.org/2000/svg"><path stroke="currentColor" stroke-linecap="round" stroke-linejoin="round" stroke-width="2" d="M8.5 5l7 7-7 7"/></symbol><symbol fill="none" viewBox="0 0 24 24" id="24x24--chevron-up" xmlns="http://www.w3.org/2000/svg"><path stroke="currentColor" stroke-linecap="round" stroke-linejoin="round" stroke-width="2" d="M5 15l7-7 7 7"/></symbol><symbol fill="none" viewBox="0 0 24 24" id="24x24--circle" xmlns="http://www.w3.org/2000/svg"><circle cx="12" cy="12" r="9" stroke="currentColor" stroke-width="2"/></symbol><symbol fill="none" viewBox="0 0 24 24" id="24x24--clipboard" xmlns="http://www.w3.org/2000/svg"><path fill="currentColor" fill-rule="evenodd" d="M9 2a2 2 0 00-2 2H5.124a2.01 2.01 0 00-1.998 2.218c.168 1.626.445 4.643.445 6.782 0 2.14-.277 5.156-.445 6.782A2.01 2.01 0 005.124 22h13.752a2.01 2.01 0 001.998-2.218c-.168-1.626-.445-4.643-.445-6.782 0-2.14.277-5.156.445-6.782A2.01 2.01 0 0018.876 4H17v2h1.878l.003.003a.013.013 0 01.003.005v.005c-.167 1.623-.455 4.733-.455 6.987 0 2.254.288 5.364.455 6.987v.005l-.003.005-.002.002h-.001l-.002.001H5.122l-.003-.003a.016.016 0 01-.003-.005v-.005c.167-1.623.455-4.733.455-6.987 0-2.254-.288-5.364-.455-6.987v-.005l.003-.005A.015.015 0 015.122 6H7a2 2 0 002 2h6a2 2 0 002-2V4a2 2 0 00-2-2H9zm0 2h6v2H9V4z"/></symbol><symbol fill="none" viewBox="0 0 24 24" id="24x24--clipboard-check" xmlns="http://www.w3.org/2000/svg"><path fill="currentColor" fill-rule="evenodd" d="M7 4a2 2 0 012-2h6a2 2 0 012 2v2a2 2 0 01-2 2H9a2 2 0 01-2-2H5.122l-.003.003a.015.015 0 00-.003.005v.005c.167 1.623.455 4.733.455 6.987 0 2.254-.288 5.364-.455 6.987v.005l.003.005.002.002h.001l.002.001h13.754l.003-.003a.014.014 0 00.003-.005v-.005c-.167-1.623-.455-4.733-.455-6.987 0-2.254.288-5.364.455-6.987v-.005l-.003-.005A.016.016 0 0018.878 6H17V4h1.876a2.01 2.01 0 011.998 2.218c-.168 1.626-.445 4.643-.445 6.782 0 2.14.277 5.156.445 6.782A2.01 2.01 0 0118.876 22H5.124a2.01 2.01 0 01-1.998-2.218c.168-1.626.445-4.643.445-6.782 0-2.14-.277-5.156-.445-6.782A2.01 2.01 0 015.124 4H7zm8 0H9v2h6V4zm1.426 7.65a1 1 0 10-1.519-1.3l-3.64 4.248-1.624-1.364a1 1 0 00-1.286 1.532l2.38 2a1 1 0 001.403-.115l4.286-5z"/></symbol><symbol fill="none" viewBox="0 0 24 24" id="24x24--clipboard-min" xmlns="http://www.w3.org/2000/svg"><path fill="currentColor" fill-rule="evenodd" d="M7 4a2 2 0 012-2h6a2 2 0 012 2v2a2 2 0 01-2 2H9a2 2 0 01-2-2H5.122l-.003.003a.015.015 0 00-.003.005v.005c.167 1.623.455 4.733.455 6.987 0 2.254-.288 5.364-.455 6.987v.005l.003.005.002.002h.001l.002.001h13.754l.003-.003a.014.014 0 00.003-.005v-.005c-.167-1.623-.455-4.733-.455-6.987 0-2.254.288-5.364.455-6.987v-.005l-.003-.005A.016.016 0 0018.878 6H17V4h1.876a2.01 2.01 0 011.998 2.218c-.168 1.626-.445 4.643-.445 6.782 0 2.14.277 5.156.445 6.782A2.01 2.01 0 0118.876 22H5.124a2.01 2.01 0 01-1.998-2.218c.168-1.626.445-4.643.445-6.782 0-2.14-.277-5.156-.445-6.782A2.01 2.01 0 015.124 4H7zm8 0H9v2h6V4zm1 11a1 1 0 100-2H8a1 1 0 100 2h8z"/></symbol><symbol fill="none" viewBox="0 0 24 24" id="24x24--clipboard-plus" xmlns="http://www.w3.org/2000/svg"><path fill="currentColor" fill-rule="evenodd" d="M9 2a2 2 0 00-2 2H5.124a2.01 2.01 0 00-1.998 2.218c.168 1.626.445 4.643.445 6.782 0 2.14-.277 5.156-.445 6.782A2.01 2.01 0 005.124 22h13.752a2.01 2.01 0 001.998-2.218c-.168-1.626-.445-4.643-.445-6.782 0-2.14.277-5.156.445-6.782A2.01 2.01 0 0018.876 4H17v2h1.878l.003.003a.013.013 0 01.003.005v.005c-.167 1.623-.455 4.733-.455 6.987 0 2.254.288 5.364.455 6.987v.005l-.003.005-.002.002h-.001l-.002.001H5.12l-.002-.003a.016.016 0 01-.003-.005v-.005c.167-1.623.455-4.733.455-6.987 0-2.254-.288-5.364-.455-6.987v-.005l.003-.005A.015.015 0 015.122 6H7a2 2 0 002 2h6a2 2 0 002-2V4a2 2 0 00-2-2H9zm0 2h6v2H9V4zm3 5a1 1 0 011 1v3h3a1 1 0 110 2h-3v3a1 1 0 11-2 0v-3H8a1 1 0 110-2h3v-3a1 1 0 011-1z"/></symbol><symbol fill="none" viewBox="0 0 24 24" id="24x24--clock" xmlns="http://www.w3.org/2000/svg"><path fill="currentColor" fill-rule="evenodd" d="M4 12a8 8 0 1116 0 8 8 0 01-16 0zm8-10C6.477 2 2 6.477 2 12s4.477 10 10 10 10-4.477 10-10S17.523 2 12 2zm1 5.5a1 1 0 10-2 0v4.032l-2.64 2.2a1 1 0 101.28 1.536l3-2.5A1 1 0 0013 12V7.5z"/></symbol><symbol fill="none" viewBox="0 0 24 24" id="24x24--copy" xmlns="http://www.w3.org/2000/svg"><path fill="currentColor" fill-rule="evenodd" d="M4.2 2A2.2 2.2 0 002 4.2V15a2.2 2.2 0 002.2 2.2h2.6v2.6A2.2 2.2 0 009 22h10.8a2.2 2.2 0 002.2-2.2V9a2.2 2.2 0 00-2.2-2.2h-2.6V4.2A2.2 2.2 0 0015 2H4.2zm11 4.8V4.2A.2.2 0 0015 4H4.2a.2.2 0 00-.2.2V15c0 .11.09.2.2.2h2.6V9A2.2 2.2 0 019 6.8h6.2zM8.8 9c0-.11.09-.2.2-.2h10.8c.11 0 .2.09.2.2v10.8a.2.2 0 01-.2.2H9a.2.2 0 01-.2-.2V9z"/></symbol><symbol fill="none" viewBox="0 0 24 24" id="24x24--crop" xmlns="http://www.w3.org/2000/svg"><path fill="currentColor" fill-rule="evenodd" d="M8 3a1 1 0 10-2 0v2H3a1 1 0 100 2h14v9h2V6a1 1 0 00-1-1H8V3zM6 8v10a1 1 0 001 1h10v2a1 1 0 102 0v-2h2a1 1 0 100-2H8V8H6z"/></symbol><symbol fill="none" viewBox="0 0 24 24" id="24x24--document-image" xmlns="http://www.w3.org/2000/svg"><path fill="currentColor" fill-rule="evenodd" d="M3 4a2 2 0 012-2h9.586A2 2 0 0116 2.586L20.414 7A2 2 0 0121 8.414V20a2 2 0 01-2 2H5a2 2 0 01-2-2V4zm11.586 0H5v8.586l3.293-3.293.674-.674.706.641 2.96 2.692 2.66-2.66.661-.66.704.615L19 11.297V8.413L14.586 4zM19 13.954l-2.954-2.585-1.93 1.93L19 17.739v-3.785zM5 20v-4.586l4.033-4.033L18.513 20H5z"/></symbol><symbol fill="none" viewBox="0 0 24 24" id="24x24--document-text" xmlns="http://www.w3.org/2000/svg"><path fill="currentColor" fill-rule="evenodd" d="M5 2a2 2 0 00-2 2v16a2 2 0 002 2h14a2 2 0 002-2V8.414A2 2 0 0020.414 7L16 2.586A2 2 0 0014.586 2H5zm0 2h9.586L19 8.414V20H5V4zm2 3a1 1 0 000 2h7a1 1 0 100-2H7zm-1 5a1 1 0 011-1h10a1 1 0 110 2H7a1 1 0 01-1-1zm1 3a1 1 0 100 2h10a1 1 0 100-2H7z"/></symbol><symbol fill="none" viewBox="0 0 24 24" id="24x24--documents" xmlns="http://www.w3.org/2000/svg"><path fill="currentColor" fill-rule="evenodd" d="M8 2a2 2 0 00-2 2v1H5a2 2 0 00-2 2v13a2 2 0 002 2h11a2 2 0 002-2v-1h1a2 2 0 002-2V7.707a2 2 0 00-.545-1.371l-3.494-3.708A2 2 0 0015.506 2H8zm8 17H8a2 2 0 01-2-2V7H5v13h11v-1zM8 6v11h11V7.707L15.506 4H8v2z"/></symbol><symbol fill="none" viewBox="0 0 24 24" id="24x24--donut" xmlns="http://www.w3.org/2000/svg"><path fill="currentColor" fill-rule="evenodd" d="M4 12a8 8 0 1116 0 8 8 0 01-16 0zm8-10C6.477 2 2 6.477 2 12s4.477 10 10 10 10-4.477 10-10S17.523 2 12 2zM9 12a3 3 0 116 0 3 3 0 01-6 0zm3-5a5 5 0 100 10 5 5 0 000-10z"/></symbol><symbol fill="none" viewBox="0 0 24 24" id="24x24--download" xmlns="http://www.w3.org/2000/svg"><path fill="currentColor" fill-rule="evenodd" d="M13 3a1 1 0 10-2 0v9.227L6.676 8.263a1 1 0 10-1.352 1.474l6 5.5a1 1 0 001.352 0l6-5.5a1 1 0 00-1.352-1.474L13 12.227V3zM4 16a1 1 0 10-2 0v3.905a2.007 2.007 0 002.17 1.999c1.781-.145 5.327-.404 7.83-.404 2.502 0 6.049.26 7.83.404a2.007 2.007 0 002.17-2V16a1 1 0 10-2 0v3.906l-.002.002a.012.012 0 01-.003.003h-.004c-1.777-.145-5.397-.411-7.991-.411-2.594 0-6.214.266-7.991.41h-.003l-.004-.002L4 19.907V16z"/></symbol><symbol fill="none" viewBox="0 0 24 24" id="24x24--edit-1" xmlns="http://www.w3.org/2000/svg"><path stroke="currentColor" stroke-linecap="round" stroke-linejoin="round" stroke-width="2" d="M4.7 15.26L3 20l4.533-.593L18.21 9.257a2.463 2.463 0 00-3.39-3.573L4.7 15.259z"/></symbol><symbol fill="none" viewBox="0 0 24 24" id="24x24--edit-2" xmlns="http://www.w3.org/2000/svg"><path fill="currentColor" fill-rule="evenodd" d="M15.508 6.41a1.463 1.463 0 012.013 2.123l-10.44 9.925-2.587.338 1.067-2.974 9.947-9.412zm3.508-1.33a3.463 3.463 0 00-4.883-.123l-10.12 9.576a1 1 0 00-.254.389l-1.7 4.74a1 1 0 001.07 1.33l4.534-.593a1 1 0 00.56-.267l10.676-10.15a3.463 3.463 0 00.117-4.903zM13 19a1 1 0 100 2h8a1 1 0 100-2h-8z"/></symbol><symbol fill="none" viewBox="0 0 24 24" id="24x24--edit-3" xmlns="http://www.w3.org/2000/svg"><path fill="currentColor" fill-rule="evenodd" d="M19.175 4.095a1.121 1.121 0 011.506 1.662l-9.12 8.29-2.044.256.834-2.224 8.824-7.984zm2.959-1.375a3.121 3.121 0 00-4.301-.108l-9.004 8.146a.999.999 0 00-.265.39l-1.5 4a1 1 0 001.06 1.344l4-.5a1 1 0 00.549-.252l9.353-8.504a3.121 3.121 0 00.108-4.516zM4.314 2a2.21 2.21 0 00-2.2 2.387C2.26 6.23 2.5 9.597 2.5 12c0 2.349-.229 5.62-.377 7.487a2.223 2.223 0 002.39 2.39C6.38 21.729 9.651 21.5 12 21.5c2.403 0 5.77.24 7.613.387A2.21 2.21 0 0022 19.686V12a1 1 0 10-2 0v7.686a.21.21 0 01-.228.207c-1.84-.147-5.28-.393-7.772-.393-2.437 0-5.779.235-7.645.383a.223.223 0 01-.238-.238c.148-1.866.383-5.208.383-7.645 0-2.492-.246-5.932-.393-7.772A.21.21 0 014.314 4H12a1 1 0 100-2H4.314z"/></symbol><symbol fill="none" viewBox="0 0 24 24" id="24x24--exclamation-circle" xmlns="http://www.w3.org/2000/svg"><path fill="currentColor" fill-rule="evenodd" d="M12 4a8 8 0 100 16 8 8 0 000-16zM2 12C2 6.477 6.477 2 12 2s10 4.477 10 10-4.477 10-10 10S2 17.523 2 12zm11.01 4.5a1 1 0 01-1 1H12a1 1 0 110-2h.01a1 1 0 011 1zm-2-3.5a1 1 0 102 0V8a1 1 0 10-2 0v5z"/></symbol><symbol fill="none" viewBox="0 0 24 24" id="24x24--external-link" xmlns="http://www.w3.org/2000/svg"><path fill="currentColor" fill-rule="evenodd" d="M22 3a1 1 0 00-1-1h-6a1 1 0 100 2h3.586l-6.293 6.293a1 1 0 001.414 1.414L20 5.414V9a1 1 0 102 0V3zM6.124 4a2.012 2.012 0 00-1.998 2.218C4.274 7.67 4.5 10.196 4.5 12c0 1.746-.212 4.17-.36 5.642a2.028 2.028 0 002.218 2.218c1.473-.148 3.896-.36 5.642-.36 1.804 0 4.33.226 5.782.374A2.012 2.012 0 0020 17.876V13a1 1 0 10-2 0v4.878a.02.02 0 01-.009.006h-.006c-1.451-.147-4.068-.384-5.985-.384-1.857 0-4.37.222-5.842.37H6.15a.034.034 0 01-.012-.008.033.033 0 01-.008-.012.01.01 0 010-.002v-.006c.148-1.473.37-3.985.37-5.842 0-1.917-.237-4.534-.385-5.985v-.006A.019.019 0 016.123 6H11a1 1 0 100-2H6.124z"/></symbol><symbol fill="none" viewBox="0 0 24 24" id="24x24--eye" xmlns="http://www.w3.org/2000/svg"><path fill="currentColor" fill-rule="evenodd" d="M4.484 12.308A18.55 18.55 0 014.24 12a18.647 18.647 0 012.073-2.264C7.888 8.286 9.9 7 12 7s4.112 1.285 5.686 2.736A18.642 18.642 0 0119.76 12a18.64 18.64 0 01-2.073 2.264C16.111 15.714 14.1 17 12 17s-4.112-1.285-5.687-2.736a18.644 18.644 0 01-1.829-1.956zm17.346-.866L21 12l.83.558-.002.002-.003.006-.012.016a8.723 8.723 0 01-.188.266 20.644 20.644 0 01-2.583 2.888C17.358 17.286 14.87 19 12 19s-5.359-1.715-7.041-3.264a20.649 20.649 0 01-2.584-2.888 12.29 12.29 0 01-.188-.266l-.012-.016-.003-.006-.001-.001v-.001L3 12l-.83-.558.002-.002.003-.006.012-.016a8.634 8.634 0 01.188-.266 20.651 20.651 0 012.583-2.888C6.642 6.714 9.13 5 12 5s5.359 1.715 7.041 3.264a20.646 20.646 0 012.584 2.888 12.198 12.198 0 01.188.266l.012.016.003.006.001.001v.001zM21 12l.83-.557.375.557-.375.557L21 12zm-18.83-.557L3 12l-.83.557L1.795 12l.375-.557zM11 12a1 1 0 112 0 1 1 0 01-2 0zm1-3a3 3 0 100 6 3 3 0 000-6z"/></symbol><symbol fill="none" viewBox="0 0 24 24" id="24x24--eye-closed" xmlns="http://www.w3.org/2000/svg"><path fill="currentColor" fill-rule="evenodd" d="M4.484 12.308A18.55 18.55 0 014.24 12a18.647 18.647 0 012.073-2.264C7.888 8.286 9.9 7 12 7s4.112 1.285 5.686 2.736A18.642 18.642 0 0119.76 12a18.64 18.64 0 01-2.073 2.264C16.111 15.714 14.1 17 12 17s-4.112-1.285-5.687-2.736a18.644 18.644 0 01-1.829-1.956zm17.346-.866L21 12l.83.558-.002.002-.003.006-.012.016a8.723 8.723 0 01-.188.266 20.81 20.81 0 01-2.339 2.659l1.495 1.868a1 1 0 11-1.562 1.25l-1.456-1.82c-1.325.996-2.952 1.88-4.763 2.126V21a1 1 0 11-2 0v-2.069c-1.811-.247-3.438-1.13-4.763-2.127l-1.456 1.82a1 1 0 11-1.562-1.249l1.495-1.869a20.825 20.825 0 01-2.339-2.658 12.29 12.29 0 01-.188-.266l-.012-.016-.003-.006-.001-.001v-.001L3 12l-.83-.558.002-.002.003-.006.012-.016a8.634 8.634 0 01.188-.266 20.651 20.651 0 012.583-2.888C6.642 6.714 9.13 5 12 5s5.359 1.715 7.041 3.264a20.646 20.646 0 012.584 2.888 12.198 12.198 0 01.188.266l.012.016.003.006.001.001v.001zM21 12l.83-.557.375.557-.375.557L21 12zm-18.83-.557L3 12l-.83.557L1.795 12l.375-.557z"/></symbol><symbol fill="none" viewBox="0 0 24 24" id="24x24--face-id" xmlns="http://www.w3.org/2000/svg"><path fill="currentColor" fill-rule="evenodd" d="M4.09 4.006l.002-.004L4.094 4H10V2H4.095a2.007 2.007 0 00-1.999 2.17c.109 1.343.285 3.706.364 5.867l1.998-.073C4.378 7.758 4.2 5.36 4.09 4.009v-.003zM14 4h5.907l.001.002a.015.015 0 01.002.003v.004c-.11 1.351-.288 3.75-.368 5.955l1.998.072c.08-2.16.255-4.523.364-5.865a2.007 2.007 0 00-2-2.171H14v2zM4.09 19.991c.11-1.351.288-3.75.368-5.954l-1.998-.074c-.08 2.161-.255 4.524-.364 5.866A2.006 2.006 0 004.094 22H10v-2H4.093l-.001-.001a.013.013 0 01-.002-.003v-.005zm15.452-5.954c.08 2.205.259 4.603.369 5.954v.004s0 .002-.002.002V20l-.002.001H14v2h5.906a2.006 2.006 0 001.998-2.17 140.963 140.963 0 01-.364-5.866l-1.998.072zM8.01 10a1 1 0 100-2H8a1 1 0 000 2h.01zm9-1a1 1 0 01-1 1H16a1 1 0 110-2h.01a1 1 0 011 1zm-8.454 4.169a1 1 0 00-1.112 1.662L8 14l-.556.831.002.001.002.002.007.005.025.016.085.054a13.84 13.84 0 001.343.742c.809.39 1.978.849 3.092.849s2.283-.46 3.092-.849a13.847 13.847 0 001.428-.796l.025-.016.007-.005.002-.002h.001L16 14l.556.831a1 1 0 00-1.112-1.662h-.002l-.014.01a7.21 7.21 0 01-.315.195c-.22.13-.529.303-.887.475-.752.36-1.582.651-2.226.651-.644 0-1.474-.29-2.226-.651a11.825 11.825 0 01-1.202-.67l-.014-.01h-.002zm0 0L8 14l.556-.831z"/></symbol><symbol fill="none" viewBox="0 0 24 24" id="24x24--face-id-sad" xmlns="http://www.w3.org/2000/svg"><path fill="currentColor" fill-rule="evenodd" d="M4.09 4.006l.002-.004L4.094 4H10V2H4.095a2.007 2.007 0 00-1.999 2.17c.109 1.343.285 3.706.364 5.867l1.998-.073C4.378 7.758 4.2 5.36 4.09 4.009v-.003zM14 4h5.907l.001.002a.015.015 0 01.002.003v.004c-.11 1.351-.288 3.75-.368 5.955l1.998.072c.08-2.16.255-4.523.364-5.865a2.007 2.007 0 00-2-2.171H14v2zM4.09 19.991c.11-1.351.288-3.75.368-5.954l-1.998-.074c-.08 2.161-.255 4.524-.364 5.866A2.006 2.006 0 004.094 22H10v-2H4.093l-.001-.001a.013.013 0 01-.002-.003v-.005zm15.452-5.954c.08 2.205.259 4.603.369 5.954v.004s0 .002-.002.002V20l-.002.001H14v2h5.906a2.006 2.006 0 001.998-2.17 140.963 140.963 0 01-.364-5.866l-1.998.072zM8.01 10a1 1 0 100-2H8a1 1 0 000 2h.01zm9-1a1 1 0 01-1 1H16a1 1 0 110-2h.01a1 1 0 011 1zm-1.566 7.331a1 1 0 001.112-1.662L16 15.5l.556-.831-.002-.001-.002-.002-.007-.005-.025-.016a11.804 11.804 0 00-.39-.24 13.847 13.847 0 00-1.038-.556C14.283 13.459 13.114 13 12 13s-2.283.46-3.092.849a13.842 13.842 0 00-1.428.796l-.025.016-.007.005-.002.002h-.001L8 15.5l-.556-.831a1 1 0 001.112 1.662h.002l.014-.01a6.673 6.673 0 01.315-.195c.22-.13.529-.303.887-.475.752-.36 1.582-.651 2.226-.651.644 0 1.474.29 2.226.651a11.805 11.805 0 011.202.67l.014.01h.002zm0 0L16 15.5l-.556.831z"/></symbol><symbol fill="none" viewBox="0 0 24 24" id="24x24--file" xmlns="http://www.w3.org/2000/svg"><path fill="currentColor" fill-rule="evenodd" d="M5 2a2 2 0 00-2 2v16a2 2 0 002 2h14a2 2 0 002-2V8.414A2 2 0 0020.414 7L16 2.586A2 2 0 0014.586 2H5zm6.5 2H5v16h14v-9.5h-5.5a2 2 0 01-2-2V4zM19 8.5h-5.5V4h1.086L19 8.414V8.5z"/></symbol><symbol fill="none" viewBox="0 0 24 24" id="24x24--file-check" xmlns="http://www.w3.org/2000/svg"><path fill="currentColor" fill-rule="evenodd" d="M5 2a2 2 0 00-2 2v16a2 2 0 002 2h14a2 2 0 002-2V8.414A2 2 0 0020.414 7L16 2.586A2 2 0 0014.586 2H5zm0 2h9.586L19 8.414V20H5V4zm11.426 5.65a1 1 0 10-1.519-1.3l-3.641 4.248-1.623-1.364a1 1 0 00-1.286 1.532l2.38 2a1 1 0 001.403-.115l4.286-5z"/></symbol><symbol fill="none" viewBox="0 0 24 24" id="24x24--file-min" xmlns="http://www.w3.org/2000/svg"><path fill="currentColor" fill-rule="evenodd" d="M5 2a2 2 0 00-2 2v16a2 2 0 002 2h14a2 2 0 002-2V8.414A2 2 0 0020.414 7L16 2.586A2 2 0 0014.586 2H5zm0 2h9.586L19 8.414V20H5V4zm11 9a1 1 0 100-2H8a1 1 0 100 2h8z"/></symbol><symbol fill="none" viewBox="0 0 24 24" id="24x24--file-plus" xmlns="http://www.w3.org/2000/svg"><path fill="currentColor" fill-rule="evenodd" d="M3 4a2 2 0 012-2h9.586A2 2 0 0116 2.586L20.414 7A2 2 0 0121 8.414V20a2 2 0 01-2 2H5a2 2 0 01-2-2V4zm11.586 0H5v16h14V8.414L14.586 4zM12 7a1 1 0 011 1v3h3a1 1 0 110 2h-3v3a1 1 0 11-2 0v-3H8a1 1 0 110-2h3V8a1 1 0 011-1z"/></symbol><symbol fill="none" viewBox="0 0 24 24" id="24x24--folder" xmlns="http://www.w3.org/2000/svg"><path stroke="currentColor" stroke-linecap="round" stroke-linejoin="round" stroke-width="2" d="M9.532 3H4a1 1 0 00-1 1v16a1 1 0 001 1h16a1 1 0 001-1V7a1 1 0 00-1-1h-7.032a1 1 0 01-.768-.36l-1.9-2.28A1 1 0 009.532 3z"/></symbol><symbol fill="none" viewBox="0 0 24 24" id="24x24--folder-min" xmlns="http://www.w3.org/2000/svg"><path fill="currentColor" fill-rule="evenodd" d="M4 2a2 2 0 00-2 2v16a2 2 0 002 2h16a2 2 0 002-2V7a2 2 0 00-2-2h-7.032l-1.9-2.28A2 2 0 009.532 2H4zm0 2h5.532l1.9 2.28a2 2 0 001.536.72H20v13H4V4zm12 10a1 1 0 100-2H8a1 1 0 100 2h8z"/></symbol><symbol fill="none" viewBox="0 0 24 24" id="24x24--folder-plus" xmlns="http://www.w3.org/2000/svg"><path fill="currentColor" fill-rule="evenodd" d="M2 4a2 2 0 012-2h5.532a2 2 0 011.536.72l1.9 2.28H20a2 2 0 012 2v13a2 2 0 01-2 2H4a2 2 0 01-2-2V4zm7.532 0H4v16h16V7h-7.032a2 2 0 01-1.536-.72L9.532 4zM12 8a1 1 0 011 1v3h3a1 1 0 110 2h-3v3a1 1 0 11-2 0v-3H8a1 1 0 110-2h3V9a1 1 0 011-1z"/></symbol><symbol fill="none" viewBox="0 0 24 24" id="24x24--folders" xmlns="http://www.w3.org/2000/svg"><path fill="currentColor" fill-rule="evenodd" d="M8 2a2 2 0 00-2 2v2H4a2 2 0 00-2 2v12a2 2 0 002 2h12a2 2 0 002-2v-2h2a2 2 0 002-2V6.333a2 2 0 00-2-2h-5.143L13.512 2.72A2 2 0 0011.976 2H8zm8 16v2H4V8h2v8a2 2 0 002 2h8zM8 7v9h12V6.333h-5.143a2 2 0 01-1.536-.72L11.976 4H8v3z"/></symbol><symbol fill="none" viewBox="0 0 24 24" id="24x24--font-roman" xmlns="http://www.w3.org/2000/svg"><path stroke="currentColor" stroke-linecap="round" stroke-linejoin="round" stroke-width="2" d="M12 5v14m0-14H8m4 0h4m-4 14H8m4 0h4"/></symbol><symbol fill="none" viewBox="0 0 24 24" id="24x24--heart" xmlns="http://www.w3.org/2000/svg"><path fill="currentColor" fill-rule="evenodd" d="M7.5 5C5.663 5 4 6.69 4 9c0 1.914 1.364 3.999 3.205 5.886 1.772 1.816 3.786 3.25 4.756 3.898.962-.73 3-2.35 4.799-4.248.912-.962 1.738-1.971 2.331-2.952C19.693 10.59 20 9.714 20 9c0-2.31-1.663-4-3.5-4C14.664 5 13 6.69 13 9a1 1 0 11-2 0c0-2.31-1.664-4-3.5-4zm4.5.552C11.02 4.027 9.402 3 7.5 3 4.366 3 2 5.788 2 9c0 2.757 1.88 5.342 3.774 7.283 1.938 1.987 4.116 3.525 5.12 4.193.69.459 1.58.428 2.236-.069.98-.742 3.149-2.455 5.082-4.495.966-1.02 1.896-2.145 2.59-3.292C21.488 11.486 22 10.24 22 9c0-3.212-2.366-6-5.5-6-1.902 0-3.52 1.027-4.5 2.552z"/></symbol><symbol fill="none" viewBox="0 0 24 24" id="24x24--home" xmlns="http://www.w3.org/2000/svg"><path fill="currentColor" fill-rule="evenodd" d="M13.28 1.765a2 2 0 00-2.56 0l-7.932 6.61a2.013 2.013 0 00-.706 1.805c.14 1.08.418 3.443.418 5.07 0 1.37-.197 3.269-.345 4.488A2.016 2.016 0 004.151 22H19.85c1.22 0 2.138-1.075 1.995-2.262-.147-1.22-.345-3.118-.345-4.488 0-1.627.278-3.99.418-5.07a2.013 2.013 0 00-.706-1.805l-7.932-6.61zM12 3.302l7.931 6.61s.004.003.003.011c-.139 1.072-.434 3.554-.434 5.327 0 1.503.212 3.508.36 4.728v.007l-.001.003a.024.024 0 01-.008.012H4.15a.026.026 0 01-.009-.012v-.003a.03.03 0 010-.007c.147-1.22.359-3.225.359-4.728 0-1.773-.295-4.255-.434-5.327-.001-.008.002-.012.003-.012L12 3.301zM12 11a4 4 0 00-4 4v5h2v-5a2 2 0 114 0v5h2v-5a4 4 0 00-4-4z"/></symbol><symbol fill="none" viewBox="0 0 24 24" id="24x24--image" xmlns="http://www.w3.org/2000/svg"><path fill="currentColor" fill-rule="evenodd" d="M4.098 4.11v.004C4.244 5.924 4.5 9.456 4.5 12c0 .35-.005.719-.014 1.1l3.807-3.807.674-.674.706.641 2.96 2.692 2.66-2.66.667-.666.704.627 2.837 2.52c.014-2.523.26-5.902.401-7.659V4.11a.02.02 0 00-.005-.006.02.02 0 00-.006-.005h-.005c-1.81.146-5.342.402-7.886.402-2.544 0-6.076-.256-7.886-.402H4.11l-.006.005a.02.02 0 00-.005.006zM19.56 14.503l-3.52-3.13-1.925 1.926 5.678 5.161a135.158 135.158 0 01-.233-3.958zM4.098 19.886c.076-.94.181-2.345.265-3.835l4.67-4.67 9.238 8.398c-1.88-.134-4.355-.279-6.271-.279-2.544 0-6.076.256-7.886.402H4.11a.02.02 0 01-.006-.005.02.02 0 01-.005-.006v-.005zM2.104 4.275a2.016 2.016 0 012.17-2.17C6.089 2.25 9.547 2.5 12 2.5c2.454 0 5.912-.25 7.725-.396 1.237-.1 2.27.934 2.17 2.17C21.75 6.089 21.5 9.547 21.5 12c0 2.454.25 5.912.396 7.725a2.016 2.016 0 01-2.17 2.17C17.911 21.75 14.453 21.5 12 21.5c-2.454 0-5.912.25-7.725.396a2.016 2.016 0 01-2.17-2.17C2.25 17.911 2.5 14.453 2.5 12c0-2.454-.25-5.912-.396-7.725z"/></symbol><symbol fill="none" viewBox="0 0 24 24" id="24x24--inbox" xmlns="http://www.w3.org/2000/svg"><path fill="currentColor" fill-rule="evenodd" d="M4.104 5.11a.02.02 0 01.005-.007.02.02 0 01.006-.004h.006C5.933 5.244 9.459 5.5 12 5.5c2.541 0 6.067-.255 7.88-.402h.004a.02.02 0 01.008.005.019.019 0 01.004.007v.005c-.136 1.611-.362 4.568-.393 6.885h-1.94a3 3 0 00-2.486 1.322l-1.061 1.57a1 1 0 01-.829.441h-2.374a1 1 0 01-.829-.44l-1.06-1.571A3 3 0 006.437 12h-1.94c-.03-2.317-.257-5.274-.393-6.885a.02.02 0 010-.004zm.37 8.89c-.07 2.168-.262 4.62-.38 5.99a.02.02 0 000 .004l.002.002s0 .002.002.003l.001.001h15.803l.001-.001.002-.003.001-.002v-.005c-.117-1.37-.308-3.82-.378-5.989h-1.964a1 1 0 00-.829.44l-1.06 1.572a3 3 0 01-2.487 1.321h-2.374a3 3 0 01-2.487-1.321l-1.06-1.572a1 1 0 00-.829-.44H4.473zM4.28 3.105c-1.24-.1-2.275.94-2.17 2.18.147 1.73.389 4.935.389 7.215 0 2.327-.252 5.616-.398 7.319A2.008 2.008 0 004.1 22h15.8a2.008 2.008 0 001.998-2.181c-.146-1.703-.398-4.992-.398-7.319 0-2.28.242-5.484.39-7.215a2.017 2.017 0 00-2.171-2.18C17.904 3.25 14.45 3.5 12 3.5c-2.451 0-5.904-.249-7.719-.395z"/></symbol><symbol fill="none" viewBox="0 0 24 24" id="24x24--inbox-in" xmlns="http://www.w3.org/2000/svg"><path fill="currentColor" fill-rule="evenodd" d="M12 1a1 1 0 011 1v5.731l3.325-3.038a1 1 0 011.35 1.476l-5 4.57a1 1 0 01-1.35 0l-5-4.57a1 1 0 011.35-1.476L11 7.73V2a1 1 0 011-1zM3.5 12h2.937a3 3 0 012.487 1.322l1.06 1.57a1 1 0 00.829.441h2.374a1 1 0 00.829-.44l1.06-1.571A3 3 0 0117.563 12H20.5a1 1 0 011 1c0 2.271.24 5.218.387 6.802A2.01 2.01 0 0119.888 22H4.112a2.01 2.01 0 01-2-2.198c.148-1.584.388-4.53.388-6.802a1 1 0 011-1zm16.013 2c.053 2.17.256 4.615.383 5.987v.005a.015.015 0 01-.004.006.012.012 0 01-.002.002H4.11l-.002-.002a.016.016 0 01-.004-.005v-.006c.127-1.372.33-3.818.383-5.987h1.95a1 1 0 01.829.44l1.06 1.572a3 3 0 002.487 1.321h2.374a3 3 0 002.487-1.321l1.06-1.572a1 1 0 01.829-.44h1.95z"/></symbol><symbol fill="none" viewBox="0 0 24 24" id="24x24--inbox-out" xmlns="http://www.w3.org/2000/svg"><path fill="currentColor" fill-rule="evenodd" d="M12 11a1 1 0 01-1-1V4.269L7.675 7.307a1 1 0 11-1.35-1.476l5-4.57a1 1 0 011.35 0l5 4.57a1 1 0 01-1.35 1.476L13 4.27V10a1 1 0 01-1 1zm-8.5 1h2.937a3 3 0 012.487 1.322l1.06 1.57a1 1 0 00.829.441h2.374a1 1 0 00.829-.44l1.06-1.571A3 3 0 0117.563 12H20.5a1 1 0 011 1c0 2.271.24 5.218.387 6.802A2.01 2.01 0 0119.888 22H4.112a2.01 2.01 0 01-2-2.198c.148-1.584.388-4.53.388-6.802a1 1 0 011-1zm16.013 2c.053 2.17.256 4.615.383 5.987v.005a.015.015 0 01-.004.006.012.012 0 01-.002.002H4.11l-.002-.002a.016.016 0 01-.004-.005v-.006c.127-1.372.33-3.818.383-5.987h1.95a1 1 0 01.829.44l1.06 1.572a3 3 0 002.487 1.321h2.374a3 3 0 002.487-1.321l1.06-1.572a1 1 0 01.829-.44h1.95z"/></symbol><symbol fill="none" viewBox="0 0 24 24" id="24x24--info" xmlns="http://www.w3.org/2000/svg"><path fill="currentColor" fill-rule="evenodd" d="M12 4a8 8 0 100 16 8 8 0 000-16zM2 12C2 6.477 6.477 2 12 2s10 4.477 10 10-4.477 10-10 10S2 17.523 2 12zm9-4a1 1 0 011-1h.01a1 1 0 110 2H12a1 1 0 01-1-1zm2 3.5a1 1 0 10-2 0v5a1 1 0 102 0v-5z"/></symbol><symbol fill="none" viewBox="0 0 24 24" id="24x24--italic" xmlns="http://www.w3.org/2000/svg"><path stroke="currentColor" stroke-linecap="round" stroke-linejoin="round" stroke-width="2" d="M14 5l-4 14m4-14h-4m4 0h4m-8 14H6m4 0h4"/></symbol><symbol fill="none" viewBox="0 0 24 24" id="24x24--list" xmlns="http://www.w3.org/2000/svg"><path fill="currentColor" fill-rule="evenodd" d="M21 6a1 1 0 01-1 1H9a1 1 0 010-2h11a1 1 0 011 1zM6 6a1 1 0 01-1 1H4a1 1 0 010-2h1a1 1 0 011 1zm15 6a1 1 0 01-1 1H9a1 1 0 110-2h11a1 1 0 011 1zM6 12a1 1 0 01-1 1H4a1 1 0 110-2h1a1 1 0 011 1zm14 7a1 1 0 100-2H9a1 1 0 100 2h11zM5 19a1 1 0 100-2H4a1 1 0 100 2h1z"/></symbol><symbol fill="none" viewBox="0 0 24 24" id="24x24--lock-closed" xmlns="http://www.w3.org/2000/svg"><path fill="currentColor" fill-rule="evenodd" d="M9 5a1 1 0 011-1h4a1 1 0 011 1v3H9V5zM7 8V5a3 3 0 013-3h4a3 3 0 013 3v3h1.854a2.017 2.017 0 011.998 2.252C20.704 11.52 20.5 13.543 20.5 15c0 1.457.204 3.48.352 4.748A2.017 2.017 0 0118.854 22H5.146a2.017 2.017 0 01-1.998-2.252C3.296 18.48 3.5 16.457 3.5 15c0-1.457-.204-3.48-.352-4.748A2.017 2.017 0 015.146 8H7zm0 2H5.144l-.004.004a.025.025 0 00-.005.008v.008c.148 1.27.365 3.395.365 4.98 0 1.585-.217 3.71-.365 4.98v.008a.025.025 0 00.01.012h13.711l.004-.004a.025.025 0 00.005-.008v-.008c-.148-1.27-.365-3.395-.365-4.98 0-1.585.217-3.71.365-4.98a.027.027 0 000-.008.025.025 0 00-.01-.012H7z"/></symbol><symbol fill="none" viewBox="0 0 24 24" id="24x24--lock-open" xmlns="http://www.w3.org/2000/svg"><path fill="currentColor" fill-rule="evenodd" d="M9 5a1 1 0 011-1h4a1 1 0 011 1v.5a1 1 0 102 0V5a3 3 0 00-3-3h-4a3 3 0 00-3 3v3H5.146a2.017 2.017 0 00-1.998 2.252C3.296 11.52 3.5 13.543 3.5 15c0 1.457-.204 3.48-.352 4.748A2.017 2.017 0 005.146 22h13.708a2.017 2.017 0 001.998-2.252C20.704 18.48 20.5 16.457 20.5 15c0-1.457.204-3.48.352-4.748A2.017 2.017 0 0018.854 8H9V5zm-3.865 5.02v-.008a.025.025 0 01.01-.012h13.711l.004.004a.025.025 0 01.005.008.027.027 0 010 .008c-.148 1.27-.365 3.395-.365 4.98 0 1.585.217 3.71.365 4.98v.007a.025.025 0 01-.01.013H5.145l-.004-.004a.025.025 0 01-.005-.008v-.008c.148-1.27.365-3.395.365-4.98 0-1.585-.217-3.71-.365-4.98z"/></symbol><symbol fill="none" viewBox="0 0 24 24" id="24x24--mail" xmlns="http://www.w3.org/2000/svg"><path fill="currentColor" fill-rule="evenodd" d="M4 5.095v-.001l.002-.002a.011.011 0 01.003-.003h.004C5.786 5.234 9.406 5.5 12 5.5c2.594 0 6.214-.266 7.991-.41h.003l.004.002.002.002v2.318l-8 4.444-8-4.444V5.095zM4 9.7v9.206l.002.002a.01.01 0 00.003.003h.004C5.786 18.766 9.406 18.5 12 18.5c2.594 0 6.214.266 7.991.41h.003l.004-.002.002-.002V9.7l-7.029 3.904a2 2 0 01-1.942 0L4 9.7zm.17-6.604a2.007 2.007 0 00-2.17 2v13.809a2.007 2.007 0 002.17 1.999c1.781-.145 5.327-.404 7.83-.404 2.502 0 6.049.26 7.83.404a2.007 2.007 0 002.17-2V5.096a2.007 2.007 0 00-2.17-1.999c-1.781.145-5.327.404-7.83.404s-6.049-.26-7.83-.404z"/></symbol><symbol fill="none" viewBox="0 0 24 24" id="24x24--mail-open" xmlns="http://www.w3.org/2000/svg"><path fill="currentColor" fill-rule="evenodd" d="M12.633 1.157a2 2 0 00-1.265 0L7.183 2.55 3.368 3.823A2 2 0 002 5.721v14.184a2.007 2.007 0 002.17 1.999c1.781-.145 5.327-.404 7.83-.404 2.502 0 6.049.26 7.83.404a2.007 2.007 0 002.17-2V5.722a2 2 0 00-1.367-1.898l-3.817-1.272-4.183-1.394zM7.816 4.449L12 3.054l4.184 1.395L20 5.72v2.69l-8 4.445-8-4.444V5.72l3.816-1.272zM4 10.699v9.208l.002.002a.01.01 0 00.003.003h.004C5.786 19.766 9.406 19.5 12 19.5c2.594 0 6.214.266 7.991.41h.003l.004-.002.002-.002V10.7l-7.029 3.905a2 2 0 01-1.942 0L4 10.7z"/></symbol><symbol fill="none" viewBox="0 0 24 24" id="24x24--maximize" xmlns="http://www.w3.org/2000/svg"><path fill="currentColor" fill-rule="evenodd" d="M22 3a1 1 0 00-1-1h-6a1 1 0 100 2h3.586l-4.293 4.293a1 1 0 001.414 1.414L20 5.414V9a1 1 0 102 0V3zM2 21a1 1 0 001 1h6a1 1 0 100-2H5.414l4.293-4.293a1 1 0 00-1.414-1.414L4 18.586V15a1 1 0 10-2 0v6z"/></symbol><symbol fill="none" viewBox="0 0 24 24" id="24x24--menu" xmlns="http://www.w3.org/2000/svg"><path fill="currentColor" fill-rule="evenodd" d="M21 6a1 1 0 01-1 1H4a1 1 0 010-2h16a1 1 0 011 1zm0 6a1 1 0 01-1 1H4a1 1 0 110-2h16a1 1 0 011 1zm-1 7a1 1 0 100-2H4a1 1 0 100 2h16z"/></symbol><symbol fill="none" viewBox="0 0 24 24" id="24x24--minimize" xmlns="http://www.w3.org/2000/svg"><path fill="currentColor" fill-rule="evenodd" d="M14 9a1 1 0 001 1h6a1 1 0 100-2h-3.586l4.293-4.293a1 1 0 00-1.414-1.414L16 6.586V3a1 1 0 10-2 0v6zm-4 6a1 1 0 00-1-1H3a1 1 0 100 2h3.586l-4.293 4.293a1 1 0 101.414 1.414L8 17.414V21a1 1 0 102 0v-6z"/></symbol><symbol fill="none" viewBox="0 0 24 24" id="24x24--minus" xmlns="http://www.w3.org/2000/svg"><path stroke="currentColor" stroke-linecap="round" stroke-linejoin="round" stroke-width="2" d="M20 12H4"/></symbol><symbol fill="none" viewBox="0 0 24 24" id="24x24--more-horizontal" xmlns="http://www.w3.org/2000/svg"><path fill="currentColor" fill-rule="evenodd" d="M5 10a2 2 0 100 4 2 2 0 000-4zm5 2a2 2 0 114 0 2 2 0 01-4 0zm7 0a2 2 0 114 0 2 2 0 01-4 0z"/></symbol><symbol fill="none" viewBox="0 0 24 24" id="24x24--more-vertical" xmlns="http://www.w3.org/2000/svg"><path fill="currentColor" fill-rule="evenodd" d="M14 5a2 2 0 10-4 0 2 2 0 004 0zm-2 5a2 2 0 110 4 2 2 0 010-4zm0 7a2 2 0 110 4 2 2 0 010-4z"/></symbol><symbol fill="none" viewBox="0 0 24 24" id="24x24--natatoko" xmlns="http://www.w3.org/2000/svg"><path stroke="currentColor" stroke-linecap="round" stroke-linejoin="round" stroke-width="2" d="M19 4.02a1 1 0 00-1.142-1.01l-3.793.544a1 1 0 00-.857.968l-.08 3.69-2.034-3.588a1 1 0 00-1.012-.497l-3.919.563a1 1 0 00-.857.969L5 19.979a1 1 0 001.142 1.01l3.814-.548a1 1 0 00.858-.972l.07-4.048 2.14 3.923a1 1 0 001.02.511l3.814-.547a1 1 0 00.857-.97L19 4.02z"/></symbol><symbol fill="none" viewBox="0 0 24 24" id="24x24--overline" xmlns="http://www.w3.org/2000/svg"><path fill="currentColor" fill-rule="evenodd" d="M18.99 3.865a1 1 0 01-.854 1.126L18 4l-.135-.99a1 1 0 011.126.855zm-1.126-.856L18 4l.135.99-.003.001-.009.001-.032.005-.123.016-.453.058c-.385.047-.922.11-1.533.174-1.214.125-2.756.255-3.982.255-1.226 0-2.768-.13-3.982-.255a79.136 79.136 0 01-1.986-.232l-.123-.016-.033-.005h-.008l-.002-.001h-.001l.134-.98-.134.98a1 1 0 01.27-1.982h.002l.008.001.03.004.116.016.44.056c.374.046.898.108 1.493.17C9.425 3.38 10.883 3.5 12 3.5s2.575-.12 3.776-.245a77.193 77.193 0 001.933-.225l.117-.016.03-.004h.008zM7 8.5a1 1 0 10-2 0v6a7 7 0 1014 0v-6a1 1 0 10-2 0v6a5 5 0 01-10 0v-6z"/></symbol><symbol fill="none" viewBox="0 0 24 24" id="24x24--percentage" xmlns="http://www.w3.org/2000/svg"><path fill="currentColor" fill-rule="evenodd" d="M4 12a8 8 0 1116 0 8 8 0 01-16 0zm8-10C6.477 2 2 6.477 2 12s4.477 10 10 10 10-4.477 10-10S17.523 2 12 2zM8.707 7.293a1 1 0 00-1.414 1.414l8 8a1 1 0 001.414-1.414l-8-8zM17 9a2 2 0 11-4 0 2 2 0 014 0zm-8 8a2 2 0 100-4 2 2 0 000 4z"/></symbol><symbol fill="none" viewBox="0 0 24 24" id="24x24--plus" xmlns="http://www.w3.org/2000/svg"><path fill="currentColor" fill-rule="evenodd" d="M13 4a1 1 0 10-2 0v7H4a1 1 0 100 2h7v7a1 1 0 102 0v-7h7a1 1 0 100-2h-7V4z"/></symbol><symbol fill="none" viewBox="0 0 24 24" id="24x24--plus-circle" xmlns="http://www.w3.org/2000/svg"><path fill="currentColor" fill-rule="evenodd" d="M4 12a8 8 0 1116 0 8 8 0 01-16 0zm8-10C6.477 2 2 6.477 2 12s4.477 10 10 10 10-4.477 10-10S17.523 2 12 2zm0 5a1 1 0 011 1v3h3a1 1 0 110 2h-3v3a1 1 0 11-2 0v-3H8a1 1 0 110-2h3V8a1 1 0 011-1z"/></symbol><symbol fill="none" viewBox="0 0 24 24" id="24x24--printer" xmlns="http://www.w3.org/2000/svg"><path fill="currentColor" fill-rule="evenodd" d="M6.265 3.411C6.05 2.197 6.962 1 8.262 1h8.476c1.3 0 2.213 1.197 1.997 2.411-.124.695-.235 1.498-.235 2.089 0 .59.111 1.394.235 2.089.024.138.034.275.03.411H21a2 2 0 012 2v7a2 2 0 01-2 2h-2.479c.038.502.123 1.075.214 1.589.216 1.214-.697 2.411-1.997 2.411H8.262c-1.3 0-2.212-1.197-1.997-2.411.091-.514.176-1.087.214-1.589H4a2 2 0 01-2-2v-7a2 2 0 012-2h2.234a2.048 2.048 0 01.031-.411C6.39 6.894 6.5 6.09 6.5 5.5c0-.59-.111-1.394-.235-2.089zM8.262 8h8.478a.063.063 0 00.025-.061c-.127-.714-.266-1.662-.266-2.439 0-.777.139-1.725.266-2.438a.063.063 0 00-.014-.052H8.248L16.741 3H8.258a.062.062 0 00-.025.061c.127.714.266 1.662.266 2.439 0 .777-.139 1.725-.266 2.438A.062.062 0 008.26 8h.002zm.229 10.135a1.01 1.01 0 00-.027-.403 19.34 19.34 0 00-.23-1.67.062.062 0 01.014-.052h8.504a.063.063 0 01.014.051 19.2 19.2 0 00-.23 1.671 1 1 0 00-.027.403 7.627 7.627 0 00-.009.365c0 .777.139 1.725.266 2.439a.063.063 0 01-.025.06l-.003.001H8.26a.062.062 0 01-.025-.061c.127-.714.266-1.662.266-2.439 0-.118-.003-.24-.01-.365zM18.638 17c.03-.2.063-.398.097-.589.216-1.214-.697-2.411-1.997-2.411H8.262c-1.3 0-2.212 1.197-1.997 2.411.034.19.067.389.097.589H4v-7h17v7h-2.362zm-10.39-.99A.04.04 0 018.26 16h8.481l-8.493.01z"/></symbol><symbol fill="none" viewBox="0 0 24 24" id="24x24--question-circle" xmlns="http://www.w3.org/2000/svg"><path fill="currentColor" fill-rule="evenodd" d="M12 4a8 8 0 100 16 8 8 0 000-16zM2 12C2 6.477 6.477 2 12 2s10 4.477 10 10-4.477 10-10 10S2 17.523 2 12zm10-4a1.5 1.5 0 00-1.5 1.5v.5a1 1 0 11-2 0v-.5A3.5 3.5 0 0112 6h.25A3.75 3.75 0 0116 9.75v.68a3 3 0 01-1.336 2.496l-2.11 1.406a1 1 0 01-1.109-1.664l2.11-1.406A1 1 0 0014 10.43v-.68A1.75 1.75 0 0012.25 8H12zm.01 9.5a1 1 0 100-2H12a1 1 0 100 2h.01z"/></symbol><symbol fill="none" viewBox="0 0 24 24" id="24x24--rectangle" xmlns="http://www.w3.org/2000/svg"><path stroke="currentColor" stroke-width="2" d="M3.5 12c0 2.548-.263 6.132-.407 7.91a1.006 1.006 0 001 1.09h15.814c.588 0 1.049-.503 1.001-1.09-.144-1.778-.407-5.362-.407-7.91 0-2.496.252-5.986.398-7.8A1.016 1.016 0 0019.8 3.109c-1.814.154-5.304.421-7.8.421-2.496 0-5.986-.267-7.8-.421A1.016 1.016 0 003.102 4.2c.146 1.814.398 5.304.398 7.8z"/></symbol><symbol fill="none" viewBox="0 0 24 24" id="24x24--refresh" xmlns="http://www.w3.org/2000/svg"><path fill="currentColor" fill-rule="evenodd" d="M9.718 20.99a1 1 0 00.278-1.98C6.592 18.532 4 15.662 4 12.223c0-3.222 2.278-5.946 5.365-6.668l-1.562 3.45a1 1 0 101.822.825l2.286-5.05a1 1 0 00-.267-1.178l-4-3.367a1 1 0 00-1.288 1.53l2.273 1.913C4.818 4.7 2 8.128 2 12.223 2 16.7 5.368 20.38 9.718 20.99zm4.564-17.98a1 1 0 10-.278 1.98C17.408 5.468 20 8.338 20 11.777c0 3.222-2.278 5.946-5.365 6.668l1.562-3.45a1 1 0 00-1.822-.825l-2.286 5.05a1 1 0 00.267 1.178l4 3.367a1 1 0 001.288-1.53l-2.273-1.913C19.182 19.299 22 15.872 22 11.777 22 7.3 18.632 3.62 14.282 3.01z"/></symbol><symbol fill="none" viewBox="0 0 24 24" id="24x24--refresh-alt" xmlns="http://www.w3.org/2000/svg"><path fill="currentColor" fill-rule="evenodd" d="M3.073 14.519a1 1 0 001.855-.75c-1.288-3.186-.1-6.866 2.879-8.586 2.79-1.61 6.288-1 8.457 1.312l-3.769.373a1 1 0 10.197 1.99l5.517-.545a1 1 0 00.886-.82l.916-5.148a1 1 0 00-1.97-.35l-.52 2.924c-2.79-2.789-7.167-3.515-10.714-1.468-3.878 2.239-5.38 6.995-3.734 11.068zM20.927 9.48a1 1 0 10-1.854.75c1.287 3.186.098 6.866-2.88 8.586-2.79 1.61-6.288 1-8.457-1.312l3.769-.373a1 1 0 00-.197-1.99l-5.517.545a1 1 0 00-.886.82l-.916 5.148a1 1 0 001.97.35l.52-2.924c2.79 2.789 7.167 3.515 10.714 1.468 3.878-2.239 5.38-6.995 3.734-11.068z"/></symbol><symbol fill="none" viewBox="0 0 24 24" id="24x24--search" xmlns="http://www.w3.org/2000/svg"><path fill="currentColor" fill-rule="evenodd" d="M4 10.5a6.5 6.5 0 1113 0 6.5 6.5 0 01-13 0zM10.5 2a8.5 8.5 0 105.262 15.176l4.53 4.531a1 1 0 001.415-1.414l-4.531-4.531A8.5 8.5 0 0010.5 2z"/></symbol><symbol fill="none" viewBox="0 0 24 24" id="24x24--settings" xmlns="http://www.w3.org/2000/svg"><path fill="currentColor" fill-rule="evenodd" d="M13.18 1.62a2.024 2.024 0 00-2.36 0c-.909.652-2.613 1.843-3.806 2.506-1.115.62-2.68 1.274-3.619 1.648a2.038 2.038 0 00-1.263 2.179c.149 1.04.368 2.803.368 4.047 0 1.227-.213 2.957-.361 4.005a2.04 2.04 0 001.359 2.214c1.084.371 2.902 1.036 4.016 1.655 1.093.607 2.436 1.686 3.224 2.354a2.04 2.04 0 002.505.107c.925-.662 2.578-1.814 3.743-2.46 1.115-.62 2.68-1.275 3.619-1.649a2.038 2.038 0 001.263-2.179c-.149-1.04-.368-2.803-.368-4.047 0-1.244.22-3.006.368-4.047a2.038 2.038 0 00-1.263-2.18c-.939-.373-2.504-1.028-3.62-1.647-1.192-.663-2.896-1.854-3.806-2.506zm-1.194 1.625a.024.024 0 01.028 0c.901.646 2.693 1.903 4 2.63 1.237.686 2.907 1.381 3.85 1.757a.035.035 0 01.019.016c.005.008.006.016.005.023C19.74 8.709 19.5 10.598 19.5 12c0 1.402.24 3.29.387 4.33a.034.034 0 01-.004.022.036.036 0 01-.018.016c-.944.376-2.614 1.07-3.85 1.758-1.278.71-3.018 1.925-3.936 2.582a.03.03 0 01-.02.005.047.047 0 01-.028-.01c-.79-.67-2.264-1.866-3.545-2.577-1.29-.717-3.268-1.432-4.34-1.8a.04.04 0 01-.021-.017.035.035 0 01-.006-.024c.148-1.046.381-2.902.381-4.285 0-1.402-.24-3.29-.388-4.33a.035.035 0 01.005-.022.035.035 0 01.018-.016c.944-.376 2.614-1.07 3.85-1.758 1.308-.726 3.1-1.983 4.001-2.629zM10 12a2 2 0 114 0 2 2 0 01-4 0zm2-4a4 4 0 100 8 4 4 0 000-8z"/></symbol><symbol fill="none" viewBox="0 0 24 24" id="24x24--shopping-bag" xmlns="http://www.w3.org/2000/svg"><path fill="currentColor" fill-rule="evenodd" d="M5.414 5l1-1h11.172l1 1H5.414zm16.293.293a1 1 0 01.287.816H2.006a1 1 0 01.287-.816L5 2.586C5.374 2.212 5.88 2 6.412 2h11.176c.532 0 1.038.212 1.412.586l2.707 2.707zm.287.816v.003l-.001.009-.004.038-.016.147a103.622 103.622 0 00-.226 2.428c-.125 1.504-.247 3.345-.247 4.766 0 1.978.236 4.757.383 6.296A2.01 2.01 0 0119.885 22H4.115a2.01 2.01 0 01-1.998-2.204c.147-1.54.383-4.318.383-6.296 0-1.421-.122-3.262-.247-4.766a120.4 120.4 0 00-.226-2.428L2.01 6.16l-.004-.038v-.01l-.001-.002h19.988zM4.247 8.569A156.46 156.46 0 004.107 7h15.786c-.041.435-.09.974-.14 1.57-.125 1.513-.253 3.422-.253 4.93 0 2.085.245 4.95.392 6.487v.007a.017.017 0 01-.006.006H4.114a.017.017 0 01-.006-.008v-.005c.147-1.537.392-4.402.392-6.487 0-1.508-.128-3.417-.253-4.93zM10 12a1 1 0 10-2 0 4 4 0 108 0 1 1 0 10-2 0 2 2 0 01-4 0z"/></symbol><symbol fill="none" viewBox="0 0 24 24" id="24x24--shopping-bag-check" xmlns="http://www.w3.org/2000/svg"><path fill="currentColor" fill-rule="evenodd" d="M5.414 5l1-1h11.172l1 1H5.414zm16.293.293a1 1 0 01.287.816H2.006a1 1 0 01.287-.816L5 2.586C5.374 2.212 5.88 2 6.412 2h11.176c.532 0 1.038.212 1.412.586l2.707 2.707zm.287.816v.003l-.001.009-.004.038-.016.147a103.622 103.622 0 00-.226 2.428c-.125 1.504-.247 3.345-.247 4.766 0 1.978.236 4.757.383 6.296A2.01 2.01 0 0119.885 22H4.115a2.01 2.01 0 01-1.998-2.204c.147-1.54.383-4.318.383-6.296 0-1.421-.122-3.262-.247-4.766a120.4 120.4 0 00-.226-2.428L2.01 6.16l-.004-.038v-.01l-.001-.002h19.988zM4.247 8.569A156.46 156.46 0 004.107 7h15.786c-.041.435-.09.974-.14 1.57-.125 1.513-.253 3.422-.253 4.93 0 2.085.245 4.95.392 6.487v.007a.017.017 0 01-.006.006H4.114a.017.017 0 01-.006-.008v-.005c.147-1.537.392-4.402.392-6.487 0-1.508-.128-3.417-.253-4.93zm12.179 3.082a1 1 0 00-1.519-1.302l-3.641 4.248-1.623-1.363a1 1 0 00-1.286 1.532l2.38 2a1 1 0 001.403-.115l4.286-5z"/></symbol><symbol fill="none" viewBox="0 0 24 24" id="24x24--shopping-bag-min" xmlns="http://www.w3.org/2000/svg"><path fill="currentColor" fill-rule="evenodd" d="M5.414 5l1-1h11.172l1 1H5.414zm16.293.293a1 1 0 01.287.816H2.006a1 1 0 01.287-.816L5 2.586C5.374 2.212 5.88 2 6.412 2h11.176c.532 0 1.038.212 1.412.586l2.707 2.707zm.287.816v.003l-.001.009-.004.038-.016.147a103.622 103.622 0 00-.226 2.428c-.125 1.504-.247 3.345-.247 4.766 0 1.978.236 4.757.383 6.296A2.01 2.01 0 0119.885 22H4.115a2.01 2.01 0 01-1.998-2.204c.147-1.54.383-4.318.383-6.296 0-1.421-.122-3.262-.247-4.766a120.4 120.4 0 00-.226-2.428L2.01 6.16l-.004-.038v-.01l-.001-.002h19.988zM4.247 8.569A156.46 156.46 0 004.107 7h15.786c-.041.435-.09.974-.14 1.57-.125 1.513-.253 3.422-.253 4.93 0 2.085.245 4.95.392 6.487v.007a.017.017 0 01-.006.006H4.114a.017.017 0 01-.006-.008v-.005c.147-1.537.392-4.402.392-6.487 0-1.508-.128-3.417-.253-4.93zM8 15h8a1 1 0 100-2H8a1 1 0 100 2z"/></symbol><symbol fill="none" viewBox="0 0 24 24" id="24x24--shopping-bag-plus" xmlns="http://www.w3.org/2000/svg"><path fill="currentColor" fill-rule="evenodd" d="M6.414 4l-1 1h13.172l-1-1H6.414zm15.58 2.109a1 1 0 00-.287-.816L19 2.586A1.996 1.996 0 0017.588 2H6.412C5.88 2 5.374 2.212 5 2.586L2.293 5.293a1 1 0 00-.287.816v.003l.001.009.004.038.016.147.056.552c.046.47.108 1.128.17 1.876.125 1.504.247 3.345.247 4.766 0 1.978-.236 4.757-.383 6.296A2.01 2.01 0 004.115 22h15.77a2.01 2.01 0 001.998-2.204c-.147-1.54-.383-4.318-.383-6.296 0-1.421.122-3.262.247-4.766a121.848 121.848 0 01.226-2.428l.016-.147.004-.038v-.01l.001-.002zM4.106 7c.042.435.091.974.14 1.57.126 1.513.254 3.422.254 4.93 0 2.085-.245 4.95-.393 6.487a.02.02 0 000 .004v.001a.017.017 0 00.007.008h15.772a.017.017 0 00.006-.006v-.007c-.147-1.537-.392-4.402-.392-6.487 0-1.508.128-3.417.253-4.93.05-.596.099-1.135.14-1.57H4.107zM12 9a1 1 0 011 1v3h3a1 1 0 110 2h-3v3a1 1 0 11-2 0v-3H8a1 1 0 110-2h3v-3a1 1 0 011-1z"/></symbol><symbol fill="none" viewBox="0 0 24 24" id="24x24--stats-chart" xmlns="http://www.w3.org/2000/svg"><path stroke="currentColor" stroke-linecap="round" stroke-width="2" d="M6 20v-9.333M12.26 20V4m6.24 16V7.294"/></symbol><symbol fill="none" viewBox="0 0 24 24" id="24x24--stats-chart-2" xmlns="http://www.w3.org/2000/svg"><path stroke="currentColor" stroke-linecap="round" stroke-width="2" d="M6 20V4m6.26 16V8m6.24 12v-8"/></symbol><symbol fill="none" viewBox="0 0 24 24" id="24x24--stop" xmlns="http://www.w3.org/2000/svg"><path fill="currentColor" fill-rule="evenodd" d="M7.085 5.687a8 8 0 0111.013 11.491L7.085 5.689zM5.673 7.104a8 8 0 0010.95 11.426L5.673 7.104zM12 2C6.477 2 2 6.477 2 12s4.477 10 10 10 10-4.477 10-10S17.523 2 12 2z"/></symbol><symbol fill="none" viewBox="0 0 24 24" id="24x24--strikethrough" xmlns="http://www.w3.org/2000/svg"><path fill="currentColor" fill-rule="evenodd" d="M7 5a1 1 0 00-2 0v6H3.001L3 12v-1a1 1 0 100 2v-1 1h2v1a7 7 0 1014 0v-1h1.999L21 12v1a1 1 0 100-2v1-1h-2V5a1 1 0 10-2 0v6H7V5zm0 8v1a5 5 0 0010 0v-1H7z"/></symbol><symbol fill="none" viewBox="0 0 24 24" id="24x24--trash" xmlns="http://www.w3.org/2000/svg"><path fill="currentColor" fill-rule="evenodd" d="M9 2a2 2 0 00-2 2v2H3a1 1 0 000 2h1.103c.044.419.097.96.15 1.563.125 1.403.247 3.117.247 4.437 0 1.804-.226 4.33-.374 5.782A2.012 2.012 0 006.124 22h11.752a2.012 2.012 0 001.998-2.218C19.726 18.33 19.5 15.804 19.5 14c0-1.32.122-3.034.246-4.437.054-.604.107-1.144.15-1.563H21a1 1 0 100-2h-4V4a2 2 0 00-2-2H9zm6 4V4H9v2h6zM6.246 9.386C6.2 8.866 6.154 8.392 6.114 8h11.772c-.04.392-.086.866-.132 1.386-.126 1.414-.254 3.2-.254 4.614 0 1.917.237 4.534.385 5.985v.006a.018.018 0 01-.004.006l-.003.002V20H6.122l-.003-.003a.018.018 0 01-.003-.006v-.006c.147-1.451.384-4.068.384-5.985 0-1.413-.128-3.2-.254-4.614z"/></symbol><symbol fill="none" viewBox="0 0 24 24" id="24x24--trash-alt" xmlns="http://www.w3.org/2000/svg"><path fill="currentColor" fill-rule="evenodd" d="M9 2a2 2 0 00-2 2v2H3a1 1 0 000 2h1.103c.044.419.097.96.15 1.563.125 1.403.247 3.117.247 4.437 0 1.804-.226 4.33-.374 5.782A2.012 2.012 0 006.124 22h11.752a2.012 2.012 0 001.998-2.218C19.726 18.33 19.5 15.804 19.5 14c0-1.32.122-3.034.246-4.437.054-.604.107-1.144.15-1.563H21a1 1 0 100-2h-4V4a2 2 0 00-2-2H9zm6 4V4H9v2h6zM6.246 9.386C6.2 8.866 6.154 8.392 6.114 8h11.772c-.04.392-.086.866-.132 1.386-.126 1.414-.254 3.2-.254 4.614 0 1.917.237 4.534.385 5.985v.006l-.001.002a.018.018 0 01-.003.004l-.002.002-.001.001H6.122l-.003-.003a.018.018 0 01-.003-.006v-.006c.147-1.451.384-4.068.384-5.985 0-1.413-.128-3.2-.254-4.614zM10 10a1 1 0 011 1v6a1 1 0 11-2 0v-6a1 1 0 011-1zm5 1a1 1 0 10-2 0v6a1 1 0 102 0v-6z"/></symbol><symbol fill="none" viewBox="0 0 24 24" id="24x24--underline" xmlns="http://www.w3.org/2000/svg"><path fill="currentColor" fill-rule="evenodd" d="M7 4a1 1 0 00-2 0v6a7 7 0 1014 0V4a1 1 0 10-2 0v6a5 5 0 01-10 0V4zM5.01 20.136a1 1 0 01.855-1.127L6 20l.135.99a1 1 0 01-1.126-.854zM6 20l.135.99h.01l.03-.005.116-.015a67.291 67.291 0 011.933-.225C9.425 20.62 10.883 20.5 12 20.5s2.575.12 3.776.245a77.975 77.975 0 011.933.225l.117.015.03.005h.008a1 1 0 00.271-1.98l-.134.98.134-.98-.003-.001-.009-.001-.032-.005-.123-.016a78.927 78.927 0 00-1.986-.232C14.768 18.63 13.226 18.5 12 18.5c-1.226 0-2.768.13-3.982.255a78.898 78.898 0 00-1.986.232l-.123.016-.033.005h-.008l-.002.001h-.001L6 20z"/></symbol><symbol fill="none" viewBox="0 0 24 24" id="24x24--upload" xmlns="http://www.w3.org/2000/svg"><path fill="currentColor" fill-rule="evenodd" d="M11 14.5a1 1 0 102 0V5.273l4.324 3.964a1 1 0 101.352-1.474l-6-5.5a1 1 0 00-1.352 0l-6 5.5a1 1 0 101.352 1.474L11 5.273V14.5zM4 16a1 1 0 10-2 0v3.905a2.007 2.007 0 002.17 1.999c1.781-.145 5.327-.404 7.83-.404 2.502 0 6.049.26 7.83.404a2.007 2.007 0 002.17-2V16a1 1 0 10-2 0v3.906l-.002.002a.012.012 0 01-.003.003h-.004c-1.777-.145-5.397-.411-7.991-.411-2.594 0-6.214.266-7.991.41h-.003l-.004-.002L4 19.907V16z"/></symbol><symbol fill="none" viewBox="0 0 24 24" id="24x24--x" xmlns="http://www.w3.org/2000/svg"><path fill="currentColor" fill-rule="evenodd" d="M18.435 19.264a1 1 0 001.414-1.415l-6.293-6.293 6.293-6.293a1 1 0 00-1.414-1.414l-6.293 6.293-6.435-6.435a1 1 0 10-1.414 1.414l6.435 6.435-6.435 6.435a1 1 0 101.414 1.415l6.435-6.435 6.293 6.293z"/></symbol><symbol fill="none" viewBox="0 0 24 24" id="24x24--x-circle" xmlns="http://www.w3.org/2000/svg"><path fill="currentColor" fill-rule="evenodd" d="M12 4a8 8 0 100 16 8 8 0 000-16zM2 12C2 6.477 6.477 2 12 2s10 4.477 10 10-4.477 10-10 10S2 17.523 2 12zm13.844-3.707a1 1 0 010 1.414l-2.361 2.361 2.361 2.362a1 1 0 01-1.414 1.414l-2.361-2.361-2.362 2.361a1 1 0 01-1.414-1.414l2.361-2.361-2.361-2.362a1 1 0 111.414-1.414l2.361 2.361 2.362-2.361a1 1 0 011.414 0z"/></symbol><symbol fill="none" viewBox="0 0 24 24" id="24x24--zap" xmlns="http://www.w3.org/2000/svg"><path stroke="currentColor" stroke-linecap="round" stroke-linejoin="round" stroke-width="2" d="M3.5 14l8.515-11v6.5H21L12.015 21v-7H3.5z"/></symbol><symbol fill="none" viewBox="0 0 24 24" id="24x24--zoom-in" xmlns="http://www.w3.org/2000/svg"><path fill="currentColor" fill-rule="evenodd" d="M4 10.5a6.5 6.5 0 1113 0 6.5 6.5 0 01-13 0zM10.5 2a8.5 8.5 0 105.262 15.176l4.53 4.531a1 1 0 001.415-1.414l-4.531-4.531A8.5 8.5 0 0010.5 2zm0 4a1 1 0 011 1v2.5H14a1 1 0 110 2h-2.5V14a1 1 0 11-2 0v-2.5H7a1 1 0 110-2h2.5V7a1 1 0 011-1z"/></symbol><symbol fill="none" viewBox="0 0 24 24" id="24x24--zoom-out" xmlns="http://www.w3.org/2000/svg"><path fill="currentColor" fill-rule="evenodd" d="M10.5 4a6.5 6.5 0 100 13 6.5 6.5 0 000-13zM2 10.5a8.5 8.5 0 1115.176 5.262l4.531 4.53a1 1 0 01-1.414 1.415l-4.531-4.531A8.5 8.5 0 012 10.5zm12 1a1 1 0 100-2H7a1 1 0 100 2h7z"/></symbol></svg>