<?xml version="1.0" encoding="utf-8"?><svg xmlns="http://www.w3.org/2000/svg" xmlns:xlink="http://www.w3.org/1999/xlink"><symbol fill="none" viewBox="0 0 20 20" id="20x20--alarm" xmlns="http://www.w3.org/2000/svg"><path fill="currentColor" fill-rule="evenodd" d="M1.793.793a1 1 0 011.414 1.414l-1.5 1.5A1 1 0 01.293 2.293l1.5-1.5zm15 0a1 1 0 011.414 0l1.5 1.5a1 1 0 01-1.414 1.414l-1.5-1.5a1 1 0 010-1.414zM3 10a7 7 0 1114 0 7 7 0 01-14 0zm7-9a9 9 0 100 18 9 9 0 000-18zm1 5a1 1 0 10-2 0v4.032l-2.64 2.2a1 1 0 101.28 1.536l3-2.5A1 1 0 0011 10.5V6z"/></symbol><symbol fill="none" viewBox="0 0 20 20" id="20x20--align-center" xmlns="http://www.w3.org/2000/svg"><path fill="currentColor" fill-rule="evenodd" d="M18 5a1 1 0 100-2H2a1 1 0 000 2h16zm-4 4a1 1 0 100-2H6a1 1 0 100 2h8zm5 3a1 1 0 01-1 1H2a1 1 0 110-2h16a1 1 0 011 1zm-5 5a1 1 0 100-2H6a1 1 0 100 2h8z"/></symbol><symbol fill="none" viewBox="0 0 20 20" id="20x20--align-justify" xmlns="http://www.w3.org/2000/svg"><path fill="currentColor" fill-rule="evenodd" d="M18 5a1 1 0 100-2H2a1 1 0 000 2h16zm0 4a1 1 0 100-2H2a1 1 0 100 2h16zm1 3a1 1 0 01-1 1H2a1 1 0 110-2h16a1 1 0 011 1zm-1 5a1 1 0 100-2H2a1 1 0 100 2h16z"/></symbol><symbol fill="none" viewBox="0 0 20 20" id="20x20--align-left" xmlns="http://www.w3.org/2000/svg"><path fill="currentColor" fill-rule="evenodd" d="M18 5a1 1 0 100-2H2a1 1 0 000 2h16zm-8 4a1 1 0 100-2H2a1 1 0 100 2h8zm9 3a1 1 0 01-1 1H2a1 1 0 110-2h16a1 1 0 011 1zm-9 5a1 1 0 100-2H2a1 1 0 100 2h8z"/></symbol><symbol fill="none" viewBox="0 0 20 20" id="20x20--align-right" xmlns="http://www.w3.org/2000/svg"><path fill="currentColor" fill-rule="evenodd" d="M18 5a1 1 0 100-2H2a1 1 0 000 2h16zm0 4a1 1 0 100-2h-8a1 1 0 100 2h8zm1 3a1 1 0 01-1 1H2a1 1 0 110-2h16a1 1 0 011 1zm-1 5a1 1 0 100-2h-8a1 1 0 100 2h8z"/></symbol><symbol fill="none" viewBox="0 0 20 20" id="20x20--arrow-bottom-left" xmlns="http://www.w3.org/2000/svg"><path stroke="currentColor" stroke-linecap="round" stroke-linejoin="round" stroke-width="2" d="M15.657 4.343L4.343 15.657m0 0v-9.9m0 9.9h9.9"/></symbol><symbol fill="none" viewBox="0 0 20 20" id="20x20--arrow-bottom-right" xmlns="http://www.w3.org/2000/svg"><path stroke="currentColor" stroke-linecap="round" stroke-linejoin="round" stroke-width="2" d="M4.343 4.343l11.314 11.314m0 0h-9.9m9.9 0v-9.9"/></symbol><symbol fill="none" viewBox="0 0 20 20" id="20x20--arrow-down" xmlns="http://www.w3.org/2000/svg"><path stroke="currentColor" stroke-linecap="round" stroke-linejoin="round" stroke-width="2" d="M10 2v16m0 0l-7-7m7 7l7-7"/></symbol><symbol fill="none" viewBox="0 0 20 20" id="20x20--arrow-left" xmlns="http://www.w3.org/2000/svg"><path stroke="currentColor" stroke-linecap="round" stroke-linejoin="round" stroke-width="2" d="M18 10H2m0 0l7-7m-7 7l7 7"/></symbol><symbol fill="none" viewBox="0 0 20 20" id="20x20--arrow-left-right" xmlns="http://www.w3.org/2000/svg"><path stroke="currentColor" stroke-linecap="round" stroke-linejoin="round" stroke-width="2" d="M2 10l4-4m-4 4l4 4m-4-4h16.5m0 0l-4-4m4 4l-4 4"/></symbol><symbol fill="none" viewBox="0 0 20 20" id="20x20--arrow-right" xmlns="http://www.w3.org/2000/svg"><path stroke="currentColor" stroke-linecap="round" stroke-linejoin="round" stroke-width="2" d="M2 10h16m0 0l-7-7m7 7l-7 7"/></symbol><symbol fill="none" viewBox="0 0 20 20" id="20x20--arrow-top" xmlns="http://www.w3.org/2000/svg"><path stroke="currentColor" stroke-linecap="round" stroke-linejoin="round" stroke-width="2" d="M10 18V2m0 0l7 7m-7-7L3 9"/></symbol><symbol fill="none" viewBox="0 0 20 20" id="20x20--arrow-top-bottom" xmlns="http://www.w3.org/2000/svg"><path stroke="currentColor" stroke-linecap="round" stroke-linejoin="round" stroke-width="2" d="M10.25 1.75l4 4m-4-4l-4 4m4-4v16.5m0 0l4-4m-4 4l-4-4"/></symbol><symbol fill="none" viewBox="0 0 20 20" id="20x20--arrow-top-left" xmlns="http://www.w3.org/2000/svg"><path stroke="currentColor" stroke-linecap="round" stroke-linejoin="round" stroke-width="2" d="M15.657 15.657L4.343 4.343m0 0h9.9m-9.9 0v9.9"/></symbol><symbol fill="none" viewBox="0 0 20 20" id="20x20--arrow-top-right" xmlns="http://www.w3.org/2000/svg"><path stroke="currentColor" stroke-linecap="round" stroke-linejoin="round" stroke-width="2" d="M4.343 15.657L15.657 4.343m0 0v9.9m0-9.9h-9.9"/></symbol><symbol fill="none" viewBox="0 0 20 20" id="20x20--battery-0" xmlns="http://www.w3.org/2000/svg"><path fill="currentColor" fill-rule="evenodd" d="M3 5.01l.004-.004a.022.022 0 01.007-.004h.007c1.456.177 4.064.46 5.982.46 1.918 0 4.526-.283 5.982-.46h.007l.007.004A.017.017 0 0115 5.01v9.702l-.004.004a.023.023 0 01-.007.004h-.007c-1.456-.177-4.064-.46-5.982-.46-1.918 0-4.526.283-5.982.46h-.007a.023.023 0 01-.01-.008L3 14.71v-9.7zm.26-1.995A2.015 2.015 0 001 5.011v9.699a2.015 2.015 0 002.26 1.996c1.458-.178 3.957-.446 5.74-.446 1.783 0 4.282.268 5.74.446A2.015 2.015 0 0017 14.71v-9.7a2.015 2.015 0 00-2.26-1.995c-1.458.178-3.957.445-5.74.445-1.783 0-4.282-.267-5.74-.445zM20 7.86a1 1 0 10-2 0v4.5a1 1 0 102 0v-4.5z"/></symbol><symbol fill="none" viewBox="0 0 20 20" id="20x20--battery-1" xmlns="http://www.w3.org/2000/svg"><path fill="currentColor" fill-rule="evenodd" d="M3 5.009v9.703l.004.004a.023.023 0 00.007.004h.007c1.456-.177 4.064-.46 5.982-.46 1.918 0 4.526.283 5.982.46h.007a.023.023 0 00.01-.008L15 14.71V5.009l-.004-.004a.022.022 0 00-.007-.004h-.007c-1.456.177-4.064.46-5.982.46-1.918 0-4.526-.283-5.982-.46h-.007a.022.022 0 00-.01.008zM1 5.01a2.015 2.015 0 012.26-1.996c1.458.178 3.957.445 5.74.445 1.783 0 4.282-.267 5.74-.445A2.015 2.015 0 0117 5.011v9.699a2.015 2.015 0 01-2.26 1.996c-1.458-.178-3.957-.446-5.74-.446-1.783 0-4.282.268-5.74.446A2.015 2.015 0 011 14.71v-9.7zm18 1.85a1 1 0 011 1v4.5a1 1 0 11-2 0v-4.5a1 1 0 011-1zm-12 1a1 1 0 00-2 0v4a1 1 0 102 0v-4z"/></symbol><symbol fill="none" viewBox="0 0 20 20" id="20x20--battery-2" xmlns="http://www.w3.org/2000/svg"><path fill="currentColor" fill-rule="evenodd" d="M3 5.01l.004-.004a.022.022 0 01.007-.004h.007c1.456.177 4.064.46 5.982.46 1.918 0 4.526-.283 5.982-.46h.007l.007.004A.017.017 0 0115 5.01v9.702l-.004.004a.023.023 0 01-.007.004h-.007c-1.456-.177-4.064-.46-5.982-.46-1.918 0-4.526.283-5.982.46h-.007a.023.023 0 01-.01-.008L3 14.71v-9.7zm.26-1.995A2.015 2.015 0 001 5.011v9.699a2.015 2.015 0 002.26 1.996c1.458-.178 3.957-.446 5.74-.446 1.783 0 4.282.268 5.74.446A2.015 2.015 0 0017 14.71v-9.7a2.015 2.015 0 00-2.26-1.995c-1.458.178-3.957.445-5.74.445-1.783 0-4.282-.267-5.74-.445zM20 7.86a1 1 0 10-2 0v4.5a1 1 0 102 0v-4.5zm-14-1a1 1 0 011 1v4a1 1 0 11-2 0v-4a1 1 0 011-1zm4 1a1 1 0 10-2 0v4a1 1 0 102 0v-4z"/></symbol><symbol fill="none" viewBox="0 0 20 20" id="20x20--battery-3" xmlns="http://www.w3.org/2000/svg"><path fill="currentColor" fill-rule="evenodd" d="M3 5.009v9.703l.004.004a.023.023 0 00.007.004h.007c1.456-.177 4.064-.46 5.982-.46 1.918 0 4.526.283 5.982.46h.007a.023.023 0 00.01-.008L15 14.71V5.009l-.004-.004a.022.022 0 00-.007-.004h-.007c-1.456.177-4.064.46-5.982.46-1.918 0-4.526-.283-5.982-.46h-.007a.022.022 0 00-.01.008zM1 5.01a2.015 2.015 0 012.26-1.996c1.458.178 3.957.445 5.74.445 1.783 0 4.282-.267 5.74-.445A2.015 2.015 0 0117 5.011v9.699a2.015 2.015 0 01-2.26 1.996c-1.458-.178-3.957-.446-5.74-.446-1.783 0-4.282.268-5.74.446A2.015 2.015 0 011 14.71v-9.7zm18 1.85a1 1 0 011 1v4.5a1 1 0 11-2 0v-4.5a1 1 0 011-1zm-12 1a1 1 0 00-2 0v4a1 1 0 102 0v-4zm2-1a1 1 0 011 1v4a1 1 0 11-2 0v-4a1 1 0 011-1zm4 1a1 1 0 10-2 0v4a1 1 0 102 0v-4z"/></symbol><symbol fill="none" viewBox="0 0 20 20" id="20x20--battery-charge" xmlns="http://www.w3.org/2000/svg"><path fill="currentColor" fill-rule="evenodd" d="M3 5.009v9.703l.004.004a.023.023 0 00.007.004h.007c1.456-.177 4.064-.46 5.982-.46 1.918 0 4.526.283 5.982.46h.007a.023.023 0 00.01-.008L15 14.71V5.009l-.004-.004a.022.022 0 00-.007-.004h-.007c-1.456.177-4.064.46-5.982.46-1.918 0-4.526-.283-5.982-.46h-.007a.022.022 0 00-.01.008zM1 5.01a2.015 2.015 0 012.26-1.996c1.458.178 3.957.445 5.74.445 1.783 0 4.282-.267 5.74-.445A2.015 2.015 0 0117 5.011v9.699a2.015 2.015 0 01-2.26 1.996c-1.458-.178-3.957-.446-5.74-.446-1.783 0-4.282.268-5.74.446A2.015 2.015 0 011 14.71v-9.7zm18 1.85a1 1 0 011 1v4.5a1 1 0 11-2 0v-4.5a1 1 0 011-1zm-9.47-.349A1 1 0 008 7.36v3.218L5.427 9.007a1 1 0 00-1.042 1.707l4.094 2.5A1 1 0 0010 12.36V9.165l2.47 1.543a1 1 0 001.06-1.696l-4-2.5z"/></symbol><symbol fill="none" viewBox="0 0 20 20" id="20x20--bell" xmlns="http://www.w3.org/2000/svg"><path fill="currentColor" fill-rule="evenodd" d="M3.423 7.003C3.352 3.308 6.171 0 10 0c3.83 0 6.648 3.308 6.576 7.003a28.69 28.69 0 00-.005.497c0 1.647.188 3.94.315 5.3.006.067.009.134.009.2H18a1 1 0 110 2h-4a4 4 0 01-8 0H2a1 1 0 110-2h1.105c0-.066.003-.133.01-.2.126-1.36.314-3.653.314-5.3 0-.16-.002-.325-.006-.497zM7.023 13h7.865l.003-.003a.017.017 0 00.003-.005v-.006c-.126-1.36-.323-3.736-.323-5.486 0-.174.002-.353.006-.536C14.63 4.253 12.578 2 10 2S5.37 4.253 5.423 6.964c.004.183.006.362.006.536 0 1.75-.197 4.126-.324 5.486a.02.02 0 000 .004v.002l.004.005a.013.013 0 00.003.003h1.911zM8 15a2 2 0 104 0H8z"/></symbol><symbol fill="none" viewBox="0 0 20 20" id="20x20--bold" xmlns="http://www.w3.org/2000/svg"><path fill="currentColor" fill-rule="evenodd" d="M4 1a1 1 0 00-1 1v16a1 1 0 001 1v-1 1h8a5 5 0 001.745-9.687A5 5 0 0010 1H4zm6 8a3 3 0 100-6H5v6h5zm-5 2v6h7a3 3 0 100-6H5z"/></symbol><symbol fill="none" viewBox="0 0 20 20" id="20x20--bookmark" xmlns="http://www.w3.org/2000/svg"><path stroke="currentColor" stroke-width="2" d="M3.093 3.09A1.007 1.007 0 014.095 2h11.81c.589 0 1.05.504 1.002 1.09-.144 1.778-.407 5.362-.407 7.91 0 1.9.146 4.373.28 6.247.067.933-1.072 1.46-1.734.8l-4.339-4.34a1 1 0 00-1.414 0l-4.34 4.34c-.66.66-1.8.133-1.733-.8.134-1.874.28-4.348.28-6.247 0-2.548-.263-6.132-.407-7.91z"/></symbol><symbol fill="none" viewBox="0 0 20 20" id="20x20--box" xmlns="http://www.w3.org/2000/svg"><path fill="currentColor" fill-rule="evenodd" d="M3.108 1a2.009 2.009 0 00-2 2.19C1.256 4.814 1.5 7.848 1.5 10c0 2.153-.245 5.187-.391 6.81A2.009 2.009 0 003.108 19h13.784a2.009 2.009 0 002-2.19c-.148-1.623-.392-4.657-.392-6.81 0-2.153.244-5.187.391-6.81A2.009 2.009 0 0016.892 1H3.108zM3.1 3.01v-.003c0-.001 0-.003.002-.005A.014.014 0 013.106 3h13.788l.003.002a.013.013 0 01.002.004v.005c-.048.53-.107 1.22-.165 1.989H3.266c-.058-.768-.117-1.46-.165-1.99zM3.4 7c.059 1.037.1 2.089.1 3 0 2.254-.253 5.37-.4 6.99v.003l.003.005a.013.013 0 00.003.002h13.788l.003-.002a.012.012 0 00.002-.005v-.004c-.146-1.62-.399-4.735-.399-6.989 0-.911.041-1.963.1-3H3.4zM7 12a1 1 0 011-1h4a1 1 0 110 2H8a1 1 0 01-1-1z"/></symbol><symbol fill="none" viewBox="0 0 20 20" id="20x20--calendar" xmlns="http://www.w3.org/2000/svg"><path fill="currentColor" fill-rule="evenodd" d="M6 1a1 1 0 011 1v.425a50.22 50.22 0 003 .11c.901 0 1.957-.045 3-.11V2a1 1 0 112 0v.279c.625-.052 1.196-.104 1.665-.149a2.023 2.023 0 012.206 2.203c-.148 1.563-.371 4.244-.371 6.167 0 1.978.236 4.757.383 6.296A2.01 2.01 0 0116.885 19H3.115a2.01 2.01 0 01-1.998-2.204c.147-1.54.383-4.318.383-6.296 0-1.923-.223-4.604-.371-6.167A2.024 2.024 0 013.335 2.13c.469.045 1.04.097 1.665.149V2a1 1 0 011-1zm7 3.428V6a1 1 0 102 0V4.285a128.56 128.56 0 001.861-.164h.002l.01.007a.028.028 0 01.007.01v.006A104.73 104.73 0 0016.582 8H3.418a104.909 104.909 0 00-.298-3.861v-.002l.007-.009a.03.03 0 01.01-.007h.007c.51.049 1.15.107 1.856.164V6a1 1 0 102 0V4.428a51.34 51.34 0 003 .108c.912 0 1.963-.045 3-.108zM3.496 10c.003.17.004.338.004.5 0 2.085-.245 4.95-.393 6.487a.03.03 0 000 .004v.001a.017.017 0 00.007.008h13.772a.017.017 0 00.006-.006v-.007c-.147-1.537-.392-4.402-.392-6.487 0-.162.002-.33.004-.5H3.496z"/></symbol><symbol fill="none" viewBox="0 0 20 20" id="20x20--calendar-check" xmlns="http://www.w3.org/2000/svg"><path fill="currentColor" fill-rule="evenodd" d="M7 2a1 1 0 00-2 0v.279c-.625-.052-1.196-.104-1.665-.149a2.024 2.024 0 00-2.206 2.203c.148 1.563.371 4.244.371 6.167 0 1.978-.236 4.757-.383 6.296A2.01 2.01 0 003.115 19h13.77a2.01 2.01 0 001.998-2.204c-.147-1.54-.383-4.318-.383-6.296 0-1.923.223-4.604.371-6.167a2.023 2.023 0 00-2.206-2.203c-.469.045-1.04.097-1.665.149V2a1 1 0 10-2 0v.425a50.22 50.22 0 01-3 .11 50.22 50.22 0 01-3-.11V2zm6 4V4.428a51.275 51.275 0 01-3 .108 51.34 51.34 0 01-3-.108V6a1 1 0 01-2 0V4.285c-.705-.057-1.345-.115-1.856-.164h-.007a.03.03 0 00-.01.007.028.028 0 00-.007.01v.006c.148 1.562.38 4.328.38 6.356 0 2.085-.245 4.95-.393 6.487v.005a.017.017 0 00.007.008h13.772a.017.017 0 00.006-.006v-.007c-.147-1.537-.392-4.402-.392-6.487 0-2.028.232-4.794.38-6.356v-.007a.028.028 0 00-.007-.009.028.028 0 00-.01-.007h-.007c-.51.049-1.15.107-1.856.164V6a1 1 0 11-2 0zm1.097 4.717a1 1 0 10-1.394-1.434l-3.521 3.424-1.609-1.126a1 1 0 00-1.146 1.638l2.285 1.6a1 1 0 001.27-.102l4.115-4z"/></symbol><symbol fill="none" viewBox="0 0 20 20" id="20x20--calendar-min" xmlns="http://www.w3.org/2000/svg"><path fill="currentColor" fill-rule="evenodd" d="M7 2a1 1 0 00-2 0v.279c-.625-.052-1.196-.104-1.665-.149a2.024 2.024 0 00-2.206 2.203c.148 1.563.371 4.244.371 6.167 0 1.978-.236 4.757-.383 6.296A2.01 2.01 0 003.115 19h13.77a2.01 2.01 0 001.998-2.204c-.147-1.54-.383-4.318-.383-6.296 0-1.923.223-4.604.371-6.167a2.023 2.023 0 00-2.206-2.203c-.469.045-1.04.097-1.665.149V2a1 1 0 10-2 0v.425a50.22 50.22 0 01-3 .11 50.22 50.22 0 01-3-.11V2zm6 4V4.428a51.275 51.275 0 01-3 .108 51.34 51.34 0 01-3-.108V6a1 1 0 01-2 0V4.285c-.705-.057-1.345-.115-1.856-.164h-.007a.03.03 0 00-.01.007.028.028 0 00-.007.01v.006c.148 1.562.38 4.328.38 6.356 0 2.085-.245 4.95-.393 6.487v.005a.017.017 0 00.007.008h13.772a.017.017 0 00.006-.006v-.007c-.147-1.537-.392-4.402-.392-6.487 0-2.028.232-4.794.38-6.356v-.007a.028.028 0 00-.007-.009.028.028 0 00-.01-.007h-.007c-.51.049-1.15.107-1.856.164V6a1 1 0 11-2 0zm-.5 4.5h-5a1 1 0 100 2h5a1 1 0 100-2z"/></symbol><symbol fill="none" viewBox="0 0 20 20" id="20x20--calendar-plus" xmlns="http://www.w3.org/2000/svg"><path fill="currentColor" fill-rule="evenodd" d="M6 1a1 1 0 011 1v.425a50.22 50.22 0 003 .11c.901 0 1.957-.045 3-.11V2a1 1 0 112 0v.279c.625-.052 1.196-.104 1.665-.149a2.023 2.023 0 012.206 2.203c-.148 1.563-.371 4.244-.371 6.167 0 1.978.236 4.757.383 6.296A2.01 2.01 0 0116.885 19H3.115a2.01 2.01 0 01-1.998-2.204c.147-1.54.383-4.318.383-6.296 0-1.923-.223-4.604-.371-6.167A2.024 2.024 0 013.335 2.13c.469.045 1.04.097 1.665.149V2a1 1 0 011-1zm7 3.428V6a1 1 0 102 0V4.285a128.56 128.56 0 001.861-.164h.002l.01.007a.028.028 0 01.007.01v.006c-.148 1.562-.38 4.328-.38 6.356 0 2.085.245 4.95.392 6.487v.007a.017.017 0 01-.006.006H3.114a.017.017 0 01-.006-.008v-.005c.147-1.537.392-4.402.392-6.487 0-2.028-.232-4.794-.38-6.356v-.007l.007-.009a.03.03 0 01.01-.007h.007c.51.049 1.15.107 1.856.164V6a1 1 0 002 0V4.428a51.34 51.34 0 003 .108c.912 0 1.963-.045 3-.108zM9 10.5V9a1 1 0 012 0v1.5h1.5a1 1 0 110 2H11V14a1 1 0 11-2 0v-1.5H7.5a1 1 0 110-2H9z"/></symbol><symbol fill="none" viewBox="0 0 20 20" id="20x20--camera" xmlns="http://www.w3.org/2000/svg"><path fill="currentColor" fill-rule="evenodd" d="M7.347 2a2 2 0 00-1.973 1.671L5.153 5H3.16a2.02 2.02 0 00-1.997 2.274c.147 1.168.337 2.943.337 4.226s-.19 3.057-.337 4.226A2.02 2.02 0 003.16 18h13.68a2.02 2.02 0 001.997-2.274c-.147-1.169-.337-2.943-.337-4.226s.19-3.058.337-4.226A2.02 2.02 0 0016.84 5h-1.993l-.221-1.329A2 2 0 0012.653 2H7.347zm0 2h5.306L10.27 7.009a4 4 0 00-4.094 5.17l-3.022 3.817a.03.03 0 01-.006-.01v-.004a.03.03 0 010-.007c.146-1.17.352-3.055.352-4.475 0-1.42-.206-3.304-.353-4.475a.03.03 0 010-.007v-.003A.03.03 0 013.16 7h1.994a2 2 0 001.973-1.671L7.347 4zm-1.169 8.184L3.158 16h13.683l.005-.004a.03.03 0 00.006-.01v-.004l.001-.002v-.005c-.147-1.17-.353-3.055-.353-4.475 0-1.42.206-3.304.353-4.475v-.01a.03.03 0 00-.007-.01.024.024 0 00-.005-.005h-1.994a2 2 0 01-1.973-1.671L12.653 4l-2.38 3.01a4 4 0 11-4.095 5.174zM8 11a2 2 0 114 0 2 2 0 01-4 0z"/></symbol><symbol fill="none" viewBox="0 0 20 20" id="20x20--caret-circle" xmlns="http://www.w3.org/2000/svg"><path fill="currentColor" fill-rule="evenodd" d="M10 3a7 7 0 100 14 7 7 0 000-14zm-9 7a9 9 0 1118 0 9 9 0 01-18 0zm9.707-5.707l3 3a1 1 0 01-1.414 1.414L10 6.414 7.707 8.707a1 1 0 01-1.414-1.414l3-3a1 1 0 011.414 0zm-4.414 8.414l3 3a1 1 0 001.414 0l3-3a1 1 0 00-1.414-1.414L10 13.586l-2.293-2.293a1 1 0 00-1.414 1.414z"/></symbol><symbol fill="none" viewBox="0 0 20 20" id="20x20--caret-vertical" xmlns="http://www.w3.org/2000/svg"><path fill="currentColor" fill-rule="evenodd" d="M15.293 8.707a1 1 0 101.414-1.414l-6-6a1 1 0 00-1.414 0l-6 6a1 1 0 001.414 1.414L10 3.414l5.293 5.293zM4.707 11.293a1 1 0 00-1.414 1.414l6 6a1 1 0 001.414 0l6-6a1 1 0 00-1.414-1.414L10 16.586l-5.293-5.293z"/></symbol><symbol fill="none" viewBox="0 0 20 20" id="20x20--check" xmlns="http://www.w3.org/2000/svg"><path stroke="currentColor" stroke-linecap="round" stroke-linejoin="round" stroke-width="2" d="M17 5L8 15l-5-4"/></symbol><symbol fill="none" viewBox="0 0 20 20" id="20x20--check-circle" xmlns="http://www.w3.org/2000/svg"><path fill="currentColor" fill-rule="evenodd" d="M3 10a7 7 0 019.307-6.611 1 1 0 00.658-1.889 9 9 0 105.98 7.501 1 1 0 00-1.988.22A7 7 0 113 10zm14.75-5.338a1 1 0 00-1.5-1.324l-6.435 7.28-3.183-2.593a1 1 0 00-1.264 1.55l3.929 3.2a1 1 0 001.38-.113l7.072-8z"/></symbol><symbol fill="none" viewBox="0 0 20 20" id="20x20--chevron-double-down" xmlns="http://www.w3.org/2000/svg"><path fill="currentColor" fill-rule="evenodd" d="M4.707 2.293a1 1 0 00-1.414 1.414l6 6a1 1 0 001.414 0l6-6a1 1 0 00-1.414-1.414L10 7.586 4.707 2.293zm0 8a1 1 0 10-1.414 1.414l6 6a1 1 0 001.414 0l6-6a1 1 0 00-1.414-1.414L10 15.586l-5.293-5.293z"/></symbol><symbol fill="none" viewBox="0 0 20 20" id="20x20--chevron-double-left" xmlns="http://www.w3.org/2000/svg"><path fill="currentColor" fill-rule="evenodd" d="M9.707 4.707a1 1 0 00-1.414-1.414l-6 6a1 1 0 000 1.414l6 6a1 1 0 001.414-1.414L4.414 10l5.293-5.293zm8 0a1 1 0 00-1.414-1.414l-6 6a1 1 0 000 1.414l6 6a1 1 0 001.414-1.414L12.414 10l5.293-5.293z"/></symbol><symbol fill="none" viewBox="0 0 20 20" id="20x20--chevron-double-right" xmlns="http://www.w3.org/2000/svg"><path fill="currentColor" fill-rule="evenodd" d="M2.293 15.293a1 1 0 101.414 1.414l6-6a1 1 0 000-1.414l-6-6a1 1 0 00-1.414 1.414L7.586 10l-5.293 5.293zm8 0a1 1 0 101.414 1.414l6-6a1 1 0 000-1.414l-6-6a1 1 0 10-1.414 1.414L15.586 10l-5.293 5.293z"/></symbol><symbol fill="none" viewBox="0 0 20 20" id="20x20--chevron-double-up" xmlns="http://www.w3.org/2000/svg"><path fill="currentColor" fill-rule="evenodd" d="M15.293 9.707a1 1 0 001.414-1.414l-6-6a1 1 0 00-1.414 0l-6 6a1 1 0 001.414 1.414L10 4.414l5.293 5.293zm0 8a1 1 0 001.414-1.414l-6-6a1 1 0 00-1.414 0l-6 6a1 1 0 101.414 1.414L10 12.414l5.293 5.293z"/></symbol><symbol fill="none" viewBox="0 0 20 20" id="20x20--chevron-down" xmlns="http://www.w3.org/2000/svg"><path stroke="currentColor" stroke-linecap="round" stroke-linejoin="round" stroke-width="2" d="M4 7l6 6 6-6"/></symbol><symbol fill="none" viewBox="0 0 20 20" id="20x20--chevron-left" xmlns="http://www.w3.org/2000/svg"><path stroke="currentColor" stroke-linecap="round" stroke-linejoin="round" stroke-width="2" d="M13 4l-6 6 6 6"/></symbol><symbol fill="none" viewBox="0 0 20 20" id="20x20--chevron-right" xmlns="http://www.w3.org/2000/svg"><path stroke="currentColor" stroke-linecap="round" stroke-linejoin="round" stroke-width="2" d="M7 16l6-6-6-6"/></symbol><symbol fill="none" viewBox="0 0 20 20" id="20x20--chevron-up" xmlns="http://www.w3.org/2000/svg"><path stroke="currentColor" stroke-linecap="round" stroke-linejoin="round" stroke-width="2" d="M16 13l-6-6-6 6"/></symbol><symbol fill="none" viewBox="0 0 20 20" id="20x20--circle" xmlns="http://www.w3.org/2000/svg"><circle cx="10" cy="10" r="8" stroke="currentColor" stroke-width="2"/></symbol><symbol fill="none" viewBox="0 0 20 20" id="20x20--clipboard" xmlns="http://www.w3.org/2000/svg"><path fill="currentColor" fill-rule="evenodd" d="M8 1a2 2 0 00-2 2v2a2 2 0 002 2h4a2 2 0 002-2h1.868l.003.003a.023.023 0 01.005.007v.007C15.728 6.38 15.5 8.75 15.5 10.5c0 1.75.228 4.12.376 5.483a.02.02 0 010 .005v.002a.023.023 0 01-.008.01H4.132l-.003-.003a.021.021 0 01-.004-.007v-.007c.147-1.362.375-3.732.375-5.483 0-1.75-.228-4.12-.376-5.483V5.01A.02.02 0 014.133 5H6V3H4.134a2.014 2.014 0 00-1.998 2.233C2.284 6.596 2.5 8.87 2.5 10.5c0 1.63-.216 3.904-.364 5.267A2.014 2.014 0 004.134 18h11.732a2.014 2.014 0 001.998-2.233c-.148-1.363-.364-3.636-.364-5.267 0-1.63.216-3.904.364-5.267A2.014 2.014 0 0015.866 3H14a2 2 0 00-2-2H8zm0 2h4v2H8V3z"/></symbol><symbol fill="none" viewBox="0 0 20 20" id="20x20--clipboard-check" xmlns="http://www.w3.org/2000/svg"><path fill="currentColor" fill-rule="evenodd" d="M6 3a2 2 0 012-2h4a2 2 0 012 2h1.866a2.014 2.014 0 011.998 2.233C17.716 6.596 17.5 8.87 17.5 10.5c0 1.63.216 3.904.364 5.267A2.014 2.014 0 0115.866 18H4.134a2.014 2.014 0 01-1.998-2.233c.148-1.363.364-3.636.364-5.267 0-1.63-.216-3.904-.364-5.267A2.014 2.014 0 014.134 3H6v2H4.132l-.003.003a.02.02 0 00-.004.007v.007C4.271 6.38 4.5 8.75 4.5 10.5c0 1.75-.228 4.12-.376 5.483v.007a.021.021 0 00.008.01h11.736l.001-.001.002-.002a.023.023 0 00.005-.007v-.007c-.148-1.362-.376-3.732-.376-5.483 0-1.75.228-4.12.376-5.483a.02.02 0 000-.005V5.01a.023.023 0 00-.008-.01H14a2 2 0 01-2 2H8a2 2 0 01-2-2V3zm6 0H8v2h4V3zm2.097 6.717a1 1 0 10-1.394-1.434l-3.521 3.424-1.609-1.126a1 1 0 00-1.146 1.638l2.285 1.6a1 1 0 001.27-.102l4.115-4z"/></symbol><symbol fill="none" viewBox="0 0 20 20" id="20x20--clipboard-min" xmlns="http://www.w3.org/2000/svg"><path fill="currentColor" fill-rule="evenodd" d="M6 3a2 2 0 012-2h4a2 2 0 012 2h1.866a2.014 2.014 0 011.998 2.233C17.716 6.596 17.5 8.87 17.5 10.5c0 1.63.216 3.904.364 5.267A2.014 2.014 0 0115.866 18H4.134a2.014 2.014 0 01-1.998-2.233c.148-1.363.364-3.636.364-5.267 0-1.63-.216-3.904-.364-5.267A2.014 2.014 0 014.134 3H6v2H4.132l-.003.003a.02.02 0 00-.004.007v.007C4.271 6.38 4.5 8.75 4.5 10.5c0 1.75-.228 4.12-.376 5.483v.007a.021.021 0 00.008.01h11.736l.001-.001.002-.002a.023.023 0 00.005-.007v-.007c-.148-1.362-.376-3.732-.376-5.483 0-1.75.228-4.12.376-5.483a.02.02 0 000-.005V5.01a.023.023 0 00-.008-.01H14a2 2 0 01-2 2H8a2 2 0 01-2-2V3zm6 0H8v2h4V3zm.5 7.5h-5a1 1 0 100 2h5a1 1 0 100-2z"/></symbol><symbol fill="none" viewBox="0 0 20 20" id="20x20--clipboard-plus" xmlns="http://www.w3.org/2000/svg"><path fill="currentColor" fill-rule="evenodd" d="M8 1a2 2 0 00-2 2v2a2 2 0 002 2h4a2 2 0 002-2h1.868l.003.003a.023.023 0 01.005.007v.007C15.728 6.38 15.5 8.75 15.5 10.5c0 1.75.228 4.12.376 5.483a.02.02 0 010 .005v.002a.023.023 0 01-.005.007l-.002.002h-.001l-.002.001H4.132l-.003-.003a.021.021 0 01-.004-.007v-.007c.147-1.362.375-3.732.375-5.483 0-1.75-.228-4.12-.376-5.483V5.01A.021.021 0 014.133 5H6V3H4.134a2.014 2.014 0 00-1.998 2.233C2.284 6.596 2.5 8.87 2.5 10.5c0 1.63-.216 3.904-.364 5.267A2.014 2.014 0 004.134 18h11.732a2.014 2.014 0 001.998-2.233c-.148-1.363-.364-3.636-.364-5.267 0-1.63.216-3.904.364-5.267A2.014 2.014 0 0015.866 3H14a2 2 0 00-2-2H8zm0 2h4v2H8V3zm1 7.5V9a1 1 0 012 0v1.5h1.5a1 1 0 110 2H11V14a1 1 0 11-2 0v-1.5H7.5a1 1 0 110-2H9z"/></symbol><symbol fill="none" viewBox="0 0 20 20" id="20x20--clock" xmlns="http://www.w3.org/2000/svg"><path fill="currentColor" fill-rule="evenodd" d="M3 10a7 7 0 1114 0 7 7 0 01-14 0zm7-9a9 9 0 100 18 9 9 0 000-18zm1 5a1 1 0 10-2 0v4.032l-2.64 2.2a1 1 0 101.28 1.536l3-2.5A1 1 0 0011 10.5V6z"/></symbol><symbol fill="none" viewBox="0 0 20 20" id="20x20--copy" xmlns="http://www.w3.org/2000/svg"><path fill="currentColor" fill-rule="evenodd" d="M4 2a2 2 0 00-2 2v9a2 2 0 002 2h2v2a2 2 0 002 2h9a2 2 0 002-2V8a2 2 0 00-2-2h-2V4a2 2 0 00-2-2H4zm9 4V4H4v9h2V8a2 2 0 012-2h5zM8 8h9v9H8V8z"/></symbol><symbol fill="none" viewBox="0 0 20 20" id="20x20--crop" xmlns="http://www.w3.org/2000/svg"><path fill="currentColor" fill-rule="evenodd" d="M5.5 2a1 1 0 00-2 0v2H2a1 1 0 000 2h12v7h2V5a1 1 0 00-1-1H5.5V2zm-2 5v8a1 1 0 001 1H14v2a1 1 0 102 0v-2h2a1 1 0 100-2H5.5V7h-2z"/></symbol><symbol fill="none" viewBox="0 0 20 20" id="20x20--document-image" xmlns="http://www.w3.org/2000/svg"><path fill="currentColor" fill-rule="evenodd" d="M2 3a2 2 0 012-2h7.586A2 2 0 0113 1.586L17.414 6A2 2 0 0118 7.414V17a2 2 0 01-2 2H4a2 2 0 01-2-2V3zm9.586 0H4v7.612l2.36-2.325.67-.658.7.626 2.201 1.97 1.933-1.932.672-.672.706.637L16 10.749V7.414L11.586 3zM16 13.444l-3.393-3.065-1.183 1.183L16 15.658v-2.214zM4 17v-3.581l3.095-3.048L14.501 17H4z"/></symbol><symbol fill="none" viewBox="0 0 20 20" id="20x20--document-text" xmlns="http://www.w3.org/2000/svg"><path fill="currentColor" fill-rule="evenodd" d="M4 1a2 2 0 00-2 2v14a2 2 0 002 2h12a2 2 0 002-2V7.414A2 2 0 0017.414 6L13 1.586A2 2 0 0011.586 1H4zm0 2h7.586L16 7.414V17H4V3zm2 2a1 1 0 000 2h5a1 1 0 100-2H6zm-1 5a1 1 0 011-1h8a1 1 0 110 2H6a1 1 0 01-1-1zm1 3a1 1 0 100 2h8a1 1 0 100-2H6z"/></symbol><symbol fill="none" viewBox="0 0 20 20" id="20x20--documents" xmlns="http://www.w3.org/2000/svg"><path fill="currentColor" fill-rule="evenodd" d="M7 1a2 2 0 00-2 2v1H4a2 2 0 00-2 2v10.75a2 2 0 002 2h9.05a2 2 0 002-2v-1h1a2 2 0 002-2V6.06a2 2 0 00-.545-1.371l-2.884-3.06A2 2 0 0013.165 1H7zm6.05 14.75H7a2 2 0 01-2-2V6H4v10.75h9.05v-1zM7 5v8.75h9.05V6.06L13.165 3H7v2z"/></symbol><symbol fill="none" viewBox="0 0 20 20" id="20x20--donut" xmlns="http://www.w3.org/2000/svg"><path fill="currentColor" fill-rule="evenodd" d="M3 10a7 7 0 1114 0 7 7 0 01-14 0zm7-9a9 9 0 100 18 9 9 0 000-18zm-3 9a3 3 0 116 0 3 3 0 01-6 0zm3-5a5 5 0 100 10 5 5 0 000-10z"/></symbol><symbol fill="none" viewBox="0 0 20 20" id="20x20--download" xmlns="http://www.w3.org/2000/svg"><path fill="currentColor" fill-rule="evenodd" d="M11 2a1 1 0 10-2 0v7.74L5.173 6.26a1 1 0 10-1.346 1.48l5.5 5a1 1 0 001.346 0l5.5-5a1 1 0 00-1.346-1.48L11 9.74V2zm-7.895 9.204A1 1 0 001.5 12v3.867a2.018 2.018 0 002.227 2.002c1.424-.147 3.96-.369 6.273-.369 2.386 0 5.248.236 6.795.383a2.013 2.013 0 002.205-2V12a1 1 0 10-2 0v3.884l-13.895-4.68zm0 0L2.5 11l.605.204zm0 0l13.892 4.683a.019.019 0 01-.007.005h-.006c-1.558-.148-4.499-.392-6.984-.392-2.416 0-5.034.23-6.478.38h-.009a.026.026 0 01-.013-.011V12a.998.998 0 00-.394-.796z"/></symbol><symbol fill="none" viewBox="0 0 20 20" id="20x20--edit-1" xmlns="http://www.w3.org/2000/svg"><path stroke="currentColor" stroke-linecap="round" stroke-linejoin="round" stroke-width="2" d="M3.8 12.963L2 18l4.8-.63L18.11 6.58a2.612 2.612 0 00-3.601-3.785L3.8 12.963z"/></symbol><symbol fill="none" viewBox="0 0 20 20" id="20x20--edit-2" xmlns="http://www.w3.org/2000/svg"><path fill="currentColor" fill-rule="evenodd" d="M15.198 3.52a1.612 1.612 0 012.223 2.336L6.346 16.421l-2.854.375 1.17-3.272L15.197 3.521zm3.725-1.322a3.612 3.612 0 00-5.102-.128L3.11 12.238a1 1 0 00-.253.388l-1.8 5.037a1 1 0 001.072 1.328l4.8-.63a1 1 0 00.56-.267L18.8 7.304a3.612 3.612 0 00.122-5.106zM12 17a1 1 0 100 2h6a1 1 0 100-2h-6z"/></symbol><symbol fill="none" viewBox="0 0 20 20" id="20x20--edit-3" xmlns="http://www.w3.org/2000/svg"><path fill="currentColor" fill-rule="evenodd" d="M15.747 2.97a.864.864 0 011.177 1.265l-7.904 7.37-1.516.194.653-1.785 7.59-7.044zm2.639-1.366a2.864 2.864 0 00-4-.1L6.62 8.71a1 1 0 00-.26.39l-1.3 3.556a1 1 0 001.067 1.335l3.467-.445a1 1 0 00.555-.26l8.139-7.59a2.864 2.864 0 00.098-4.093zM3.1 3.007c0-.001 0-.003.002-.005A.013.013 0 013.106 3H8a1 1 0 100-2H3.108a2.009 2.009 0 00-2 2.19C1.256 4.814 1.5 7.848 1.5 10c0 2.153-.245 5.187-.391 6.81A2.009 2.009 0 003.108 19H17c1.103 0 2-.892 2-1.999V12a1 1 0 10-2 0v5H3.106l-.003-.002a.012.012 0 01-.002-.005v-.004c.146-1.62.399-4.735.399-6.989 0-2.254-.253-5.37-.4-6.99v-.003zM17 17c-.001 0 0 0 0 0zm0 0z"/></symbol><symbol fill="none" viewBox="0 0 20 20" id="20x20--exclamation-circle" xmlns="http://www.w3.org/2000/svg"><path fill="currentColor" fill-rule="evenodd" d="M10 3a7 7 0 100 14 7 7 0 000-14zm-9 7a9 9 0 1118 0 9 9 0 01-18 0zm10.01 4a1 1 0 01-1 1H10a1 1 0 110-2h.01a1 1 0 011 1zM11 6a1 1 0 10-2 0v5a1 1 0 102 0V6z"/></symbol><symbol fill="none" viewBox="0 0 20 20" id="20x20--external-link" xmlns="http://www.w3.org/2000/svg"><path fill="currentColor" fill-rule="evenodd" d="M18.885 2a1 1 0 00-1-1h-6a1 1 0 100 2h3.586L9.178 9.293a1 1 0 101.414 1.414l6.293-6.293V8a1 1 0 102 0V2zM3.009 3a2.012 2.012 0 00-1.998 2.218c.148 1.453.374 3.978.374 5.782 0 1.746-.212 4.17-.36 5.642a2.028 2.028 0 002.218 2.218c1.473-.148 3.896-.36 5.642-.36 1.804 0 4.33.226 5.782.374a2.012 2.012 0 002.218-1.998V12a1 1 0 10-2 0v4.878l-.003.003a.018.018 0 01-.006.003h-.006c-1.451-.147-4.068-.384-5.985-.384-1.857 0-4.37.222-5.842.37h-.008a.034.034 0 01-.012-.008.033.033 0 01-.008-.012.01.01 0 010-.002v-.006c.148-1.473.37-3.985.37-5.842 0-1.917-.237-4.534-.385-5.985v-.006l.004-.006A.016.016 0 013.007 5h4.878a1 1 0 000-2H3.009z"/></symbol><symbol fill="none" viewBox="0 0 20 20" id="20x20--eye" xmlns="http://www.w3.org/2000/svg"><path fill="currentColor" fill-rule="evenodd" d="M3.415 10.242c-.067-.086-.13-.167-.186-.242a16.806 16.806 0 011.803-2.025C6.429 6.648 8.187 5.5 10 5.5c1.813 0 3.57 1.148 4.968 2.475A16.816 16.816 0 0116.771 10a16.9 16.9 0 01-1.803 2.025C13.57 13.352 11.813 14.5 10 14.5c-1.813 0-3.57-1.148-4.968-2.475a16.799 16.799 0 01-1.617-1.783zm15.423-.788L18 10l.838.546-.002.003-.003.004-.01.016-.037.054a17.123 17.123 0 01-.628.854 18.805 18.805 0 01-1.812 1.998C14.848 14.898 12.606 16.5 10 16.5s-4.848-1.602-6.346-3.025a18.806 18.806 0 01-2.44-2.852 6.01 6.01 0 01-.037-.054l-.01-.016-.003-.004-.001-.002c0-.001-.001-.001.837-.547l-.838-.546.002-.003.003-.004.01-.016a6.84 6.84 0 01.17-.245 18.804 18.804 0 012.308-2.66C5.151 5.1 7.394 3.499 10 3.499s4.848 1.602 6.346 3.025a18.803 18.803 0 012.44 2.852l.037.054.01.016.003.004.001.002zM18 10l.838-.546.355.546-.355.546L18 10zM1.162 9.454L2 10l-.838.546L.807 10l.355-.546zM9 10a1 1 0 112 0 1 1 0 01-2 0zm1-3a3 3 0 100 6 3 3 0 000-6z"/></symbol><symbol fill="none" viewBox="0 0 20 20" id="20x20--eye-closed" xmlns="http://www.w3.org/2000/svg"><path fill="currentColor" fill-rule="evenodd" d="M3.415 10.242c-.067-.086-.13-.167-.186-.242a16.806 16.806 0 011.803-2.025C6.429 6.648 8.187 5.5 10 5.5c1.813 0 3.57 1.148 4.968 2.475A16.816 16.816 0 0116.771 10a16.9 16.9 0 01-1.803 2.025C13.57 13.352 11.813 14.5 10 14.5c-1.813 0-3.57-1.148-4.968-2.475a16.799 16.799 0 01-1.617-1.783zm15.423-.788L18 10l.838.546-.002.003-.003.004-.01.016-.037.054a17.123 17.123 0 01-.628.854 19.25 19.25 0 01-1.094 1.275L18.3 14.4a1 1 0 01-1.6 1.2l-1.097-1.462c-1.23 1.027-2.81 2.007-4.603 2.284V18a1 1 0 11-2 0v-1.578c-1.793-.277-3.374-1.257-4.603-2.284L3.3 15.6a1 1 0 11-1.6-1.2l1.236-1.648a19.262 19.262 0 01-1.59-1.938 11.109 11.109 0 01-.169-.245l-.01-.016-.003-.004-.001-.002c0-.001-.001-.001.837-.547l-.838-.546.002-.003.003-.004.01-.016a6.84 6.84 0 01.17-.245 18.804 18.804 0 012.308-2.66C5.151 5.1 7.394 3.499 10 3.499s4.848 1.602 6.346 3.025a18.803 18.803 0 012.44 2.852l.037.054.01.016.003.004.001.002zM18 10l.838-.546.355.546-.355.546L18 10zM1.162 9.454L2 10l-.838.546L.807 10l.355-.546z"/></symbol><symbol fill="none" viewBox="0 0 20 20" id="20x20--face-id" xmlns="http://www.w3.org/2000/svg"><path fill="currentColor" fill-rule="evenodd" d="M2 1a1 1 0 00-.748.336l-.245.782v.008l.004.026.012.102.043.39c.037.336.087.814.14 1.38.11 1.135.233 2.616.295 4.02a1 1 0 001.998-.088 84.586 84.586 0 00-.301-4.122c-.03-.306-.057-.587-.083-.834H8a1 1 0 000-2H2zm10.5 0a1 1 0 100 2h4.4l-.073.845c-.098 1.15-.211 2.664-.275 4.11a1 1 0 101.998.09c.062-1.41.174-2.895.27-4.032a132.912 132.912 0 01.161-1.774l.01-.103.003-.026v-.008A1 1 0 0018 1h-5.5zM3.499 12.044a1 1 0 10-1.998-.088 82.599 82.599 0 01-.294 4.02 105.52 105.52 0 01-.184 1.77l-.012.102-.003.026v.006l-.001.002A1 1 0 002 19h6a1 1 0 100-2H3.115a84.905 84.905 0 00.384-4.956zm15.05-.088a1 1 0 10-1.997.088A107.505 107.505 0 0016.9 17h-4.4a1 1 0 100 2H18a1 1 0 00.995-1.102v-.002l-.001-.006-.003-.026-.01-.103-.038-.391a133 133 0 01-.124-1.383 105.732 105.732 0 01-.27-4.031zM7.01 8a1 1 0 000-2H7a1 1 0 100 2h.01zm6 0a1 1 0 100-2H13a1 1 0 100 2h.01zm.628 3.23a1 1 0 01.132 1.408l-.725-.6.725.6v.001l-.002.001-.002.003-.007.008-.018.021c-.015.017-.034.04-.059.066a6.156 6.156 0 01-.946.828c-.622.44-1.573.934-2.736.934-1.163 0-2.114-.493-2.736-.934a6.152 6.152 0 01-.946-.828 3.372 3.372 0 01-.059-.066l-.018-.021-.007-.008-.002-.003H6.23v-.002l.695-.577-.696.577a1 1 0 011.537-1.28l4.562-.1-4.562.1.003.004.026.029a4.149 4.149 0 00.623.543c.438.31.987.566 1.581.566.595 0 1.143-.257 1.582-.566a4.154 4.154 0 00.648-.572l.003-.004a1.01 1.01 0 01.096-.1l1.309-.028zm0 0l-1.31.028a1 1 0 011.31-.028z"/></symbol><symbol fill="none" viewBox="0 0 20 20" id="20x20--face-id-sad" xmlns="http://www.w3.org/2000/svg"><path fill="currentColor" fill-rule="evenodd" d="M2 1a1 1 0 00-.748.336l-.245.782v.008l.004.026.012.102.043.39c.037.336.087.814.14 1.38.11 1.135.233 2.616.295 4.02a1 1 0 001.998-.088 84.586 84.586 0 00-.301-4.122c-.03-.306-.057-.587-.083-.834H8a1 1 0 000-2H2zm10.5 0a1 1 0 100 2h4.4l-.073.845c-.098 1.15-.211 2.664-.275 4.11a1 1 0 101.998.09c.062-1.41.174-2.895.27-4.032a132.912 132.912 0 01.161-1.774l.01-.103.003-.026v-.008A1 1 0 0018 1h-5.5zM3.499 12.044a1 1 0 10-1.998-.088 82.599 82.599 0 01-.294 4.02 105.52 105.52 0 01-.184 1.77l-.012.102-.003.026v.006l-.001.002A1 1 0 002 19h6a1 1 0 100-2H3.115a84.905 84.905 0 00.384-4.956zm15.05-.088a1 1 0 10-1.997.088A107.505 107.505 0 0016.9 17h-4.4a1 1 0 100 2H18a1 1 0 00.995-1.102v-.002l-.001-.006-.003-.026-.01-.103-.038-.391a133 133 0 01-.124-1.383 105.732 105.732 0 01-.27-4.031zM7.01 8a1 1 0 000-2H7a1 1 0 100 2h.01zm6 0a1 1 0 100-2H13a1 1 0 100 2h.01zm-6.648 6.27a1 1 0 01-.132-1.408l.725.6-.725-.6v-.001l.002-.001.002-.003.007-.008.018-.021c.015-.017.034-.04.059-.066a6.152 6.152 0 01.946-.828C7.886 11.494 8.837 11 10 11c1.163 0 2.114.493 2.736.934a6.156 6.156 0 01.946.828l.059.066.018.021.007.008.002.003h.001v.002l-.695.577.696-.577a1 1 0 01-1.537 1.28l-4.562.1 4.562-.1-.003-.004a3.236 3.236 0 00-.15-.157 4.146 4.146 0 00-.498-.415C11.143 13.256 10.594 13 10 13c-.594 0-1.143.257-1.582.566a4.148 4.148 0 00-.648.572l-.003.004a1.01 1.01 0 01-.096.1l-1.309.028zm0 0l1.31-.028a1 1 0 01-1.31.028z"/></symbol><symbol fill="none" viewBox="0 0 20 20" id="20x20--file" xmlns="http://www.w3.org/2000/svg"><path fill="currentColor" fill-rule="evenodd" d="M4 1a2 2 0 00-2 2v14a2 2 0 002 2h12a2 2 0 002-2V7.414A2 2 0 0017.414 6L13 1.586A2 2 0 0011.586 1H4zm6.5 2H4v14h12V9.5h-3.5a2 2 0 01-2-2V3zM16 7.5h-3.5V3.914l3.5 3.5V7.5z"/></symbol><symbol fill="none" viewBox="0 0 20 20" id="20x20--file-check" xmlns="http://www.w3.org/2000/svg"><path fill="currentColor" fill-rule="evenodd" d="M4 1a2 2 0 00-2 2v14a2 2 0 002 2h12a2 2 0 002-2V7.414A2 2 0 0017.414 6L13 1.586A2 2 0 0011.586 1H4zm0 2h7.586L16 7.414V17H4V3zm10.097 6.717a1 1 0 10-1.394-1.434l-3.521 3.424-1.609-1.126a1 1 0 00-1.146 1.638l2.285 1.6a1 1 0 001.27-.102l4.115-4z"/></symbol><symbol fill="none" viewBox="0 0 20 20" id="20x20--file-min" xmlns="http://www.w3.org/2000/svg"><path fill="currentColor" fill-rule="evenodd" d="M4 1a2 2 0 00-2 2v14a2 2 0 002 2h12a2 2 0 002-2V7.414A2 2 0 0017.414 6L13 1.586A2 2 0 0011.586 1H4zm0 2h7.586L16 7.414V17H4V3zm8.5 7.5h-5a1 1 0 100 2h5a1 1 0 100-2z"/></symbol><symbol fill="none" viewBox="0 0 20 20" id="20x20--file-plus" xmlns="http://www.w3.org/2000/svg"><path fill="currentColor" fill-rule="evenodd" d="M2 3a2 2 0 012-2h7.586A2 2 0 0113 1.586L17.414 6A2 2 0 0118 7.414V17a2 2 0 01-2 2H4a2 2 0 01-2-2V3zm9.586 0H4v14h12V7.414L11.586 3zM9 10.5V9a1 1 0 112 0v1.5h1.5a1 1 0 110 2H11V14a1 1 0 11-2 0v-1.5H7.5a1 1 0 110-2H9z"/></symbol><symbol fill="none" viewBox="0 0 20 20" id="20x20--folder" xmlns="http://www.w3.org/2000/svg"><path stroke="currentColor" stroke-linecap="round" stroke-linejoin="round" stroke-width="2" d="M8.532 2H3a1 1 0 00-1 1v14a1 1 0 001 1h14a1 1 0 001-1V6a1 1 0 00-1-1h-5.032a1 1 0 01-.768-.36L9.3 2.36A1 1 0 008.532 2z"/></symbol><symbol fill="none" viewBox="0 0 20 20" id="20x20--folder-min" xmlns="http://www.w3.org/2000/svg"><path fill="currentColor" fill-rule="evenodd" d="M3 1a2 2 0 00-2 2v14a2 2 0 002 2h14a2 2 0 002-2V6a2 2 0 00-2-2h-5.032l-1.9-2.28A2 2 0 008.532 1H3zm0 2h5.532l1.9 2.28a2 2 0 001.536.72H17v11H3V3zm9.5 7.5h-5a1 1 0 100 2h5a1 1 0 100-2z"/></symbol><symbol fill="none" viewBox="0 0 20 20" id="20x20--folder-plus" xmlns="http://www.w3.org/2000/svg"><path fill="currentColor" fill-rule="evenodd" d="M1 3a2 2 0 012-2h5.532a2 2 0 011.536.72l1.9 2.28H17a2 2 0 012 2v11a2 2 0 01-2 2H3a2 2 0 01-2-2V3zm7.532 0H3v14h14V6h-5.032a2 2 0 01-1.536-.72L8.532 3zM9 10.5V9a1 1 0 112 0v1.5h1.5a1 1 0 110 2H11V14a1 1 0 11-2 0v-1.5H7.5a1 1 0 110-2H9z"/></symbol><symbol fill="none" viewBox="0 0 20 20" id="20x20--folders" xmlns="http://www.w3.org/2000/svg"><path fill="currentColor" fill-rule="evenodd" d="M8 2a2 2 0 00-2 2v2H4a2 2 0 00-2 2v9a2 2 0 002 2h9a2 2 0 002-2v-2h2a2 2 0 002-2V5.833a2 2 0 00-2-2h-3.726l-.928-1.113A2 2 0 0010.809 2H8zm5 13H8a2 2 0 01-2-2V8H4v9h9v-2zM8 4h2.81l.928 1.114a2 2 0 001.536.72H17V13H8V4z"/></symbol><symbol fill="none" viewBox="0 0 20 20" id="20x20--font-roman" xmlns="http://www.w3.org/2000/svg"><path stroke="currentColor" stroke-linecap="round" stroke-linejoin="round" stroke-width="2" d="M10 3v14m0-14H6m4 0h4m-4 14H6m4 0h4"/></symbol><symbol fill="none" viewBox="0 0 20 20" id="20x20--heart" xmlns="http://www.w3.org/2000/svg"><path fill="currentColor" fill-rule="evenodd" d="M5.964 4C4.37 4 2.901 5.472 2.901 7.515c0 1.67 1.181 3.508 2.819 5.2 1.57 1.62 3.365 2.91 4.27 3.517.898-.685 2.72-2.141 4.316-3.836.81-.86 1.539-1.756 2.06-2.624.529-.88.79-1.643.79-2.257C17.156 5.472 15.688 4 14.092 4s-3.064 1.472-3.064 3.515a1 1 0 11-2 0C9.028 5.472 7.56 4 5.964 4zm4.064.226C9.121 2.892 7.668 2 5.964 2 3.071 2 .901 4.571.901 7.515c0 2.506 1.69 4.843 3.382 6.59 1.736 1.793 3.696 3.188 4.636 3.817.693.464 1.59.427 2.245-.07.92-.7 2.869-2.25 4.598-4.085.864-.917 1.696-1.93 2.318-2.965.613-1.02 1.075-2.15 1.076-3.283v-.004c0-2.944-2.17-5.515-5.064-5.515-1.704 0-3.157.892-4.064 2.226z"/></symbol><symbol fill="none" viewBox="0 0 20 20" id="20x20--home" xmlns="http://www.w3.org/2000/svg"><path fill="currentColor" fill-rule="evenodd" d="M11.2 1.65a2 2 0 00-2.4 0L1.885 6.836a2.017 2.017 0 00-.783 1.907c.145.99.398 2.92.398 4.257 0 1.11-.175 2.638-.32 3.702C1.019 17.899 1.94 19 3.178 19h13.646c1.236 0 2.16-1.1 1.997-2.298-.145-1.064-.32-2.592-.32-3.702 0-1.337.253-3.268.398-4.257a2.017 2.017 0 00-.783-1.907L11.2 1.65zM3.085 8.436L10 3.25l6.915 5.186.001.001.002.003a.025.025 0 010 .013C16.776 9.435 16.5 11.5 16.5 13c0 1.258.193 2.903.338 3.97v.013a.035.035 0 01-.014.017H14v-5a4 4 0 00-8 0v5H3.176c-.001 0-.004-.002-.006-.005a.035.035 0 01-.007-.012.026.026 0 010-.012c.144-1.068.337-2.713.337-3.971 0-1.5-.275-3.565-.419-4.547l.001-.013.003-.004zM8 17h4v-5a2 2 0 10-4 0v5z"/></symbol><symbol fill="none" viewBox="0 0 20 20" id="20x20--image" xmlns="http://www.w3.org/2000/svg"><path fill="currentColor" fill-rule="evenodd" d="M3.098 3.118v.005c.131 1.644.346 4.674.346 6.877 0 .209-.001.425-.005.647l3.354-3.354.673-.673.705.638 2.97 2.687 2.652-2.652.646-.646.701.585 1.444 1.203c.063-1.915.216-4.033.318-5.312v-.006a.024.024 0 00-.006-.008.024.024 0 00-.008-.005h-.005c-1.644.138-4.677.367-6.883.367-2.206 0-5.238-.229-6.883-.367a.02.02 0 00-.004 0h-.001a.024.024 0 00-.008.005.024.024 0 00-.006.008v.001zm13.47 7.908l-2.007-1.673-1.935 1.936 4.14 3.746a96.002 96.002 0 01-.197-4.01zM1.106 16.71c.078-.975.182-2.407.255-3.851l-.067-.067.074-.074A57.9 57.9 0 001.444 10c0-2.114-.208-5.073-.34-6.718A2.02 2.02 0 013.286 1.11c1.645.139 4.602.36 6.714.36s5.069-.221 6.714-.36a2.02 2.02 0 012.182 2.17c-.131 1.646-.34 4.605-.34 6.719 0 2.11.208 5.063.34 6.711a2.02 2.02 0 01-2.194 2.17c-1.647-.147-4.596-.381-6.702-.381s-5.055.234-6.702.382a2.02 2.02 0 01-2.193-2.171zm6.43-7.331l-4.211 4.21c-.07 1.257-.159 2.445-.225 3.28v.005c0 .002.002.005.006.009a.026.026 0 00.008.005h.006c1.645-.145 4.675-.388 6.88-.388 1.758 0 4.039.154 5.726.29L7.534 9.38z"/></symbol><symbol fill="none" viewBox="0 0 20 20" id="20x20--inbox" xmlns="http://www.w3.org/2000/svg"><path fill="currentColor" fill-rule="evenodd" d="M18.871 4.333a2.023 2.023 0 00-2.206-2.203c-1.653.159-4.576.406-6.665.406-2.089 0-5.012-.248-6.665-.406a2.024 2.024 0 00-2.206 2.203c.148 1.563.371 4.244.371 6.167 0 1.978-.236 4.757-.383 6.296A2.01 2.01 0 003.115 19h13.77a2.01 2.01 0 001.998-2.204c-.147-1.54-.383-4.318-.383-6.296 0-1.923.223-4.604.371-6.167zm-2.015-.212h.007l.01.007a.028.028 0 01.007.01v.006c-.136 1.437-.343 3.893-.376 5.856h-1.441a3 3 0 00-2.487 1.322l-.81 1.2a1 1 0 01-.829.441H9.063a1 1 0 01-.829-.44l-.81-1.201A3 3 0 004.937 10H3.496c-.033-1.963-.24-4.419-.376-5.856v-.007l.007-.009a.03.03 0 01.01-.007h.007c1.652.158 4.66.415 6.856.415 2.195 0 5.204-.257 6.856-.415zM3.466 12a95.877 95.877 0 01-.359 4.989v.003a.017.017 0 00.007.008h13.773l.002-.003.003-.003v-.007A95.874 95.874 0 0116.533 12h-1.47a1 1 0 00-.829.44l-.81 1.201a3 3 0 01-2.487 1.322H9.063a3 3 0 01-2.487-1.322l-.81-1.2A1 1 0 004.937 12h-1.47z"/></symbol><symbol fill="none" viewBox="0 0 20 20" id="20x20--inbox-in" xmlns="http://www.w3.org/2000/svg"><path fill="currentColor" fill-rule="evenodd" d="M11 2a1 1 0 10-2 0v4.773l-2.836-2.52a1 1 0 10-1.328 1.494l4.5 4a1 1 0 001.328 0l4.5-4a1 1 0 00-1.328-1.494L11 6.773V2zM3.447 12a125.965 125.965 0 01-.35 4.99v.004a.013.013 0 00.005.006h13.796l.002-.002.003-.004v-.003a125.829 125.829 0 01-.35-4.991h-1.49a1 1 0 00-.829.44l-.81 1.201a3 3 0 01-2.487 1.322H9.063a3 3 0 01-2.487-1.322l-.81-1.2A1 1 0 004.937 12h-1.49zM18.5 10h-3.437a3 3 0 00-2.487 1.322l-.81 1.2a1 1 0 01-.829.441H9.063a1 1 0 01-.829-.44l-.81-1.201A3 3 0 004.937 10H1.5c0 2.032-.248 5.155-.395 6.815A2.008 2.008 0 003.103 19h13.794a2.008 2.008 0 001.998-2.185c-.147-1.66-.395-4.783-.395-6.815z"/></symbol><symbol fill="none" viewBox="0 0 20 20" id="20x20--inbox-out" xmlns="http://www.w3.org/2000/svg"><path fill="currentColor" fill-rule="evenodd" d="M9 9a1 1 0 002 0V4.227l2.836 2.52a1 1 0 001.328-1.494l-4.5-4a1 1 0 00-1.328 0l-4.5 4a1 1 0 001.328 1.494L9 4.227V9zm-5.553 3a125.984 125.984 0 01-.35 4.994l.003.004.002.002h13.796l.002-.002.003-.004v-.003a125.829 125.829 0 01-.35-4.991h-1.49a1 1 0 00-.829.44l-.81 1.201a3 3 0 01-2.487 1.322H9.063a3 3 0 01-2.487-1.322l-.81-1.2A1 1 0 004.937 12h-1.49zM18.5 10h-3.437a3 3 0 00-2.487 1.322l-.81 1.2a1 1 0 01-.829.441H9.063a1 1 0 01-.829-.44l-.81-1.201A3 3 0 004.937 10H1.5c0 2.032-.248 5.155-.395 6.815A2.008 2.008 0 003.103 19h13.793a2.008 2.008 0 001.999-2.185c-.147-1.66-.395-4.783-.395-6.815z"/></symbol><symbol fill="none" viewBox="0 0 20 20" id="20x20--info" xmlns="http://www.w3.org/2000/svg"><path fill="currentColor" fill-rule="evenodd" d="M10 3a7 7 0 100 14 7 7 0 000-14zm-9 7a9 9 0 1118 0 9 9 0 01-18 0zm8-4a1 1 0 011-1h.01a1 1 0 110 2H10a1 1 0 01-1-1zm.01 8a1 1 0 102 0V9a1 1 0 10-2 0v5z"/></symbol><symbol fill="none" viewBox="0 0 20 20" id="20x20--italic" xmlns="http://www.w3.org/2000/svg"><path stroke="currentColor" stroke-linecap="round" stroke-linejoin="round" stroke-width="2" d="M12 3L8 17m4-14H8m4 0h4M8 17H4m4 0h4"/></symbol><symbol fill="none" viewBox="0 0 20 20" id="20x20--list" xmlns="http://www.w3.org/2000/svg"><path fill="currentColor" fill-rule="evenodd" d="M19 4a1 1 0 01-1 1H7a1 1 0 010-2h11a1 1 0 011 1zM4 4a1 1 0 01-1 1H2a1 1 0 010-2h1a1 1 0 011 1zm15 6a1 1 0 01-1 1H7a1 1 0 110-2h11a1 1 0 011 1zM4 10a1 1 0 01-1 1H2a1 1 0 110-2h1a1 1 0 011 1zm14 7a1 1 0 100-2H7a1 1 0 100 2h11zM3 17a1 1 0 100-2H2a1 1 0 100 2h1z"/></symbol><symbol fill="none" viewBox="0 0 20 20" id="20x20--lock-closed" xmlns="http://www.w3.org/2000/svg"><path fill="currentColor" fill-rule="evenodd" d="M7 4a1 1 0 011-1h4a1 1 0 011 1v2H7V4zM5 6V4a3 3 0 013-3h4a3 3 0 013 3v2h.861a2.017 2.017 0 012 2.24c-.13 1.168-.299 2.96-.299 4.26 0 1.3.17 3.092.298 4.26A2.017 2.017 0 0115.861 19H4.139a2.017 2.017 0 01-2-2.24c.13-1.168.299-2.96.299-4.26 0-1.3-.17-3.092-.298-4.26A2.017 2.017 0 014.139 6H5zm0 2h-.863l-.004.004a.025.025 0 00-.005.008v.009c.128 1.17.31 3.06.31 4.479 0 1.42-.182 3.31-.31 4.48v.008c0 .002.002.005.005.008a.018.018 0 00.004.004h11.726l.004-.004a.027.027 0 00.004-.006v-.002l.002-.003v-.006c-.13-1.17-.31-3.06-.31-4.479 0-1.42.18-3.31.31-4.48v-.007h-.001a.026.026 0 00-.005-.01l-11.74.012L15.864 8H5z"/></symbol><symbol fill="none" viewBox="0 0 20 20" id="20x20--lock-open" xmlns="http://www.w3.org/2000/svg"><path fill="currentColor" fill-rule="evenodd" d="M7 4a1 1 0 011-1h4a1 1 0 011 1v.5h2V4a3 3 0 00-3-3H8a3 3 0 00-3 3v2h-.861a2.017 2.017 0 00-2 2.24c.13 1.168.299 2.96.299 4.26 0 1.3-.17 3.092-.298 4.26A2.017 2.017 0 004.139 19h11.722a2.017 2.017 0 002-2.24c-.13-1.168-.299-2.96-.299-4.26 0-1.3.17-3.092.298-4.26A2.017 2.017 0 0015.861 6H7V4zM4.128 8.02v-.005l11.739-.011a.026.026 0 01.005.008v.009c-.128 1.17-.31 3.06-.31 4.479 0 1.42.182 3.31.31 4.48v.008l-.001.002a.027.027 0 01-.008.01H4.138l-.005-.004a.026.026 0 01-.005-.008v-.009c.128-1.17.31-3.06.31-4.479 0-1.42-.182-3.31-.31-4.48zm0-.005L15.863 8H4.137l-.004.004a.025.025 0 00-.005.008v.003z"/></symbol><symbol fill="none" viewBox="0 0 20 20" id="20x20--mail" xmlns="http://www.w3.org/2000/svg"><path fill="currentColor" fill-rule="evenodd" d="M3 4.094v-.002l.002-.002a.012.012 0 01.004-.003h.003c1.616.128 4.738.35 6.991.35 2.254 0 5.375-.222 6.991-.35h.003l.004.003.002.001v2.291l-7 3.5-7-3.5V4.094zm0 4.524v7.29l.002.002a.01.01 0 00.004.002h.003c1.616-.128 4.738-.35 6.991-.35 2.254 0 5.375.223 6.991.35h.003l.004-.002.002-.002v-7.29l-6.106 3.053a2 2 0 01-1.788 0L3 8.618zm.167-6.524a2.008 2.008 0 00-2.167 2v11.812a2.008 2.008 0 002.167 2c1.619-.128 4.668-.343 6.833-.343s5.214.215 6.833.343a2.008 2.008 0 002.167-2V4.094a2.008 2.008 0 00-2.167-2c-1.619.128-4.668.344-6.833.344s-5.214-.216-6.833-.344z"/></symbol><symbol fill="none" viewBox="0 0 20 20" id="20x20--mail-open" xmlns="http://www.w3.org/2000/svg"><path fill="currentColor" fill-rule="evenodd" d="M10.597.639a2 2 0 00-1.194 0l-7 2.187A2 2 0 001 4.736v11.17a2.008 2.008 0 002.167 2c1.619-.128 4.668-.343 6.833-.343s5.214.215 6.833.343a2.008 2.008 0 002.167-2V4.736a2 2 0 00-1.404-1.91l-7-2.187zM3 4.735l7-2.187 7 2.187v1.647l-7 3.5-7-3.5V4.735zm0 3.883v7.29l.002.002a.01.01 0 00.004.002h.003c1.616-.128 4.738-.35 6.991-.35 2.254 0 5.375.223 6.991.35h.003l.004-.002.002-.002v-7.29l-6.106 3.053a2 2 0 01-1.788 0L3 8.618z"/></symbol><symbol fill="none" viewBox="0 0 20 20" id="20x20--maximize" xmlns="http://www.w3.org/2000/svg"><path fill="currentColor" fill-rule="evenodd" d="M19 2a1 1 0 00-1-1h-6a1 1 0 100 2h3.586l-3.793 3.793a1 1 0 001.414 1.414L17 4.414V8a1 1 0 102 0V2zM1 18a1 1 0 001 1h6a1 1 0 100-2H4.414l3.793-3.793a1 1 0 10-1.414-1.414L3 15.586V12a1 1 0 10-2 0v6z"/></symbol><symbol fill="none" viewBox="0 0 20 20" id="20x20--menu" xmlns="http://www.w3.org/2000/svg"><path fill="currentColor" fill-rule="evenodd" d="M19 4a1 1 0 01-1 1H2a1 1 0 010-2h16a1 1 0 011 1zm0 6a1 1 0 01-1 1H2a1 1 0 110-2h16a1 1 0 011 1zm-1 7a1 1 0 100-2H2a1 1 0 100 2h16z"/></symbol><symbol fill="none" viewBox="0 0 20 20" id="20x20--minimize" xmlns="http://www.w3.org/2000/svg"><path fill="currentColor" fill-rule="evenodd" d="M11 8a1 1 0 001 1h6a1 1 0 100-2h-3.586l3.793-3.793a1 1 0 00-1.414-1.414L13 5.586V2a1 1 0 10-2 0v6zm-2 4a1 1 0 00-1-1H2a1 1 0 100 2h3.586l-3.793 3.793a1 1 0 101.414 1.414L7 14.414V18a1 1 0 102 0v-6z"/></symbol><symbol fill="none" viewBox="0 0 20 20" id="20x20--minus" xmlns="http://www.w3.org/2000/svg"><path fill="currentColor" fill-rule="evenodd" d="M18 10a1 1 0 01-1 1H3a1 1 0 110-2h14a1 1 0 011 1z"/></symbol><symbol fill="none" viewBox="0 0 20 20" id="20x20--more-horizontal" xmlns="http://www.w3.org/2000/svg"><path fill="currentColor" fill-rule="evenodd" d="M3 8a2 2 0 100 4 2 2 0 000-4zm5 2a2 2 0 114 0 2 2 0 01-4 0zm7 0a2 2 0 114 0 2 2 0 01-4 0z"/></symbol><symbol fill="none" viewBox="0 0 20 20" id="20x20--more-vertical" xmlns="http://www.w3.org/2000/svg"><path fill="currentColor" fill-rule="evenodd" d="M12 3a2 2 0 10-4 0 2 2 0 004 0zm-2 5a2 2 0 110 4 2 2 0 010-4zm0 7a2 2 0 110 4 2 2 0 010-4z"/></symbol><symbol fill="none" viewBox="0 0 20 20" id="20x20--natatoko" xmlns="http://www.w3.org/2000/svg"><path stroke="currentColor" stroke-linecap="round" stroke-linejoin="round" stroke-width="2" d="M16 4.02a1 1 0 00-1.138-1.01l-3.162.44a1 1 0 00-.861.969l-.053 2.396-1.402-2.411a1 1 0 00-1.003-.488l-3.266.458a1 1 0 00-.861.968L4 16.978a1 1 0 001.14 1.012l3.178-.445a1 1 0 00.861-.973l.047-2.663 1.487 2.657a1 1 0 001.011.502l3.178-.444a1 1 0 00.862-.97L16 4.02z"/></symbol><symbol fill="none" viewBox="0 0 20 20" id="20x20--overline" xmlns="http://www.w3.org/2000/svg"><path fill="currentColor" fill-rule="evenodd" d="M16.99 1.865a1 1 0 01-.854 1.126L16 2l-.135-.99a1 1 0 011.126.855zm-1.126-.856L16 2l.135.99-.003.001-.008.001-.033.005-.123.016-.453.058c-.385.047-.922.11-1.533.174-1.213.125-2.756.255-3.982.255-1.226 0-2.768-.13-3.982-.255a79.145 79.145 0 01-1.986-.232l-.123-.016-.033-.005h-.008l-.002-.001h-.001l.134-.98-.134.98a1 1 0 01.27-1.982h.002l.008.001.03.004.116.016.44.056c.374.046.898.108 1.493.17C7.425 1.38 8.883 1.5 10 1.5s2.575-.12 3.776-.245a77.113 77.113 0 001.933-.225l.117-.016.03-.004h.008zM5 5.5a1 1 0 10-2 0v6a7 7 0 1014 0v-6a1 1 0 10-2 0v6a5 5 0 01-10 0v-6z"/></symbol><symbol fill="none" viewBox="0 0 20 20" id="20x20--percentage" xmlns="http://www.w3.org/2000/svg"><path fill="currentColor" fill-rule="evenodd" d="M2.945 10.025a7.08 7.08 0 1114.16 0 7.08 7.08 0 01-14.16 0zm7.08-9.08a9.08 9.08 0 100 18.16 9.08 9.08 0 000-18.16zM7.141 5.727A1 1 0 105.727 7.14l7.182 7.182a1 1 0 001.414-1.414L7.141 5.727zm7.373 1.605a1.796 1.796 0 11-3.591 0 1.796 1.796 0 013.59 0zm-7.182 7.182a1.796 1.796 0 100-3.591 1.796 1.796 0 000 3.59z"/></symbol><symbol fill="none" viewBox="0 0 20 20" id="20x20--plus" xmlns="http://www.w3.org/2000/svg"><path fill="currentColor" fill-rule="evenodd" d="M9 17a1 1 0 102 0v-6h6a1 1 0 100-2h-6V3a1 1 0 10-2 0v6H3a1 1 0 000 2h6v6z"/></symbol><symbol fill="none" viewBox="0 0 20 20" id="20x20--plus-circle" xmlns="http://www.w3.org/2000/svg"><path fill="currentColor" fill-rule="evenodd" d="M10 3a7 7 0 100 14 7 7 0 000-14zm-9 7a9 9 0 1118 0 9 9 0 01-18 0zm14 .069a1 1 0 01-1 1h-2.931V14a1 1 0 11-2 0v-2.931H6a1 1 0 110-2h3.069V6a1 1 0 112 0v3.069H14a1 1 0 011 1z"/></symbol><symbol fill="none" viewBox="0 0 20 20" id="20x20--printer" xmlns="http://www.w3.org/2000/svg"><path fill="currentColor" fill-rule="evenodd" d="M4.312 3.468C4.075 2.249 4.975 1 6.31 1h7.38c1.335 0 2.235 1.25 1.998 2.468-.106.545-.188 1.114-.188 1.532 0 .418.082.987.188 1.532.03.157.042.313.037.468H17a2 2 0 012 2v5a2 2 0 01-2 2h-1.406c.039.246.086.497.135.736a19.767 19.767 0 00.217.93l.014.055.004.012v.003A1 1 0 0115 19H5a1 1 0 01-.965-1.264l.001-.003.004-.012.014-.055.053-.21c.045-.18.104-.433.164-.72.05-.239.096-.49.135-.736H3a2 2 0 01-2-2V9a2 2 0 012-2h1.275a2.06 2.06 0 01.037-.468C4.418 5.987 4.5 5.418 4.5 5c0-.418-.082-.987-.188-1.532zM4.406 14c-.028-.176-.06-.355-.094-.532C4.075 12.249 4.975 11 6.31 11h7.38c1.335 0 2.235 1.25 1.998 2.468-.034.177-.066.356-.094.532H17V9H3v5h1.406zm9.286-7H6.308a.051.051 0 01-.015-.014.088.088 0 01-.018-.071C6.387 6.34 6.5 5.617 6.5 5s-.113-1.34-.225-1.915a.088.088 0 01.018-.071A.051.051 0 016.308 3h7.384c.001 0 .008.004.015.014a.088.088 0 01.018.071C13.613 3.66 13.5 4.383 13.5 5s.113 1.34.225 1.915a.088.088 0 01-.018.071.051.051 0 01-.015.014zm.05 10H6.258c.12-.596.242-1.358.242-2 0-.617-.113-1.34-.225-1.915a.088.088 0 01.018-.071.05.05 0 01.015-.014h7.384a.05.05 0 01.015.014.088.088 0 01.018.071c-.112.575-.225 1.298-.225 1.915 0 .642.123 1.404.242 2z"/></symbol><symbol fill="none" viewBox="0 0 20 20" id="20x20--question-circle" xmlns="http://www.w3.org/2000/svg"><path fill="currentColor" fill-rule="evenodd" d="M10 3a7 7 0 100 14 7 7 0 000-14zm-9 7a9 9 0 1118 0 9 9 0 01-18 0zm8.423-3a.923.923 0 00-.923.923v.385a1 1 0 11-2 0v-.385A2.923 2.923 0 019.423 5H10c1.941 0 3.5 1.591 3.5 3.516 0 .927-.48 1.8-1.276 2.29l-1.7 1.046a1 1 0 01-1.048-1.704l1.7-1.046a.691.691 0 00.324-.586C11.5 7.679 10.82 7 10 7h-.577zm.587 8a1 1 0 100-2H10a1 1 0 100 2h.01z"/></symbol><symbol fill="none" viewBox="0 0 20 20" id="20x20--rectangle" xmlns="http://www.w3.org/2000/svg"><path stroke="currentColor" stroke-width="2" d="M2.444 10c0 2.209-.222 5.293-.352 6.91A1.006 1.006 0 003.093 18h13.814c.588 0 1.048-.503 1-1.09-.13-1.617-.351-4.701-.351-6.91 0-2.158.212-5.153.343-6.798a1.02 1.02 0 00-1.1-1.095c-1.646.139-4.64.364-6.799.364-2.159 0-5.154-.225-6.799-.364a1.02 1.02 0 00-1.1 1.095c.131 1.645.343 4.64.343 6.798z"/></symbol><symbol fill="none" viewBox="0 0 20 20" id="20x20--refresh" xmlns="http://www.w3.org/2000/svg"><path fill="currentColor" fill-rule="evenodd" d="M7.997 16.99a1 1 0 10.292-1.98C5.89 14.657 4 12.508 4 9.86c0-2.294 1.416-4.21 3.358-4.914L6.367 7.25a1 1 0 101.837.79L9.92 4.053a1 1 0 00-.256-1.143l-3-2.658a1 1 0 10-1.326 1.496L6.78 3.027C3.988 3.986 2 6.702 2 9.86c0 3.603 2.581 6.624 5.997 7.13zm4.006-13.98a1 1 0 00-.292 1.98C14.11 5.343 16 7.492 16 10.14c0 2.294-1.416 4.21-3.358 4.913l.991-2.303a1 1 0 00-1.837-.79l-1.715 3.987a1 1 0 00.256 1.143l3 2.659a1 1 0 001.326-1.497l-1.443-1.279c2.792-.958 4.78-3.675 4.78-6.833 0-3.603-2.581-6.624-5.997-7.13z"/></symbol><symbol fill="none" viewBox="0 0 20 20" id="20x20--refresh-alt" xmlns="http://www.w3.org/2000/svg"><path fill="currentColor" fill-rule="evenodd" d="M2.945 11.76a1 1 0 101.86-.736c-.892-2.256.024-4.967 2.316-6.29 1.987-1.147 4.354-.879 5.934.45l-2.49.295a1 1 0 10.234 1.986l4.31-.509a1 1 0 00.863-.793l.802-3.927a1 1 0 00-1.96-.4l-.385 1.889c-2.226-1.939-5.573-2.302-8.308-.723C3 4.803 1.675 8.549 2.945 11.76zm14.11-3.52a1 1 0 00-1.86.736c.892 2.256-.024 4.967-2.316 6.29-1.987 1.147-4.355.879-5.934-.45l2.49-.295a1 1 0 00-.234-1.986l-4.31.509a1 1 0 00-.863.793l-.802 3.927a1 1 0 001.96.4l.385-1.889c2.226 1.939 5.573 2.302 8.308.723 3.12-1.801 4.446-5.547 3.176-8.758z"/></symbol><symbol fill="none" viewBox="0 0 20 20" id="20x20--search" xmlns="http://www.w3.org/2000/svg"><path fill="currentColor" fill-rule="evenodd" d="M4 9a5 5 0 1110 0A5 5 0 014 9zm5-7a7 7 0 104.2 12.6.999.999 0 00.093.107l3 3a1 1 0 001.414-1.414l-3-3a.999.999 0 00-.107-.093A7 7 0 009 2z"/></symbol><symbol fill="none" viewBox="0 0 20 20" id="20x20--settings" xmlns="http://www.w3.org/2000/svg"><path fill="currentColor" fill-rule="evenodd" d="M11.2 1.646a2.03 2.03 0 00-2.4 0c-.736.54-1.942 1.398-2.796 1.886-.794.453-1.894.935-2.635 1.242a2.046 2.046 0 00-1.244 2.161c.115.849.264 2.142.264 3.065 0 .906-.144 2.171-.258 3.021a2.05 2.05 0 001.34 2.199c.86.307 2.132.797 2.922 1.248.762.436 1.699 1.193 2.327 1.733a2.051 2.051 0 002.544.106c.743-.543 1.904-1.365 2.732-1.839.794-.453 1.894-.935 2.635-1.242a2.046 2.046 0 001.244-2.161c-.114-.848-.264-2.142-.264-3.065s.15-2.216.264-3.065a2.046 2.046 0 00-1.244-2.161c-.741-.307-1.841-.789-2.635-1.242-.854-.488-2.06-1.347-2.796-1.886zM9.983 3.259A.028.028 0 0110 3.253c.007 0 .013.002.017.006.732.536 2.022 1.458 2.987 2.01.911.52 2.112 1.042 2.861 1.352.008.004.016.01.022.02a.04.04 0 01.006.027c-.115.85-.282 2.262-.282 3.332 0 1.07.167 2.483.282 3.332a.04.04 0 01-.006.027.045.045 0 01-.022.02c-.75.31-1.95.832-2.861 1.353-.938.535-2.181 1.42-2.92 1.96a.036.036 0 01-.024.007.059.059 0 01-.036-.014c-.635-.546-1.697-1.415-2.639-1.953-.96-.55-2.387-1.09-3.24-1.396a.046.046 0 01-.025-.02.044.044 0 01-.007-.03c.114-.852.276-2.234.276-3.286 0-1.07-.167-2.483-.282-3.332a.04.04 0 01.006-.027.045.045 0 01.022-.02c.75-.31 1.95-.832 2.861-1.353.965-.551 2.255-1.473 2.987-2.01zM9 10a1 1 0 112 0 1 1 0 01-2 0zm1-3a3 3 0 100 6 3 3 0 000-6z"/></symbol><symbol fill="none" viewBox="0 0 20 20" id="20x20--shopping-bag" xmlns="http://www.w3.org/2000/svg"><path fill="currentColor" fill-rule="evenodd" d="M4.968 1a2 2 0 00-1.536.72l-2.425 3.4v.002l.001.008.005.035.015.133a90.845 90.845 0 01.226 2.167c.125 1.33.246 2.914.246 4.035 0 1.519-.221 3.872-.37 5.276A2.011 2.011 0 003.127 19h13.745c1.2 0 2.123-1.043 1.998-2.224-.149-1.404-.37-3.757-.37-5.276 0-1.12.12-2.705.246-4.035a106.122 106.122 0 01.226-2.167l.015-.133.005-.035v-.01a1 1 0 00-.285-.827L16 1.586A2 2 0 0014.586 1H4.968zm0 2h9.618l1 1H4.135l.833-1zm-1.85 3h13.764c-.039.367-.083.804-.128 1.278-.125 1.334-.254 3-.254 4.222 0 1.64.233 4.092.38 5.486v.008l-.003.003a.01.01 0 01-.003.003H3.126l-.003-.003a.016.016 0 01-.004-.005v-.006c.148-1.394.381-3.847.381-5.486 0-1.222-.13-2.888-.254-4.222-.045-.474-.09-.91-.128-1.278zM8 10a1 1 0 10-2 0 4 4 0 108 0 1 1 0 10-2 0 2 2 0 01-4 0z"/></symbol><symbol fill="none" viewBox="0 0 20 20" id="20x20--shopping-bag-check" xmlns="http://www.w3.org/2000/svg"><path fill="currentColor" fill-rule="evenodd" d="M4.968 1a2 2 0 00-1.536.72l-2.425 3.4v.002l.001.008.005.035.015.133.056.497c.047.423.108 1.01.17 1.67.125 1.33.246 2.914.246 4.035 0 1.519-.221 3.872-.37 5.276A2.011 2.011 0 003.128 19h13.744c1.2 0 2.123-1.043 1.998-2.224-.149-1.404-.37-3.757-.37-5.276 0-1.12.12-2.705.246-4.035a107.343 107.343 0 01.226-2.167l.015-.133.005-.035v-.01a1 1 0 00-.285-.827L16 1.586A2 2 0 0014.586 1H4.968zm0 2h9.618l1 1H4.136l.832-1zm-1.85 3h13.764c-.039.367-.083.804-.128 1.278-.125 1.334-.254 3-.254 4.222 0 1.64.233 4.092.38 5.486v.008l-.003.003a.013.013 0 01-.003.003H3.126l-.003-.003a.016.016 0 01-.004-.005v-.006c.148-1.394.381-3.847.381-5.486 0-1.222-.13-2.888-.254-4.222-.045-.474-.09-.91-.128-1.278zm10.98 3.717a1 1 0 10-1.395-1.434l-3.521 3.424-1.609-1.126a1 1 0 00-1.146 1.638l2.285 1.6a1 1 0 001.27-.102l4.115-4z"/></symbol><symbol fill="none" viewBox="0 0 20 20" id="20x20--shopping-bag-min" xmlns="http://www.w3.org/2000/svg"><path fill="currentColor" fill-rule="evenodd" d="M4.968 1a2 2 0 00-1.536.72l-2.425 3.4v.002l.001.008.005.035.015.133a90.845 90.845 0 01.226 2.167c.125 1.33.246 2.914.246 4.035 0 1.519-.221 3.872-.37 5.276A2.011 2.011 0 003.127 19h13.745c1.2 0 2.123-1.043 1.998-2.224-.149-1.404-.37-3.757-.37-5.276 0-1.12.12-2.705.246-4.035a106.122 106.122 0 01.226-2.167l.015-.133.005-.035v-.01a1 1 0 00-.285-.827L16 1.586A2 2 0 0014.586 1H4.968zm0 2h9.618l1 1H4.135l.833-1zm-1.85 3h13.764c-.039.367-.083.804-.128 1.278-.125 1.334-.254 3-.254 4.222 0 1.64.233 4.092.38 5.486v.008l-.003.003a.01.01 0 01-.003.003H3.126l-.003-.003a.016.016 0 01-.004-.005v-.006c.148-1.394.381-3.847.381-5.486 0-1.222-.13-2.888-.254-4.222-.045-.474-.09-.91-.128-1.278zM13.5 10.5h-7a1 1 0 100 2h7a1 1 0 100-2z"/></symbol><symbol fill="none" viewBox="0 0 20 20" id="20x20--shopping-bag-plus" xmlns="http://www.w3.org/2000/svg"><path fill="currentColor" fill-rule="evenodd" d="M4.968 1a2 2 0 00-1.536.72l-2.425 3.4v.002l.001.008.005.035.015.133a90.845 90.845 0 01.226 2.167c.125 1.33.246 2.914.246 4.035 0 1.519-.221 3.872-.37 5.276A2.011 2.011 0 003.127 19h13.745c1.2 0 2.123-1.043 1.998-2.224-.149-1.404-.37-3.757-.37-5.276 0-1.12.12-2.705.246-4.035a106.122 106.122 0 01.226-2.167l.015-.133.005-.035v-.01a1 1 0 00-.285-.827L16 1.586A2 2 0 0014.586 1H4.968zm0 2h9.618l1 1H4.135l.833-1zm-1.85 3h13.764c-.039.367-.083.804-.128 1.278-.125 1.334-.254 3-.254 4.222 0 1.64.233 4.092.38 5.486v.008l-.003.003a.01.01 0 01-.003.003H3.126l-.003-.003a.016.016 0 01-.004-.005v-.006c.148-1.394.381-3.847.381-5.486 0-1.222-.13-2.888-.254-4.222-.045-.474-.09-.91-.128-1.278zM9 15v-2.5H6.5a1 1 0 110-2H9V8a1 1 0 112 0v2.5h2.5a1 1 0 110 2H11V15a1 1 0 11-2 0z"/></symbol><symbol fill="none" viewBox="0 0 20 20" id="20x20--stats-chart" xmlns="http://www.w3.org/2000/svg"><path stroke="currentColor" stroke-linecap="round" stroke-width="2" d="M10 17V3M4 17v-7m12 7V7"/></symbol><symbol fill="none" viewBox="0 0 20 20" id="20x20--stats-chart-2" xmlns="http://www.w3.org/2000/svg"><path stroke="currentColor" stroke-linecap="round" stroke-width="2" d="M4 17V3m6.009 14V7M16 17v-7"/></symbol><symbol fill="none" viewBox="0 0 20 20" id="20x20--stop" xmlns="http://www.w3.org/2000/svg"><path fill="currentColor" fill-rule="evenodd" d="M5.781 4.414a7 7 0 019.62 10.039l-9.62-10.04zm-1.408 1.42a7 7 0 009.549 9.964L4.373 5.836zM10 1a9 9 0 100 18 9 9 0 000-18z"/></symbol><symbol fill="none" viewBox="0 0 20 20" id="20x20--strikethrough" xmlns="http://www.w3.org/2000/svg"><path fill="currentColor" fill-rule="evenodd" d="M5 3a1 1 0 10-2 0v6H2v1-1a1 1 0 000 2v-1 1h1a7 7 0 1014 0h.999L18 10v1a1 1 0 100-2v1-1h-1V3a1 1 0 10-2 0v6H5V3zm0 8a5 5 0 0010 0H5z"/></symbol><symbol fill="none" viewBox="0 0 20 20" id="20x20--trash" xmlns="http://www.w3.org/2000/svg"><path fill="currentColor" fill-rule="evenodd" d="M7 1a2 2 0 00-2 2v2H2a1 1 0 000 2h.884c.036.338.078.754.12 1.213.11 1.202.218 2.664.218 3.787 0 1.47-.183 3.508-.315 4.776a2.015 2.015 0 002 2.224h10.186a2.015 2.015 0 002-2.224c-.132-1.268-.315-3.306-.315-4.776 0-1.123.107-2.585.218-3.787.042-.459.084-.875.12-1.213H18a1 1 0 100-2h-3V3a2 2 0 00-2-2H7zm6 4V3H7v2h6zM4.996 8.03c-.035-.378-.07-.728-.101-1.03h10.21a81.66 81.66 0 00-.1 1.03c-.112 1.212-.227 2.75-.227 3.97 0 1.584.194 3.714.325 4.982v.007a.02.02 0 01-.005.008l-.003.003H4.905a.024.024 0 01-.008-.01v-.008c.131-1.268.325-3.398.325-4.982 0-1.22-.115-2.758-.226-3.97z"/></symbol><symbol fill="none" viewBox="0 0 20 20" id="20x20--trash-alt" xmlns="http://www.w3.org/2000/svg"><path fill="currentColor" fill-rule="evenodd" d="M7 1a2 2 0 00-2 2v2H2a1 1 0 000 2h.884c.036.338.078.754.12 1.213.11 1.202.218 2.664.218 3.787 0 1.47-.183 3.508-.315 4.776a2.015 2.015 0 002 2.224h10.186a2.015 2.015 0 002-2.224c-.132-1.268-.315-3.306-.315-4.776 0-1.123.107-2.585.218-3.787.042-.459.084-.875.12-1.213H18a1 1 0 100-2h-3V3a2 2 0 00-2-2H7zm6 4V3H7v2h6zM4.996 8.03c-.035-.378-.07-.728-.101-1.03h10.21a81.66 81.66 0 00-.1 1.03c-.112 1.212-.227 2.75-.227 3.97 0 1.584.194 3.714.325 4.982v.007a.02.02 0 01-.005.008l-.003.003H4.905a.024.024 0 01-.008-.01v-.008c.131-1.268.325-3.398.325-4.982 0-1.22-.115-2.758-.226-3.97zM8 8a1 1 0 011 1v6a1 1 0 11-2 0V9a1 1 0 011-1zm5 1a1 1 0 10-2 0v6a1 1 0 102 0V9z"/></symbol><symbol fill="none" viewBox="0 0 20 20" id="20x20--underline" xmlns="http://www.w3.org/2000/svg"><path fill="currentColor" fill-rule="evenodd" d="M5 2a1 1 0 00-2 0v6a7 7 0 1014 0V2a1 1 0 10-2 0v6A5 5 0 015 8V2zM3.01 17.636a1 1 0 01.855-1.127L4 17.5l.135.99a1 1 0 01-1.126-.854zM4 17.5l.135.99h.01l.03-.005.116-.015a67.291 67.291 0 011.933-.225C7.425 18.12 8.883 18 10 18s2.575.12 3.776.245a77.975 77.975 0 011.933.225l.117.015.03.005h.008a1 1 0 00.271-1.98l-.134.98.134-.98-.003-.001-.009-.001-.032-.005-.123-.016a78.927 78.927 0 00-1.986-.232C12.768 16.13 11.226 16 10 16c-1.226 0-2.768.13-3.982.255a78.898 78.898 0 00-1.986.232l-.123.016-.033.005h-.008l-.002.001h-.001L4 17.5z"/></symbol><symbol fill="none" viewBox="0 0 20 20" id="20x20--upload" xmlns="http://www.w3.org/2000/svg"><path fill="currentColor" fill-rule="evenodd" d="M9 12a1 1 0 102 0V4.26l3.827 3.48a1 1 0 001.346-1.48l-5.5-5a1 1 0 00-1.346 0l-5.5 5a1 1 0 101.346 1.48L9 4.26V12zm-5.895-.796A1 1 0 001.5 12v3.867a2.018 2.018 0 002.227 2.002c1.424-.147 3.96-.369 6.273-.369 2.386 0 5.248.236 6.795.383a2.013 2.013 0 002.205-2V12a1 1 0 10-2 0v3.884l-13.895-4.68zm0 0L2.5 11l.605.204zm0 0l13.892 4.683a.019.019 0 01-.007.005h-.006c-1.558-.148-4.499-.392-6.984-.392-2.416 0-5.034.23-6.478.38h-.009a.026.026 0 01-.013-.011V12a.998.998 0 00-.394-.796z"/></symbol><symbol fill="none" viewBox="0 0 20 20" id="20x20--x" xmlns="http://www.w3.org/2000/svg"><path fill="currentColor" fill-rule="evenodd" d="M16.293 17.707a1 1 0 001.414-1.414L11.414 10l6.293-6.293a1 1 0 00-1.414-1.414L10 8.586 3.707 2.293a1 1 0 00-1.414 1.414L8.586 10l-6.293 6.293a1 1 0 101.414 1.414L10 11.414l6.293 6.293z"/></symbol><symbol fill="none" viewBox="0 0 20 20" id="20x20--x-circle" xmlns="http://www.w3.org/2000/svg"><path fill="currentColor" fill-rule="evenodd" d="M10 3a7 7 0 100 14 7 7 0 000-14zm-9 7a9 9 0 1118 0 9 9 0 01-18 0zm12.844-3.707a1 1 0 010 1.414l-2.361 2.362 2.361 2.36a1 1 0 01-1.414 1.415l-2.361-2.361-2.362 2.361a1 1 0 11-1.414-1.414l2.361-2.361-2.361-2.362a1 1 0 011.414-1.414l2.362 2.361 2.36-2.361a1 1 0 011.415 0z"/></symbol><symbol fill="none" viewBox="0 0 20 20" id="20x20--zap" xmlns="http://www.w3.org/2000/svg"><path stroke="currentColor" stroke-linecap="round" stroke-linejoin="round" stroke-width="2" d="M2 11.778L9.785 2v5.778H18L9.785 18v-6.222H2z"/></symbol><symbol fill="none" viewBox="0 0 20 20" id="20x20--zoom-in" xmlns="http://www.w3.org/2000/svg"><path fill="currentColor" fill-rule="evenodd" d="M4 9a5 5 0 1110 0A5 5 0 014 9zm5-7a7 7 0 104.2 12.6.999.999 0 00.093.107l3 3a1 1 0 001.414-1.414l-3-3a.999.999 0 00-.107-.093A7 7 0 009 2zM8 6.5a1 1 0 112 0V8h1.5a1 1 0 110 2H10v1.5a1 1 0 11-2 0V10H6.5a1 1 0 010-2H8V6.5z"/></symbol><symbol fill="none" viewBox="0 0 20 20" id="20x20--zoom-out" xmlns="http://www.w3.org/2000/svg"><path fill="currentColor" fill-rule="evenodd" d="M9 4a5 5 0 100 10A5 5 0 009 4zM2 9a7 7 0 1112.6 4.2.999.999 0 01.107.093l3 3a1 1 0 01-1.414 1.414l-3-3a.999.999 0 01-.093-.107A7 7 0 012 9zm10.5 0a1 1 0 00-1-1h-5a1 1 0 100 2h5a1 1 0 001-1z"/></symbol></svg>