<svg width="24" height="24" viewBox="0 0 24 24" fill="none" xmlns="http://www.w3.org/2000/svg">
<path fill-rule="evenodd" clip-rule="evenodd" d="M4 12C4 7.58172 7.58172 4 12 4C16.4183 4 20 7.58172 20 12C20 16.4183 16.4183 20 12 20C7.58172 20 4 16.4183 4 12ZM12 2C6.47715 2 2 6.47715 2 12C2 17.5228 6.47715 22 12 22C17.5228 22 22 17.5228 22 12C22 6.47715 17.5228 2 12 2ZM13 7.5C13 6.94772 12.5523 6.5 12 6.5C11.4477 6.5 11 6.94772 11 7.5V11.5316L8.35982 13.7318C7.93554 14.0853 7.87821 14.7159 8.23178 15.1402C8.58534 15.5645 9.21591 15.6218 9.64018 15.2682L12.6402 12.7682C12.8682 12.5782 13 12.2968 13 12V7.5Z" fill="#333333"/>
</svg>
