<svg width="24" height="24" viewBox="0 0 24 24" fill="none" xmlns="http://www.w3.org/2000/svg">
<path fill-rule="evenodd" clip-rule="evenodd" d="M22 3C22 2.44772 21.5523 2 21 2H15C14.4477 2 14 2.44772 14 3C14 3.55228 14.4477 4 15 4L18.5858 4L14.2929 8.29289C13.9024 8.68342 13.9024 9.31658 14.2929 9.70711C14.6834 10.0976 15.3166 10.0976 15.7071 9.70711L20 5.41421V9C20 9.55228 20.4477 10 21 10C21.5523 10 22 9.55229 22 9V3ZM2 21C2 21.5523 2.44772 22 3 22H9C9.55228 22 10 21.5523 10 21C10 20.4477 9.55228 20 9 20H5.41421L9.70711 15.7071C10.0976 15.3166 10.0976 14.6834 9.70711 14.2929C9.31658 13.9024 8.68342 13.9024 8.29289 14.2929L4 18.5858L4 15C4 14.4477 3.55229 14 3 14C2.44772 14 2 14.4477 2 15V21Z" fill="#333333"/>
</svg>
