<svg width="24" height="24" viewBox="0 0 24 24" fill="none" xmlns="http://www.w3.org/2000/svg">
<path fill-rule="evenodd" clip-rule="evenodd" d="M21 6C21 6.55228 20.5523 7 20 7H4C3.44772 7 3 6.55228 3 6C3 5.44772 3.44772 5 4 5H20C20.5523 5 21 5.44772 21 6ZM21 12.2609C21 12.8132 20.5523 13.2609 20 13.2609L4 13.2609C3.44772 13.2609 3 12.8132 3 12.2609C3 11.7086 3.44772 11.2609 4 11.2609L20 11.2609C20.5523 11.2609 21 11.7086 21 12.2609ZM20 19.5C20.5523 19.5 21 19.0523 21 18.5C21 17.9477 20.5523 17.5 20 17.5H4C3.44772 17.5 3 17.9477 3 18.5C3 19.0523 3.44772 19.5 4 19.5H20Z" fill="#333333"/>
</svg>
