<svg xmlns="http://www.w3.org/2000/svg" width="24" height="24" fill="none" viewBox="0 0 24 24">
  <path fill="#333" fill-rule="evenodd" d="M6.356 4.058s.003-.003.011-.002c1.07.134 3.742.444 5.633.444s4.562-.31 5.633-.444c.008-.001.01.002.01.002l1.507 1.506a47.697 47.697 0 01-1.864.545H6.714a43.369 43.369 0 01-1.865-.545l1.506-1.506zm.359 2.05h-4.71a1 1 0 01.288-.815l2.649-2.65a2.012 2.012 0 011.673-.572c1.081.136 3.636.429 5.385.429 1.75 0 4.304-.293 5.384-.429a2.012 2.012 0 011.674.573l2.65 2.649a1 1 0 01.286.816H6.715zm0 0C8.455 6.579 10.465 7 12 7c1.534 0 3.545-.423 5.285-.891h4.71-.001v.003l-.001.009-.004.038-.016.147a103.622 103.622 0 00-.226 2.428c-.125 1.504-.247 3.345-.247 4.766 0 1.978.236 4.757.383 6.296A2.01 2.01 0 0119.885 22H4.115a2.01 2.01 0 01-1.998-2.204c.147-1.54.383-4.318.383-6.296 0-1.421-.122-3.262-.247-4.766a120.4 120.4 0 00-.226-2.428L2.01 6.16l-.004-.038v-.01l-.001-.002h4.709zM4.247 8.57c-.034-.408-.068-.79-.1-1.13.503.16 1.107.342 1.769.525C7.738 8.467 10.099 9 12 9c1.901 0 4.262-.533 6.084-1.036a49.902 49.902 0 001.768-.525c-.031.34-.065.722-.099 1.13-.125 1.514-.253 3.423-.253 4.931 0 2.085.245 4.95.392 6.487v.007l-.002.003h-.001a.017.017 0 01-.003.003H4.114a.017.017 0 01-.006-.008v-.005c.147-1.537.392-4.402.392-6.487 0-1.508-.128-3.417-.253-4.93zM10 13a1 1 0 10-2 0 4 4 0 108 0 1 1 0 10-2 0 2 2 0 01-4 0z"/>
</svg>
