<svg xmlns="http://www.w3.org/2000/svg" width="24" height="24" fill="none" viewBox="0 0 24 24">
  <path fill="currentColor" fill-rule="evenodd" d="M4 7.149v9.701l.004.004a.022.022 0 00.007.005h.007c1.456-.177 4.064-.46 5.982-.46 1.918 0 4.526.283 5.982.46a.02.02 0 00.005 0h.002a.022.022 0 00.007-.005.014.014 0 00.004-.004v-9.7l-.004-.004a.022.022 0 00-.007-.005h-.007c-1.456.177-4.064.46-5.982.46-1.918 0-4.526-.283-5.982-.46h-.007a.022.022 0 00-.01.009zM2 7.15a2.015 2.015 0 012.26-1.995c1.458.177 3.957.445 5.74.445 1.783 0 4.282-.268 5.74-.445A2.015 2.015 0 0118 7.15v9.7a2.015 2.015 0 01-2.26 1.995c-1.458-.177-3.957-.445-5.74-.445-1.783 0-4.282.268-5.74.445A2.015 2.015 0 012 16.85v-9.7zM20 9a1 1 0 011 1v4.5a1 1 0 11-2 0V10a1 1 0 011-1zm-9.47-.348A1 1 0 009 9.5v3.218l-2.573-1.572a1 1 0 00-1.042 1.707l4.094 2.5A1 1 0 0011 14.5v-3.196l2.47 1.544a1 1 0 001.06-1.696l-4-2.5z"/>
</svg>
