<svg xmlns="http://www.w3.org/2000/svg" width="24" height="24" fill="none" viewBox="0 0 24 24">
  <path fill="currentColor" fill-rule="evenodd" d="M4 7.15l.004-.004a.022.022 0 01.007-.005h.007c1.456.177 4.064.46 5.982.46 1.918 0 4.526-.283 5.982-.46h.007c.002 0 .005.002.007.005A.017.017 0 0116 7.15v9.7l-.004.004a.022.022 0 01-.007.005h-.007c-1.456-.177-4.064-.46-5.982-.46-1.918 0-4.526.283-5.982.46a.02.02 0 01-.005 0h-.002a.022.022 0 01-.007-.005A.016.016 0 014 16.85v-9.7zm.26-1.995A2.015 2.015 0 002 7.15v9.7a2.015 2.015 0 002.26 1.995c1.458-.177 3.957-.445 5.74-.445 1.783 0 4.282.268 5.74.445A2.015 2.015 0 0018 16.85v-9.7a2.015 2.015 0 00-2.26-1.995c-1.458.177-3.957.445-5.74.445-1.783 0-4.282-.268-5.74-.445zM21 10a1 1 0 10-2 0v4.5a1 1 0 102 0V10z"/>
</svg>
