<svg xmlns="http://www.w3.org/2000/svg" width="24" height="24" fill="none" viewBox="0 0 24 24">
  <path fill="currentColor" fill-rule="evenodd" d="M4.495 9.999C4.422 5.775 7.636 2 12 2s7.578 3.775 7.505 7.999c-.003.172-.005.34-.005.501 0 1.978.236 4.757.383 6.296.007.069.01.137.01.204H22a1 1 0 110 2h-6a4 4 0 01-8 0H2a1 1 0 110-2h2.107c0-.067.003-.135.01-.204.147-1.54.383-4.318.383-6.296 0-.162-.002-.329-.005-.501zM9.023 17h8.863l.003-.003a.016.016 0 00.003-.005v-.005c-.147-1.537-.392-4.402-.392-6.487 0-.174.002-.354.005-.536C17.562 6.716 15.109 4 12 4S6.438 6.716 6.495 9.964c.003.182.005.362.005.536 0 2.085-.245 4.95-.393 6.487a.02.02 0 000 .004v.001a.017.017 0 00.007.008h2.909zM10 19a2 2 0 104 0h-4z"/>
</svg>
