<svg xmlns="http://www.w3.org/2000/svg" width="24" height="24" fill="none" viewBox="0 0 24 24">
  <path fill="currentColor" fill-rule="evenodd" d="M20.77 4H3.228l-.001.002a.013.013 0 00-.003.004v.003c.06.748.143 1.815.217 2.991h17.117c.075-1.176.156-2.243.217-2.99v-.004A.014.014 0 0020.77 4zM3.971 9.727A23.196 23.196 0 013.724 9h16.552a23.08 23.08 0 01-.248.727l-.02.06c-.223.627-.508 1.431-.508 2.213 0 2.594.266 6.214.41 7.991v.005l-.002.002V20l-.002.001H4.094l-.002-.002a.011.011 0 01-.003-.003v-.004c.145-1.777.411-5.397.411-7.991 0-.782-.285-1.586-.507-2.213l-.021-.06zM3.23 2h17.538a2.008 2.008 0 012 2.171c-.076.935-.185 2.369-.27 3.885-.047.82-.334 1.63-.559 2.264l-.026.075c-.256.724-.414 1.21-.414 1.605 0 2.502.26 6.049.404 7.83a2.007 2.007 0 01-2 2.17H4.096a2.007 2.007 0 01-1.999-2.17c.145-1.781.404-5.327.404-7.83 0-.395-.158-.881-.414-1.605l-.026-.075c-.225-.634-.512-1.444-.558-2.264-.086-1.516-.194-2.95-.27-3.885A2.008 2.008 0 013.23 2zM9 13a1 1 0 100 2h6a1 1 0 100-2H9z"/>
</svg>
