<svg xmlns="http://www.w3.org/2000/svg" width="24" height="24" fill="none" viewBox="0 0 24 24">
  <path fill="currentColor" fill-rule="evenodd" d="M9 3a1 1 0 00-2 0v.302c-1.051-.067-2.01-.14-2.719-.197-1.24-.1-2.275.94-2.17 2.18.147 1.73.389 4.935.389 7.215 0 2.327-.252 5.616-.398 7.319A2.008 2.008 0 004.1 22h15.8a2.008 2.008 0 001.998-2.181c-.146-1.703-.398-4.992-.398-7.319 0-2.28.242-5.484.39-7.215a2.017 2.017 0 00-2.171-2.18c-.709.057-1.668.13-2.719.197V3a1 1 0 10-2 0v.416c-1.048.05-2.093.084-3 .084s-1.952-.034-3-.084V3zm6 4V5.418a66.023 66.023 0 01-3 .082c-.914 0-1.956-.033-3-.082V7a1 1 0 01-2 0V5.306a170.371 170.371 0 01-2.88-.208h-.004l-.007.005a.02.02 0 00-.005.007v.005c.147 1.73.396 5.01.396 7.385 0 2.423-.26 5.79-.405 7.49a.02.02 0 000 .004v.002l.003.003.001.001h15.803l.001-.001a.016.016 0 00.003-.005v-.005c-.145-1.7-.405-5.066-.405-7.489 0-2.375.25-5.656.396-7.385V5.11a.02.02 0 00-.005-.007.02.02 0 00-.006-.004h-.005c-.737.059-1.758.136-2.88.207V7a1 1 0 11-2 0zm1 7a1 1 0 100-2H8a1 1 0 100 2h8z"/>
</svg>
