<svg xmlns="http://www.w3.org/2000/svg" width="24" height="24" fill="none" viewBox="0 0 24 24">
  <path fill="currentColor" fill-rule="evenodd" d="M8 2a1 1 0 011 1v.416c1.048.05 2.093.084 3 .084s1.952-.034 3-.084V3a1 1 0 112 0v.302c1.051-.067 2.01-.14 2.719-.197 1.24-.1 2.275.94 2.17 2.18-.147 1.73-.389 4.935-.389 7.215 0 2.327.252 5.616.398 7.319A2.008 2.008 0 0119.9 22H4.1a2.008 2.008 0 01-1.998-2.181c.146-1.703.398-4.992.398-7.319 0-2.28-.242-5.484-.39-7.215a2.017 2.017 0 012.171-2.18c.709.057 1.668.13 2.719.197V3a1 1 0 011-1zm7 3.418V7a1 1 0 102 0V5.306a170.345 170.345 0 002.884-.208.02.02 0 01.008.005.02.02 0 01.004.007v.005c-.146 1.73-.396 5.01-.396 7.385 0 2.423.26 5.79.405 7.49v.004l-.003.005-.001.001H4.1l-.002-.001a.014.014 0 01-.002-.003l-.001-.002v-.005c.145-1.7.405-5.066.405-7.489 0-2.375-.25-5.656-.396-7.385a.02.02 0 010-.004V5.11a.02.02 0 01.005-.007.02.02 0 01.006-.004h.006c.736.059 1.757.136 2.879.207V7a1 1 0 102 0V5.418c1.044.049 2.086.082 3 .082.914 0 1.956-.033 3-.082zM12 8a1 1 0 011 1v3h3a1 1 0 110 2h-3v3a1 1 0 11-2 0v-3H8a1 1 0 110-2h3V9a1 1 0 011-1z"/>
</svg>
