<svg xmlns="http://www.w3.org/2000/svg" width="24" height="24" fill="none" viewBox="0 0 24 24">
  <path fill="currentColor" fill-rule="evenodd" d="M8.78 3a2 2 0 00-1.94 1.515L6.22 7H4.145a2.017 2.017 0 00-1.998 2.252C2.296 10.52 2.5 12.543 2.5 14c0 1.415-.192 3.364-.34 4.639a2.026 2.026 0 002.17 2.252c1.828-.147 5.241-.391 7.67-.391 2.429 0 5.842.244 7.67.391a2.026 2.026 0 002.17-2.252c-.148-1.275-.34-3.224-.34-4.639 0-1.457.204-3.48.352-4.748A2.017 2.017 0 0019.854 7H17.78l-.621-2.485A1.999 1.999 0 0015.22 3H8.78zm0 2h.005l7.075 2.558A2 2 0 0017.78 9h2.07l.01.004a.025.025 0 01.005.008v.008c-.148 1.27-.365 3.395-.365 4.98 0 1.54.205 3.59.352 4.868a.02.02 0 010 .011.035.035 0 01-.017.018h-.005c-1.826-.146-5.312-.397-7.83-.397s-6.004.251-7.83.398h-.004a.035.035 0 01-.017-.019l-.001-.004a.03.03 0 010-.007C4.295 17.59 4.5 15.54 4.5 14c0-1.585-.217-3.71-.365-4.98v-.008A.025.025 0 014.145 9h2.074a2 2 0 001.94-1.515L8.781 5zm11.07 4h.006L15.86 7.556a1.866 1.866 0 01-.02-.07L15.22 5H8.784l7.075 2.556v.002L19.85 9zM10 13a2 2 0 114 0 2 2 0 01-4 0zm2-4a4 4 0 100 8 4 4 0 000-8z"/>
</svg>
