<svg xmlns="http://www.w3.org/2000/svg" width="24" height="24" fill="none" viewBox="0 0 24 24">
  <path fill="currentColor" fill-rule="evenodd" d="M9 2a2 2 0 00-2 2H5.124a2.01 2.01 0 00-1.998 2.218c.168 1.626.445 4.643.445 6.782 0 2.14-.277 5.156-.445 6.782A2.01 2.01 0 005.124 22h13.752a2.01 2.01 0 001.998-2.218c-.168-1.626-.445-4.643-.445-6.782 0-2.14.277-5.156.445-6.782A2.01 2.01 0 0018.876 4H17v2h1.878l.003.003a.013.013 0 01.003.005v.005c-.167 1.623-.455 4.733-.455 6.987 0 2.254.288 5.364.455 6.987v.005l-.003.005-.002.002h-.001l-.002.001H5.12l-.002-.003a.016.016 0 01-.003-.005v-.005c.167-1.623.455-4.733.455-6.987 0-2.254-.288-5.364-.455-6.987v-.005l.003-.005A.015.015 0 015.122 6H7a2 2 0 002 2h6a2 2 0 002-2V4a2 2 0 00-2-2H9zm0 2h6v2H9V4zm3 5a1 1 0 011 1v3h3a1 1 0 110 2h-3v3a1 1 0 11-2 0v-3H8a1 1 0 110-2h3v-3a1 1 0 011-1z"/>
</svg>
