<svg xmlns="http://www.w3.org/2000/svg" width="24" height="24" fill="none" viewBox="0 0 24 24">
  <path fill="currentColor" fill-rule="evenodd" d="M7 4a2 2 0 012-2h6a2 2 0 012 2v2a2 2 0 01-2 2H9a2 2 0 01-2-2H5.122l-.003.003a.015.015 0 00-.003.005v.005c.167 1.623.455 4.733.455 6.987 0 2.254-.288 5.364-.455 6.987v.005l.003.005.002.002h.001l.002.001h13.754l.003-.003a.014.014 0 00.003-.005v-.005c-.167-1.623-.455-4.733-.455-6.987 0-2.254.288-5.364.455-6.987v-.005l-.003-.005A.016.016 0 0018.878 6H17V4h1.876a2.01 2.01 0 011.998 2.218c-.168 1.626-.445 4.643-.445 6.782 0 2.14.277 5.156.445 6.782A2.01 2.01 0 0118.876 22H5.124a2.01 2.01 0 01-1.998-2.218c.168-1.626.445-4.643.445-6.782 0-2.14-.277-5.156-.445-6.782A2.01 2.01 0 015.124 4H7zm8 0H9v2h6V4zm1.426 7.65a1 1 0 10-1.519-1.3l-3.64 4.248-1.624-1.364a1 1 0 00-1.286 1.532l2.38 2a1 1 0 001.403-.115l4.286-5z"/>
</svg>
