<svg xmlns="http://www.w3.org/2000/svg" width="24" height="24" fill="none" viewBox="0 0 24 24">
  <path fill="currentColor" fill-rule="evenodd" d="M4.484 12.308A18.55 18.55 0 014.24 12a18.647 18.647 0 012.073-2.264C7.888 8.286 9.9 7 12 7s4.112 1.285 5.686 2.736A18.642 18.642 0 0119.76 12a18.64 18.64 0 01-2.073 2.264C16.111 15.714 14.1 17 12 17s-4.112-1.285-5.687-2.736a18.644 18.644 0 01-1.829-1.956zm17.346-.866L21 12l.83.558-.002.002-.003.006-.012.016a8.723 8.723 0 01-.188.266 20.644 20.644 0 01-2.583 2.888C17.358 17.286 14.87 19 12 19s-5.359-1.715-7.041-3.264a20.649 20.649 0 01-2.584-2.888 12.29 12.29 0 01-.188-.266l-.012-.016-.003-.006-.001-.001v-.001L3 12l-.83-.558.002-.002.003-.006.012-.016a8.634 8.634 0 01.188-.266 20.651 20.651 0 012.583-2.888C6.642 6.714 9.13 5 12 5s5.359 1.715 7.041 3.264a20.646 20.646 0 012.584 2.888 12.198 12.198 0 01.188.266l.012.016.003.006.001.001v.001zM21 12l.83-.557.375.557-.375.557L21 12zm-18.83-.557L3 12l-.83.557L1.795 12l.375-.557zM11 12a1 1 0 112 0 1 1 0 01-2 0zm1-3a3 3 0 100 6 3 3 0 000-6z"/>
</svg>
