<svg xmlns="http://www.w3.org/2000/svg" width="24" height="24" fill="none" viewBox="0 0 24 24">
  <path fill="#333" fill-rule="evenodd" d="M4 2a2 2 0 00-2 2v6h2V4h6V2H4zm10 2h6v6h2V4a2 2 0 00-2-2h-6v2zM4 20v-6H2v6a2 2 0 002 2h6v-2H4zm16-6v6h-6v2h6a2 2 0 002-2v-6h-2zM8.01 10a1 1 0 000-2H8a1 1 0 100 2h.01zm9-1a1 1 0 01-1 1H16a1 1 0 110-2h.01a1 1 0 011 1zm-1.566 7.331a1 1 0 001.112-1.662L16 15.5l.556-.831-.002-.001-.002-.002-.007-.005-.025-.016a11.631 11.631 0 00-.39-.24 13.862 13.862 0 00-1.038-.556C14.283 13.459 13.114 13 12 13s-2.283.46-3.092.849a13.841 13.841 0 00-1.428.796l-.025.016-.007.005-.002.002h-.001L8 15.5l-.556-.831a1 1 0 001.112 1.662h.002l.014-.01a6.673 6.673 0 01.315-.195c.22-.13.529-.303.887-.475.752-.36 1.582-.651 2.226-.651.644 0 1.474.29 2.226.651a11.844 11.844 0 011.202.67l.014.01h.002zm0 0L16 15.5l-.556.831z"/>
</svg>
