<svg xmlns="http://www.w3.org/2000/svg" width="24" height="24" fill="none" viewBox="0 0 24 24">
  <path fill="currentColor" fill-rule="evenodd" d="M4.09 4.006l.002-.004L4.094 4H10V2H4.095a2.007 2.007 0 00-1.999 2.17c.109 1.343.285 3.706.364 5.867l1.998-.073C4.378 7.758 4.2 5.36 4.09 4.009v-.003zM14 4h5.907l.001.002a.015.015 0 01.002.003v.004c-.11 1.351-.288 3.75-.368 5.955l1.998.072c.08-2.16.255-4.523.364-5.865a2.007 2.007 0 00-2-2.171H14v2zM4.09 19.991c.11-1.351.288-3.75.368-5.954l-1.998-.074c-.08 2.161-.255 4.524-.364 5.866A2.006 2.006 0 004.094 22H10v-2H4.093l-.001-.001a.013.013 0 01-.002-.003v-.005zm15.452-5.954c.08 2.205.259 4.603.369 5.954v.004s0 .002-.002.002V20l-.002.001H14v2h5.906a2.006 2.006 0 001.998-2.17 140.963 140.963 0 01-.364-5.866l-1.998.072zM8.01 10a1 1 0 100-2H8a1 1 0 000 2h.01zm9-1a1 1 0 01-1 1H16a1 1 0 110-2h.01a1 1 0 011 1zm-8.454 4.169a1 1 0 00-1.112 1.662L8 14l-.556.831.002.001.002.002.007.005.025.016.085.054a13.84 13.84 0 001.343.742c.809.39 1.978.849 3.092.849s2.283-.46 3.092-.849a13.847 13.847 0 001.428-.796l.025-.016.007-.005.002-.002h.001L16 14l.556.831a1 1 0 00-1.112-1.662h-.002l-.014.01a7.21 7.21 0 01-.315.195c-.22.13-.529.303-.887.475-.752.36-1.582.651-2.226.651-.644 0-1.474-.29-2.226-.651a11.825 11.825 0 01-1.202-.67l-.014-.01h-.002zm0 0L8 14l.556-.831z"/>
</svg>
