<svg xmlns="http://www.w3.org/2000/svg" width="24" height="24" fill="none" viewBox="0 0 24 24">
  <path fill="currentColor" fill-rule="evenodd" d="M7.5 5C5.663 5 4 6.69 4 9c0 1.914 1.364 3.999 3.205 5.886 1.772 1.816 3.786 3.25 4.756 3.898.962-.73 3-2.35 4.799-4.248.912-.962 1.738-1.971 2.331-2.952C19.693 10.59 20 9.714 20 9c0-2.31-1.663-4-3.5-4C14.664 5 13 6.69 13 9a1 1 0 11-2 0c0-2.31-1.664-4-3.5-4zm4.5.552C11.02 4.027 9.402 3 7.5 3 4.366 3 2 5.788 2 9c0 2.757 1.88 5.342 3.774 7.283 1.938 1.987 4.116 3.525 5.12 4.193.69.459 1.58.428 2.236-.069.98-.742 3.149-2.455 5.082-4.495.966-1.02 1.896-2.145 2.59-3.292C21.488 11.486 22 10.24 22 9c0-3.212-2.366-6-5.5-6-1.902 0-3.52 1.027-4.5 2.552z"/>
</svg>
