<svg xmlns="http://www.w3.org/2000/svg" width="24" height="24" fill="none" viewBox="0 0 24 24">
  <path fill="currentColor" fill-rule="evenodd" d="M13.28 1.765a2 2 0 00-2.56 0l-7.932 6.61a2.013 2.013 0 00-.706 1.805c.14 1.08.418 3.443.418 5.07 0 1.37-.197 3.269-.345 4.488A2.016 2.016 0 004.151 22H19.85c1.22 0 2.138-1.075 1.995-2.262-.147-1.22-.345-3.118-.345-4.488 0-1.627.278-3.99.418-5.07a2.013 2.013 0 00-.706-1.805l-7.932-6.61zM12 3.302l7.931 6.61s.004.003.003.011c-.139 1.072-.434 3.554-.434 5.327 0 1.503.212 3.508.36 4.728v.007l-.001.003a.024.024 0 01-.008.012H4.15a.026.026 0 01-.009-.012v-.003a.03.03 0 010-.007c.147-1.22.359-3.225.359-4.728 0-1.773-.295-4.255-.434-5.327-.001-.008.002-.012.003-.012L12 3.301zM12 11a4 4 0 00-4 4v5h2v-5a2 2 0 114 0v5h2v-5a4 4 0 00-4-4z"/>
</svg>
