<svg xmlns="http://www.w3.org/2000/svg" width="24" height="24" fill="none" viewBox="0 0 24 24">
  <path fill="currentColor" fill-rule="evenodd" d="M4.098 4.11v.004C4.244 5.924 4.5 9.456 4.5 12c0 .35-.005.719-.014 1.1l3.807-3.807.674-.674.706.641 2.96 2.692 2.66-2.66.667-.666.704.627 2.837 2.52c.014-2.523.26-5.902.401-7.659V4.11a.02.02 0 00-.005-.006.02.02 0 00-.006-.005h-.005c-1.81.146-5.342.402-7.886.402-2.544 0-6.076-.256-7.886-.402H4.11l-.006.005a.02.02 0 00-.005.006zM19.56 14.503l-3.52-3.13-1.925 1.926 5.678 5.161a135.158 135.158 0 01-.233-3.958zM4.098 19.886c.076-.94.181-2.345.265-3.835l4.67-4.67 9.238 8.398c-1.88-.134-4.355-.279-6.271-.279-2.544 0-6.076.256-7.886.402H4.11a.02.02 0 01-.006-.005.02.02 0 01-.005-.006v-.005zM2.104 4.275a2.016 2.016 0 012.17-2.17C6.089 2.25 9.547 2.5 12 2.5c2.454 0 5.912-.25 7.725-.396 1.237-.1 2.27.934 2.17 2.17C21.75 6.089 21.5 9.547 21.5 12c0 2.454.25 5.912.396 7.725a2.016 2.016 0 01-2.17 2.17C17.911 21.75 14.453 21.5 12 21.5c-2.454 0-5.912.25-7.725.396a2.016 2.016 0 01-2.17-2.17C2.25 17.911 2.5 14.453 2.5 12c0-2.454-.25-5.912-.396-7.725z"/>
</svg>
