<svg xmlns="http://www.w3.org/2000/svg" width="24" height="24" fill="none" viewBox="0 0 24 24">
  <path fill="currentColor" fill-rule="evenodd" d="M12 11a1 1 0 01-1-1V4.269L7.675 7.307a1 1 0 11-1.35-1.476l5-4.57a1 1 0 011.35 0l5 4.57a1 1 0 01-1.35 1.476L13 4.27V10a1 1 0 01-1 1zm-8.5 1h2.937a3 3 0 012.487 1.322l1.06 1.57a1 1 0 00.829.441h2.374a1 1 0 00.829-.44l1.06-1.571A3 3 0 0117.563 12H20.5a1 1 0 011 1c0 2.271.24 5.218.387 6.802A2.01 2.01 0 0119.888 22H4.112a2.01 2.01 0 01-2-2.198c.148-1.584.388-4.53.388-6.802a1 1 0 011-1zm16.013 2c.053 2.17.256 4.615.383 5.987v.005a.015.015 0 01-.004.006.012.012 0 01-.002.002H4.11l-.002-.002a.016.016 0 01-.004-.005v-.006c.127-1.372.33-3.818.383-5.987h1.95a1 1 0 01.829.44l1.06 1.572a3 3 0 002.487 1.321h2.374a3 3 0 002.487-1.321l1.06-1.572a1 1 0 01.829-.44h1.95z"/>
</svg>
