<svg xmlns="http://www.w3.org/2000/svg" width="24" height="24" fill="none" viewBox="0 0 24 24">
  <path fill="currentColor" fill-rule="evenodd" d="M4 5.095v-.001l.002-.002a.011.011 0 01.003-.003h.004C5.786 5.234 9.406 5.5 12 5.5c2.594 0 6.214-.266 7.991-.41h.003l.004.002.002.002v2.318l-8 4.444-8-4.444V5.095zM4 9.7v9.206l.002.002a.01.01 0 00.003.003h.004C5.786 18.766 9.406 18.5 12 18.5c2.594 0 6.214.266 7.991.41h.003l.004-.002.002-.002V9.7l-7.029 3.904a2 2 0 01-1.942 0L4 9.7zm.17-6.604a2.007 2.007 0 00-2.17 2v13.809a2.007 2.007 0 002.17 1.999c1.781-.145 5.327-.404 7.83-.404 2.502 0 6.049.26 7.83.404a2.007 2.007 0 002.17-2V5.096a2.007 2.007 0 00-2.17-1.999c-1.781.145-5.327.404-7.83.404s-6.049-.26-7.83-.404z"/>
</svg>
