<svg xmlns="http://www.w3.org/2000/svg" width="24" height="24" fill="none" viewBox="0 0 24 24">
  <path fill="currentColor" fill-rule="evenodd" d="M12.633 1.157a2 2 0 00-1.265 0L7.183 2.55 3.368 3.823A2 2 0 002 5.721v14.184a2.007 2.007 0 002.17 1.999c1.781-.145 5.327-.404 7.83-.404 2.502 0 6.049.26 7.83.404a2.007 2.007 0 002.17-2V5.722a2 2 0 00-1.367-1.898l-3.817-1.272-4.183-1.394zM7.816 4.449L12 3.054l4.184 1.395L20 5.72v2.69l-8 4.445-8-4.444V5.72l3.816-1.272zM4 10.699v9.208l.002.002a.01.01 0 00.003.003h.004C5.786 19.766 9.406 19.5 12 19.5c2.594 0 6.214.266 7.991.41h.003l.004-.002.002-.002V10.7l-7.029 3.905a2 2 0 01-1.942 0L4 10.7z"/>
</svg>
