<svg xmlns="http://www.w3.org/2000/svg" width="24" height="24" fill="none" viewBox="0 0 24 24">
  <path fill="currentColor" fill-rule="evenodd" d="M18.99 3.865a1 1 0 01-.854 1.126L18 4l-.135-.99a1 1 0 011.126.855zm-1.126-.856L18 4l.135.99-.003.001-.009.001-.032.005-.123.016-.453.058c-.385.047-.922.11-1.533.174-1.214.125-2.756.255-3.982.255-1.226 0-2.768-.13-3.982-.255a79.136 79.136 0 01-1.986-.232l-.123-.016-.033-.005h-.008l-.002-.001h-.001l.134-.98-.134.98a1 1 0 01.27-1.982h.002l.008.001.03.004.116.016.44.056c.374.046.898.108 1.493.17C9.425 3.38 10.883 3.5 12 3.5s2.575-.12 3.776-.245a77.193 77.193 0 001.933-.225l.117-.016.03-.004h.008zM7 8.5a1 1 0 10-2 0v6a7 7 0 1014 0v-6a1 1 0 10-2 0v6a5 5 0 01-10 0v-6z"/>
</svg>
