<svg xmlns="http://www.w3.org/2000/svg" width="20" height="20" fill="none" viewBox="0 0 20 20">
  <path fill="currentColor" fill-rule="evenodd" d="M4.312 3.468C4.075 2.249 4.975 1 6.31 1h7.38c1.335 0 2.235 1.25 1.998 2.468-.106.545-.188 1.114-.188 1.532 0 .418.082.987.188 1.532.03.157.042.313.037.468H17a2 2 0 012 2v5a2 2 0 01-2 2h-1.406c.039.246.086.497.135.736a19.767 19.767 0 00.217.93l.014.055.004.012v.003A1 1 0 0115 19H5a1 1 0 01-.965-1.264l.001-.003.004-.012.014-.055.053-.21c.045-.18.104-.433.164-.72.05-.239.096-.49.135-.736H3a2 2 0 01-2-2V9a2 2 0 012-2h1.275a2.06 2.06 0 01.037-.468C4.418 5.987 4.5 5.418 4.5 5c0-.418-.082-.987-.188-1.532zM4.406 14c-.028-.176-.06-.355-.094-.532C4.075 12.249 4.975 11 6.31 11h7.38c1.335 0 2.235 1.25 1.998 2.468-.034.177-.066.356-.094.532H17V9H3v5h1.406zm9.286-7H6.308a.051.051 0 01-.015-.014.088.088 0 01-.018-.071C6.387 6.34 6.5 5.617 6.5 5s-.113-1.34-.225-1.915a.088.088 0 01.018-.071A.051.051 0 016.308 3h7.384c.001 0 .008.004.015.014a.088.088 0 01.018.071C13.613 3.66 13.5 4.383 13.5 5s.113 1.34.225 1.915a.088.088 0 01-.018.071.051.051 0 01-.015.014zm.05 10H6.258c.12-.596.242-1.358.242-2 0-.617-.113-1.34-.225-1.915a.088.088 0 01.018-.071.05.05 0 01.015-.014h7.384a.05.05 0 01.015.014.088.088 0 01.018.071c-.112.575-.225 1.298-.225 1.915 0 .642.123 1.404.242 2z"/>
</svg>
