<svg xmlns="http://www.w3.org/2000/svg" width="24" height="24" fill="none" viewBox="0 0 24 24">
  <path fill="currentColor" fill-rule="evenodd" d="M6.265 3.411C6.05 2.197 6.962 1 8.262 1h8.476c1.3 0 2.213 1.197 1.997 2.411-.124.695-.235 1.498-.235 2.089 0 .59.111 1.394.235 2.089.024.138.034.275.03.411H21a2 2 0 012 2v7a2 2 0 01-2 2h-2.479c.038.502.123 1.075.214 1.589.216 1.214-.697 2.411-1.997 2.411H8.262c-1.3 0-2.212-1.197-1.997-2.411.091-.514.176-1.087.214-1.589H4a2 2 0 01-2-2v-7a2 2 0 012-2h2.234a2.048 2.048 0 01.031-.411C6.39 6.894 6.5 6.09 6.5 5.5c0-.59-.111-1.394-.235-2.089zM8.262 8h8.478a.063.063 0 00.025-.061c-.127-.714-.266-1.662-.266-2.439 0-.777.139-1.725.266-2.438a.063.063 0 00-.014-.052H8.248L16.741 3H8.258a.062.062 0 00-.025.061c.127.714.266 1.662.266 2.439 0 .777-.139 1.725-.266 2.438A.062.062 0 008.26 8h.002zm.229 10.135a1.01 1.01 0 00-.027-.403 19.34 19.34 0 00-.23-1.67.062.062 0 01.014-.052h8.504a.063.063 0 01.014.051 19.2 19.2 0 00-.23 1.671 1 1 0 00-.027.403 7.627 7.627 0 00-.009.365c0 .777.139 1.725.266 2.439a.063.063 0 01-.025.06l-.003.001H8.26a.062.062 0 01-.025-.061c.127-.714.266-1.662.266-2.439 0-.118-.003-.24-.01-.365zM18.638 17c.03-.2.063-.398.097-.589.216-1.214-.697-2.411-1.997-2.411H8.262c-1.3 0-2.212 1.197-1.997 2.411.034.19.067.389.097.589H4v-7h17v7h-2.362zm-10.39-.99A.04.04 0 018.26 16h8.481l-8.493.01z"/>
</svg>
