<svg xmlns="http://www.w3.org/2000/svg" width="24" height="24" fill="none" viewBox="0 0 24 24">
  <path fill="currentColor" fill-rule="evenodd" d="M12 4a8 8 0 100 16 8 8 0 000-16zM2 12C2 6.477 6.477 2 12 2s10 4.477 10 10-4.477 10-10 10S2 17.523 2 12zm10-4a1.5 1.5 0 00-1.5 1.5v.5a1 1 0 11-2 0v-.5A3.5 3.5 0 0112 6h.25A3.75 3.75 0 0116 9.75v.68a3 3 0 01-1.336 2.496l-2.11 1.406a1 1 0 01-1.109-1.664l2.11-1.406A1 1 0 0014 10.43v-.68A1.75 1.75 0 0012.25 8H12zm.01 9.5a1 1 0 100-2H12a1 1 0 100 2h.01z"/>
</svg>
