<svg xmlns="http://www.w3.org/2000/svg" width="24" height="24" fill="none" viewBox="0 0 24 24">
  <path fill="currentColor" fill-rule="evenodd" d="M3.073 14.519a1 1 0 001.855-.75c-1.288-3.186-.1-6.866 2.879-8.586 2.79-1.61 6.288-1 8.457 1.312l-3.769.373a1 1 0 10.197 1.99l5.517-.545a1 1 0 00.886-.82l.916-5.148a1 1 0 00-1.97-.35l-.52 2.924c-2.79-2.789-7.167-3.515-10.714-1.468-3.878 2.239-5.38 6.995-3.734 11.068zM20.927 9.48a1 1 0 10-1.854.75c1.287 3.186.098 6.866-2.88 8.586-2.79 1.61-6.288 1-8.457-1.312l3.769-.373a1 1 0 00-.197-1.99l-5.517.545a1 1 0 00-.886.82l-.916 5.148a1 1 0 001.97.35l.52-2.924c2.79 2.789 7.167 3.515 10.714 1.468 3.878-2.239 5.38-6.995 3.734-11.068z"/>
</svg>
