<svg xmlns="http://www.w3.org/2000/svg" width="24" height="24" fill="none" viewBox="0 0 24 24">
  <path fill="currentColor" fill-rule="evenodd" d="M9.718 20.99a1 1 0 00.278-1.98C6.592 18.532 4 15.662 4 12.223c0-3.222 2.278-5.946 5.365-6.668l-1.562 3.45a1 1 0 101.822.825l2.286-5.05a1 1 0 00-.267-1.178l-4-3.367a1 1 0 00-1.288 1.53l2.273 1.913C4.818 4.7 2 8.128 2 12.223 2 16.7 5.368 20.38 9.718 20.99zm4.564-17.98a1 1 0 10-.278 1.98C17.408 5.468 20 8.338 20 11.777c0 3.222-2.278 5.946-5.365 6.668l1.562-3.45a1 1 0 00-1.822-.825l-2.286 5.05a1 1 0 00.267 1.178l4 3.367a1 1 0 001.288-1.53l-2.273-1.913C19.182 19.299 22 15.872 22 11.777 22 7.3 18.632 3.62 14.282 3.01z"/>
</svg>
