<svg xmlns="http://www.w3.org/2000/svg" width="24" height="24" fill="none" viewBox="0 0 24 24">
  <path fill="currentColor" fill-rule="evenodd" d="M13.18 1.62a2.024 2.024 0 00-2.36 0c-.909.652-2.613 1.843-3.806 2.506-1.115.62-2.68 1.274-3.619 1.648a2.038 2.038 0 00-1.263 2.179c.149 1.04.368 2.803.368 4.047 0 1.227-.213 2.957-.361 4.005a2.04 2.04 0 001.359 2.214c1.084.371 2.902 1.036 4.016 1.655 1.093.607 2.436 1.686 3.224 2.354a2.04 2.04 0 002.505.107c.925-.662 2.578-1.814 3.743-2.46 1.115-.62 2.68-1.275 3.619-1.649a2.038 2.038 0 001.263-2.179c-.149-1.04-.368-2.803-.368-4.047 0-1.244.22-3.006.368-4.047a2.038 2.038 0 00-1.263-2.18c-.939-.373-2.504-1.028-3.62-1.647-1.192-.663-2.896-1.854-3.806-2.506zm-1.194 1.625a.024.024 0 01.028 0c.901.646 2.693 1.903 4 2.63 1.237.686 2.907 1.381 3.85 1.757a.035.035 0 01.019.016c.005.008.006.016.005.023C19.74 8.709 19.5 10.598 19.5 12c0 1.402.24 3.29.387 4.33a.034.034 0 01-.004.022.036.036 0 01-.018.016c-.944.376-2.614 1.07-3.85 1.758-1.278.71-3.018 1.925-3.936 2.582a.03.03 0 01-.02.005.047.047 0 01-.028-.01c-.79-.67-2.264-1.866-3.545-2.577-1.29-.717-3.268-1.432-4.34-1.8a.04.04 0 01-.021-.017.035.035 0 01-.006-.024c.148-1.046.381-2.902.381-4.285 0-1.402-.24-3.29-.388-4.33a.035.035 0 01.005-.022.035.035 0 01.018-.016c.944-.376 2.614-1.07 3.85-1.758 1.308-.726 3.1-1.983 4.001-2.629zM10 12a2 2 0 114 0 2 2 0 01-4 0zm2-4a4 4 0 100 8 4 4 0 000-8z"/>
</svg>
