<svg xmlns="http://www.w3.org/2000/svg" width="24" height="24" fill="none" viewBox="0 0 24 24">
  <path fill="currentColor" fill-rule="evenodd" d="M5.414 5l1-1h11.172l1 1H5.414zm16.293.293a1 1 0 01.287.816H2.006a1 1 0 01.287-.816L5 2.586C5.374 2.212 5.88 2 6.412 2h11.176c.532 0 1.038.212 1.412.586l2.707 2.707zm.287.816v.003l-.001.009-.004.038-.016.147a103.622 103.622 0 00-.226 2.428c-.125 1.504-.247 3.345-.247 4.766 0 1.978.236 4.757.383 6.296A2.01 2.01 0 0119.885 22H4.115a2.01 2.01 0 01-1.998-2.204c.147-1.54.383-4.318.383-6.296 0-1.421-.122-3.262-.247-4.766a120.4 120.4 0 00-.226-2.428L2.01 6.16l-.004-.038v-.01l-.001-.002h19.988zM4.247 8.569A156.46 156.46 0 004.107 7h15.786c-.041.435-.09.974-.14 1.57-.125 1.513-.253 3.422-.253 4.93 0 2.085.245 4.95.392 6.487v.007a.017.017 0 01-.006.006H4.114a.017.017 0 01-.006-.008v-.005c.147-1.537.392-4.402.392-6.487 0-1.508-.128-3.417-.253-4.93zm12.179 3.082a1 1 0 00-1.519-1.302l-3.641 4.248-1.623-1.363a1 1 0 00-1.286 1.532l2.38 2a1 1 0 001.403-.115l4.286-5z"/>
</svg>
