<svg xmlns="http://www.w3.org/2000/svg" width="24" height="24" fill="none" viewBox="0 0 24 24">
  <path fill="#333" fill-rule="evenodd" d="M6.414 4l-1 1h13.172l-1-1H6.414zm15.58 2.109a1 1 0 00-.287-.816L19 2.586A1.996 1.996 0 0017.588 2H6.412C5.88 2 5.374 2.212 5 2.586L2.293 5.293a1 1 0 00-.287.816m0 0v.003l.001.009.004.038.016.147.056.552c.046.47.108 1.128.17 1.876.125 1.504.247 3.345.247 4.766 0 1.978-.236 4.757-.383 6.296A2.01 2.01 0 004.115 22h15.77a2.01 2.01 0 001.998-2.204c-.147-1.54-.383-4.318-.383-6.296 0-1.421.122-3.262.247-4.766a121.848 121.848 0 01.226-2.428l.016-.147.004-.038v-.01l.001-.002M4.106 7c.042.435.091.974.14 1.57.126 1.513.254 3.422.254 4.93 0 2.085-.245 4.95-.393 6.487a.02.02 0 000 .004v.001a.017.017 0 00.007.008h15.772a.017.017 0 00.006-.006v-.007c-.147-1.537-.392-4.402-.392-6.487 0-1.508.128-3.417.253-4.93.05-.596.099-1.135.14-1.57H4.107z"/>
  <path stroke="#333" stroke-linecap="round" stroke-linejoin="round" stroke-width="2" d="M15 11l-3.857 5L9 14"/>
</svg>
