<svg xmlns="http://www.w3.org/2000/svg" width="20" height="20" fill="none" viewBox="0 0 20 20">
  <path fill="currentColor" fill-rule="evenodd" d="M3 5.009v9.703l.004.004a.023.023 0 00.007.004h.007c1.456-.177 4.064-.46 5.982-.46 1.918 0 4.526.283 5.982.46h.007a.023.023 0 00.01-.008L15 14.71V5.009l-.004-.004a.022.022 0 00-.007-.004h-.007c-1.456.177-4.064.46-5.982.46-1.918 0-4.526-.283-5.982-.46h-.007a.022.022 0 00-.01.008zM1 5.01a2.015 2.015 0 012.26-1.996c1.458.178 3.957.445 5.74.445 1.783 0 4.282-.267 5.74-.445A2.015 2.015 0 0117 5.011v9.699a2.015 2.015 0 01-2.26 1.996c-1.458-.178-3.957-.446-5.74-.446-1.783 0-4.282.268-5.74.446A2.015 2.015 0 011 14.71v-9.7zm18 1.85a1 1 0 011 1v4.5a1 1 0 11-2 0v-4.5a1 1 0 011-1zm-12 1a1 1 0 00-2 0v4a1 1 0 102 0v-4z"/>
</svg>
