<svg xmlns="http://www.w3.org/2000/svg" width="20" height="20" fill="none" viewBox="0 0 20 20">
  <path fill="currentColor" fill-rule="evenodd" d="M3.423 7.003C3.352 3.308 6.171 0 10 0c3.83 0 6.648 3.308 6.576 7.003a28.69 28.69 0 00-.005.497c0 1.647.188 3.94.315 5.3.006.067.009.134.009.2H18a1 1 0 110 2h-4a4 4 0 01-8 0H2a1 1 0 110-2h1.105c0-.066.003-.133.01-.2.126-1.36.314-3.653.314-5.3 0-.16-.002-.325-.006-.497zM7.023 13h7.865l.003-.003a.017.017 0 00.003-.005v-.006c-.126-1.36-.323-3.736-.323-5.486 0-.174.002-.353.006-.536C14.63 4.253 12.578 2 10 2S5.37 4.253 5.423 6.964c.004.183.006.362.006.536 0 1.75-.197 4.126-.324 5.486a.02.02 0 000 .004v.002l.004.005a.013.013 0 00.003.003h1.911zM8 15a2 2 0 104 0H8z"/>
</svg>
