<svg xmlns="http://www.w3.org/2000/svg" width="20" height="20" fill="none" viewBox="0 0 20 20">
  <path fill="currentColor" fill-rule="evenodd" d="M3.108 1a2.009 2.009 0 00-2 2.19C1.256 4.814 1.5 7.848 1.5 10c0 2.153-.245 5.187-.391 6.81A2.009 2.009 0 003.108 19h13.784a2.009 2.009 0 002-2.19c-.148-1.623-.392-4.657-.392-6.81 0-2.153.244-5.187.391-6.81A2.009 2.009 0 0016.892 1H3.108zM3.1 3.01v-.003c0-.001 0-.003.002-.005A.014.014 0 013.106 3h13.788l.003.002a.013.013 0 01.002.004v.005c-.048.53-.107 1.22-.165 1.989H3.266c-.058-.768-.117-1.46-.165-1.99zM3.4 7c.059 1.037.1 2.089.1 3 0 2.254-.253 5.37-.4 6.99v.003l.003.005a.013.013 0 00.003.002h13.788l.003-.002a.012.012 0 00.002-.005v-.004c-.146-1.62-.399-4.735-.399-6.989 0-.911.041-1.963.1-3H3.4zM7 12a1 1 0 011-1h4a1 1 0 110 2H8a1 1 0 01-1-1z"/>
</svg>
