<svg xmlns="http://www.w3.org/2000/svg" width="20" height="20" fill="none" viewBox="0 0 20 20">
  <path fill="currentColor" fill-rule="evenodd" d="M7 2a1 1 0 00-2 0v.279c-.625-.052-1.196-.104-1.665-.149a2.024 2.024 0 00-2.206 2.203c.148 1.563.371 4.244.371 6.167 0 1.978-.236 4.757-.383 6.296A2.01 2.01 0 003.115 19h13.77a2.01 2.01 0 001.998-2.204c-.147-1.54-.383-4.318-.383-6.296 0-1.923.223-4.604.371-6.167a2.023 2.023 0 00-2.206-2.203c-.469.045-1.04.097-1.665.149V2a1 1 0 10-2 0v.425a50.22 50.22 0 01-3 .11 50.22 50.22 0 01-3-.11V2zm6 4V4.428a51.275 51.275 0 01-3 .108 51.34 51.34 0 01-3-.108V6a1 1 0 01-2 0V4.285c-.705-.057-1.345-.115-1.856-.164h-.007a.03.03 0 00-.01.007.028.028 0 00-.007.01v.006c.148 1.562.38 4.328.38 6.356 0 2.085-.245 4.95-.393 6.487v.005a.017.017 0 00.007.008h13.772a.017.017 0 00.006-.006v-.007c-.147-1.537-.392-4.402-.392-6.487 0-2.028.232-4.794.38-6.356v-.007a.028.028 0 00-.007-.009.028.028 0 00-.01-.007h-.007c-.51.049-1.15.107-1.856.164V6a1 1 0 11-2 0zm1.097 4.717a1 1 0 10-1.394-1.434l-3.521 3.424-1.609-1.126a1 1 0 00-1.146 1.638l2.285 1.6a1 1 0 001.27-.102l4.115-4z"/>
</svg>
