<svg xmlns="http://www.w3.org/2000/svg" width="20" height="20" fill="none" viewBox="0 0 20 20">
  <path fill="currentColor" fill-rule="evenodd" d="M6 1a1 1 0 011 1v.425a50.22 50.22 0 003 .11c.901 0 1.957-.045 3-.11V2a1 1 0 112 0v.279c.625-.052 1.196-.104 1.665-.149a2.023 2.023 0 012.206 2.203c-.148 1.563-.371 4.244-.371 6.167 0 1.978.236 4.757.383 6.296A2.01 2.01 0 0116.885 19H3.115a2.01 2.01 0 01-1.998-2.204c.147-1.54.383-4.318.383-6.296 0-1.923-.223-4.604-.371-6.167A2.024 2.024 0 013.335 2.13c.469.045 1.04.097 1.665.149V2a1 1 0 011-1zm7 3.428V6a1 1 0 102 0V4.285a128.56 128.56 0 001.861-.164h.002l.01.007a.028.028 0 01.007.01v.006c-.148 1.562-.38 4.328-.38 6.356 0 2.085.245 4.95.392 6.487v.007a.017.017 0 01-.006.006H3.114a.017.017 0 01-.006-.008v-.005c.147-1.537.392-4.402.392-6.487 0-2.028-.232-4.794-.38-6.356v-.007l.007-.009a.03.03 0 01.01-.007h.007c.51.049 1.15.107 1.856.164V6a1 1 0 002 0V4.428a51.34 51.34 0 003 .108c.912 0 1.963-.045 3-.108zM9 10.5V9a1 1 0 012 0v1.5h1.5a1 1 0 110 2H11V14a1 1 0 11-2 0v-1.5H7.5a1 1 0 110-2H9z"/>
</svg>
