<svg xmlns="http://www.w3.org/2000/svg" width="20" height="20" fill="none" viewBox="0 0 20 20">
  <path fill="currentColor" fill-rule="evenodd" d="M7.347 2a2 2 0 00-1.973 1.671L5.153 5H3.16a2.02 2.02 0 00-1.997 2.274c.147 1.168.337 2.943.337 4.226s-.19 3.057-.337 4.226A2.02 2.02 0 003.16 18h13.68a2.02 2.02 0 001.997-2.274c-.147-1.169-.337-2.943-.337-4.226s.19-3.058.337-4.226A2.02 2.02 0 0016.84 5h-1.993l-.221-1.329A2 2 0 0012.653 2H7.347zm0 2h5.306L10.27 7.009a4 4 0 00-4.094 5.17l-3.022 3.817a.03.03 0 01-.006-.01v-.004a.03.03 0 010-.007c.146-1.17.352-3.055.352-4.475 0-1.42-.206-3.304-.353-4.475a.03.03 0 010-.007v-.003A.03.03 0 013.16 7h1.994a2 2 0 001.973-1.671L7.347 4zm-1.169 8.184L3.158 16h13.683l.005-.004a.03.03 0 00.006-.01v-.004l.001-.002v-.005c-.147-1.17-.353-3.055-.353-4.475 0-1.42.206-3.304.353-4.475v-.01a.03.03 0 00-.007-.01.024.024 0 00-.005-.005h-1.994a2 2 0 01-1.973-1.671L12.653 4l-2.38 3.01a4 4 0 11-4.095 5.174zM8 11a2 2 0 114 0 2 2 0 01-4 0z"/>
</svg>
