<svg xmlns="http://www.w3.org/2000/svg" width="20" height="20" fill="none" viewBox="0 0 20 20">
  <path fill="#333" fill-rule="evenodd" d="M8 1a2 2 0 00-2 2H4.134a2.014 2.014 0 00-1.998 2.233C2.284 6.596 2.5 8.87 2.5 10.5c0 1.63-.216 3.904-.364 5.267A2.014 2.014 0 004.134 18h11.732a2.014 2.014 0 001.998-2.233c-.148-1.363-.364-3.636-.364-5.267 0-1.63.216-3.904.364-5.267A2.014 2.014 0 0015.866 3H14a2 2 0 00-2-2H8zm6 4a2 2 0 01-2 2H8a2 2 0 01-2-2H4.132l-.003.003a.021.021 0 00-.004.007v.007C4.271 6.38 4.5 8.75 4.5 10.5c0 1.75-.228 4.12-.376 5.483v.007a.021.021 0 00.008.01h11.736l.003-.003a.023.023 0 00.005-.007v-.007c-.148-1.362-.376-3.732-.376-5.483 0-1.75.228-4.12.376-5.483a.02.02 0 000-.005V5.01a.023.023 0 00-.008-.01H14zM8 3h4v2H8V3z"/>
</svg>
