<svg xmlns="http://www.w3.org/2000/svg" width="20" height="20" fill="none" viewBox="0 0 20 20">
  <path fill="currentColor" fill-rule="evenodd" d="M8 1a2 2 0 00-2 2v2a2 2 0 002 2h4a2 2 0 002-2h1.868l.003.003a.023.023 0 01.005.007v.007C15.728 6.38 15.5 8.75 15.5 10.5c0 1.75.228 4.12.376 5.483a.02.02 0 010 .005v.002a.023.023 0 01-.008.01H4.132l-.003-.003a.021.021 0 01-.004-.007v-.007c.147-1.362.375-3.732.375-5.483 0-1.75-.228-4.12-.376-5.483V5.01A.02.02 0 014.133 5H6V3H4.134a2.014 2.014 0 00-1.998 2.233C2.284 6.596 2.5 8.87 2.5 10.5c0 1.63-.216 3.904-.364 5.267A2.014 2.014 0 004.134 18h11.732a2.014 2.014 0 001.998-2.233c-.148-1.363-.364-3.636-.364-5.267 0-1.63.216-3.904.364-5.267A2.014 2.014 0 0015.866 3H14a2 2 0 00-2-2H8zm0 2h4v2H8V3z"/>
</svg>
