<svg xmlns="http://www.w3.org/2000/svg" width="20" height="20" fill="none" viewBox="0 0 20 20">
  <path fill="currentColor" fill-rule="evenodd" d="M6 3a2 2 0 012-2h4a2 2 0 012 2h1.866a2.014 2.014 0 011.998 2.233C17.716 6.596 17.5 8.87 17.5 10.5c0 1.63.216 3.904.364 5.267A2.014 2.014 0 0115.866 18H4.134a2.014 2.014 0 01-1.998-2.233c.148-1.363.364-3.636.364-5.267 0-1.63-.216-3.904-.364-5.267A2.014 2.014 0 014.134 3H6v2H4.132l-.003.003a.02.02 0 00-.004.007v.007C4.271 6.38 4.5 8.75 4.5 10.5c0 1.75-.228 4.12-.376 5.483v.007a.021.021 0 00.008.01h11.736l.001-.001.002-.002a.023.023 0 00.005-.007v-.007c-.148-1.362-.376-3.732-.376-5.483 0-1.75.228-4.12.376-5.483a.02.02 0 000-.005V5.01a.023.023 0 00-.008-.01H14a2 2 0 01-2 2H8a2 2 0 01-2-2V3zm6 0H8v2h4V3zm2.097 6.717a1 1 0 10-1.394-1.434l-3.521 3.424-1.609-1.126a1 1 0 00-1.146 1.638l2.285 1.6a1 1 0 001.27-.102l4.115-4z"/>
</svg>
