<svg xmlns="http://www.w3.org/2000/svg" width="20" height="20" fill="none" viewBox="0 0 20 20">
  <path fill="currentColor" fill-rule="evenodd" d="M5.964 4C4.37 4 2.901 5.472 2.901 7.515c0 1.67 1.181 3.508 2.819 5.2 1.57 1.62 3.365 2.91 4.27 3.517.898-.685 2.72-2.141 4.316-3.836.81-.86 1.539-1.756 2.06-2.624.529-.88.79-1.643.79-2.257C17.156 5.472 15.688 4 14.092 4s-3.064 1.472-3.064 3.515a1 1 0 11-2 0C9.028 5.472 7.56 4 5.964 4zm4.064.226C9.121 2.892 7.668 2 5.964 2 3.071 2 .901 4.571.901 7.515c0 2.506 1.69 4.843 3.382 6.59 1.736 1.793 3.696 3.188 4.636 3.817.693.464 1.59.427 2.245-.07.92-.7 2.869-2.25 4.598-4.085.864-.917 1.696-1.93 2.318-2.965.613-1.02 1.075-2.15 1.076-3.283v-.004c0-2.944-2.17-5.515-5.064-5.515-1.704 0-3.157.892-4.064 2.226z"/>
</svg>
