<svg xmlns="http://www.w3.org/2000/svg" width="20" height="20" fill="none" viewBox="0 0 20 20">
  <path fill="currentColor" fill-rule="evenodd" d="M11.2 1.65a2 2 0 00-2.4 0L1.885 6.836a2.017 2.017 0 00-.783 1.907c.145.99.398 2.92.398 4.257 0 1.11-.175 2.638-.32 3.702C1.019 17.899 1.94 19 3.178 19h13.646c1.236 0 2.16-1.1 1.997-2.298-.145-1.064-.32-2.592-.32-3.702 0-1.337.253-3.268.398-4.257a2.017 2.017 0 00-.783-1.907L11.2 1.65zM3.085 8.436L10 3.25l6.915 5.186.001.001.002.003a.025.025 0 010 .013C16.776 9.435 16.5 11.5 16.5 13c0 1.258.193 2.903.338 3.97v.013a.035.035 0 01-.014.017H14v-5a4 4 0 00-8 0v5H3.176c-.001 0-.004-.002-.006-.005a.035.035 0 01-.007-.012.026.026 0 010-.012c.144-1.068.337-2.713.337-3.971 0-1.5-.275-3.565-.419-4.547l.001-.013.003-.004zM8 17h4v-5a2 2 0 10-4 0v5z"/>
</svg>
