<svg xmlns="http://www.w3.org/2000/svg" width="20" height="20" fill="none" viewBox="0 0 20 20">
  <path fill="currentColor" fill-rule="evenodd" d="M3.098 3.118v.005c.131 1.644.346 4.674.346 6.877 0 .209-.001.425-.005.647l3.354-3.354.673-.673.705.638 2.97 2.687 2.652-2.652.646-.646.701.585 1.444 1.203c.063-1.915.216-4.033.318-5.312v-.006a.024.024 0 00-.006-.008.024.024 0 00-.008-.005h-.005c-1.644.138-4.677.367-6.883.367-2.206 0-5.238-.229-6.883-.367a.02.02 0 00-.004 0h-.001a.024.024 0 00-.008.005.024.024 0 00-.006.008v.001zm13.47 7.908l-2.007-1.673-1.935 1.936 4.14 3.746a96.002 96.002 0 01-.197-4.01zM1.106 16.71c.078-.975.182-2.407.255-3.851l-.067-.067.074-.074A57.9 57.9 0 001.444 10c0-2.114-.208-5.073-.34-6.718A2.02 2.02 0 013.286 1.11c1.645.139 4.602.36 6.714.36s5.069-.221 6.714-.36a2.02 2.02 0 012.182 2.17c-.131 1.646-.34 4.605-.34 6.719 0 2.11.208 5.063.34 6.711a2.02 2.02 0 01-2.194 2.17c-1.647-.147-4.596-.381-6.702-.381s-5.055.234-6.702.382a2.02 2.02 0 01-2.193-2.171zm6.43-7.331l-4.211 4.21c-.07 1.257-.159 2.445-.225 3.28v.005c0 .002.002.005.006.009a.026.026 0 00.008.005h.006c1.645-.145 4.675-.388 6.88-.388 1.758 0 4.039.154 5.726.29L7.534 9.38z"/>
</svg>
