<svg xmlns="http://www.w3.org/2000/svg" width="20" height="20" fill="none" viewBox="0 0 20 20">
  <path fill="currentColor" fill-rule="evenodd" d="M18.871 4.333a2.023 2.023 0 00-2.206-2.203c-1.653.159-4.576.406-6.665.406-2.089 0-5.012-.248-6.665-.406a2.024 2.024 0 00-2.206 2.203c.148 1.563.371 4.244.371 6.167 0 1.978-.236 4.757-.383 6.296A2.01 2.01 0 003.115 19h13.77a2.01 2.01 0 001.998-2.204c-.147-1.54-.383-4.318-.383-6.296 0-1.923.223-4.604.371-6.167zm-2.015-.212h.007l.01.007a.028.028 0 01.007.01v.006c-.136 1.437-.343 3.893-.376 5.856h-1.441a3 3 0 00-2.487 1.322l-.81 1.2a1 1 0 01-.829.441H9.063a1 1 0 01-.829-.44l-.81-1.201A3 3 0 004.937 10H3.496c-.033-1.963-.24-4.419-.376-5.856v-.007l.007-.009a.03.03 0 01.01-.007h.007c1.652.158 4.66.415 6.856.415 2.195 0 5.204-.257 6.856-.415zM3.466 12a95.877 95.877 0 01-.359 4.989v.003a.017.017 0 00.007.008h13.773l.002-.003.003-.003v-.007A95.874 95.874 0 0116.533 12h-1.47a1 1 0 00-.829.44l-.81 1.201a3 3 0 01-2.487 1.322H9.063a3 3 0 01-2.487-1.322l-.81-1.2A1 1 0 004.937 12h-1.47z"/>
</svg>
