<svg xmlns="http://www.w3.org/2000/svg" width="20" height="20" fill="none" viewBox="0 0 20 20">
  <path fill="currentColor" fill-rule="evenodd" d="M9 9a1 1 0 002 0V4.227l2.836 2.52a1 1 0 001.328-1.494l-4.5-4a1 1 0 00-1.328 0l-4.5 4a1 1 0 001.328 1.494L9 4.227V9zm-5.553 3a125.984 125.984 0 01-.35 4.994l.003.004.002.002h13.796l.002-.002.003-.004v-.003a125.829 125.829 0 01-.35-4.991h-1.49a1 1 0 00-.829.44l-.81 1.201a3 3 0 01-2.487 1.322H9.063a3 3 0 01-2.487-1.322l-.81-1.2A1 1 0 004.937 12h-1.49zM18.5 10h-3.437a3 3 0 00-2.487 1.322l-.81 1.2a1 1 0 01-.829.441H9.063a1 1 0 01-.829-.44l-.81-1.201A3 3 0 004.937 10H1.5c0 2.032-.248 5.155-.395 6.815A2.008 2.008 0 003.103 19h13.793a2.008 2.008 0 001.999-2.185c-.147-1.66-.395-4.783-.395-6.815z"/>
</svg>
