<svg xmlns="http://www.w3.org/2000/svg" width="20" height="20" fill="none" viewBox="0 0 20 20">
  <path fill="currentColor" fill-rule="evenodd" d="M11 2a1 1 0 10-2 0v4.773l-2.836-2.52a1 1 0 10-1.328 1.494l4.5 4a1 1 0 001.328 0l4.5-4a1 1 0 00-1.328-1.494L11 6.773V2zM3.447 12a125.965 125.965 0 01-.35 4.99v.004a.013.013 0 00.005.006h13.796l.002-.002.003-.004v-.003a125.829 125.829 0 01-.35-4.991h-1.49a1 1 0 00-.829.44l-.81 1.201a3 3 0 01-2.487 1.322H9.063a3 3 0 01-2.487-1.322l-.81-1.2A1 1 0 004.937 12h-1.49zM18.5 10h-3.437a3 3 0 00-2.487 1.322l-.81 1.2a1 1 0 01-.829.441H9.063a1 1 0 01-.829-.44l-.81-1.201A3 3 0 004.937 10H1.5c0 2.032-.248 5.155-.395 6.815A2.008 2.008 0 003.103 19h13.794a2.008 2.008 0 001.998-2.185c-.147-1.66-.395-4.783-.395-6.815z"/>
</svg>
