<svg xmlns="http://www.w3.org/2000/svg" width="20" height="20" fill="none" viewBox="0 0 20 20">
  <path fill="currentColor" fill-rule="evenodd" d="M7 4a1 1 0 011-1h4a1 1 0 011 1v.5h2V4a3 3 0 00-3-3H8a3 3 0 00-3 3v2h-.861a2.017 2.017 0 00-2 2.24c.13 1.168.299 2.96.299 4.26 0 1.3-.17 3.092-.298 4.26A2.017 2.017 0 004.139 19h11.722a2.017 2.017 0 002-2.24c-.13-1.168-.299-2.96-.299-4.26 0-1.3.17-3.092.298-4.26A2.017 2.017 0 0015.861 6H7V4zM4.128 8.02v-.005l11.739-.011a.026.026 0 01.005.008v.009c-.128 1.17-.31 3.06-.31 4.479 0 1.42.182 3.31.31 4.48v.008l-.001.002a.027.027 0 01-.008.01H4.138l-.005-.004a.026.026 0 01-.005-.008v-.009c.128-1.17.31-3.06.31-4.479 0-1.42-.182-3.31-.31-4.48zm0-.005L15.863 8H4.137l-.004.004a.025.025 0 00-.005.008v.003z"/>
</svg>
