<svg xmlns="http://www.w3.org/2000/svg" width="20" height="20" fill="none" viewBox="0 0 20 20">
  <path fill="currentColor" fill-rule="evenodd" d="M7 4a1 1 0 011-1h4a1 1 0 011 1v2H7V4zM5 6V4a3 3 0 013-3h4a3 3 0 013 3v2h.861a2.017 2.017 0 012 2.24c-.13 1.168-.299 2.96-.299 4.26 0 1.3.17 3.092.298 4.26A2.017 2.017 0 0115.861 19H4.139a2.017 2.017 0 01-2-2.24c.13-1.168.299-2.96.299-4.26 0-1.3-.17-3.092-.298-4.26A2.017 2.017 0 014.139 6H5zm0 2h-.863l-.004.004a.025.025 0 00-.005.008v.009c.128 1.17.31 3.06.31 4.479 0 1.42-.182 3.31-.31 4.48v.008c0 .002.002.005.005.008a.018.018 0 00.004.004h11.726l.004-.004a.027.027 0 00.004-.006v-.002l.002-.003v-.006c-.13-1.17-.31-3.06-.31-4.479 0-1.42.18-3.31.31-4.48v-.007h-.001a.026.026 0 00-.005-.01l-11.74.012L15.864 8H5z"/>
</svg>
