<svg xmlns="http://www.w3.org/2000/svg" width="20" height="20" fill="none" viewBox="0 0 20 20">
  <path fill="currentColor" fill-rule="evenodd" d="M10.597.639a2 2 0 00-1.194 0l-7 2.187A2 2 0 001 4.736v11.17a2.008 2.008 0 002.167 2c1.619-.128 4.668-.343 6.833-.343s5.214.215 6.833.343a2.008 2.008 0 002.167-2V4.736a2 2 0 00-1.404-1.91l-7-2.187zM3 4.735l7-2.187 7 2.187v1.647l-7 3.5-7-3.5V4.735zm0 3.883v7.29l.002.002a.01.01 0 00.004.002h.003c1.616-.128 4.738-.35 6.991-.35 2.254 0 5.375.223 6.991.35h.003l.004-.002.002-.002v-7.29l-6.106 3.053a2 2 0 01-1.788 0L3 8.618z"/>
</svg>
