<svg xmlns="http://www.w3.org/2000/svg" width="20" height="20" fill="none" viewBox="0 0 20 20">
  <path fill="currentColor" fill-rule="evenodd" d="M3 4.094v-.002l.002-.002a.012.012 0 01.004-.003h.003c1.616.128 4.738.35 6.991.35 2.254 0 5.375-.222 6.991-.35h.003l.004.003.002.001v2.291l-7 3.5-7-3.5V4.094zm0 4.524v7.29l.002.002a.01.01 0 00.004.002h.003c1.616-.128 4.738-.35 6.991-.35 2.254 0 5.375.223 6.991.35h.003l.004-.002.002-.002v-7.29l-6.106 3.053a2 2 0 01-1.788 0L3 8.618zm.167-6.524a2.008 2.008 0 00-2.167 2v11.812a2.008 2.008 0 002.167 2c1.619-.128 4.668-.343 6.833-.343s5.214.215 6.833.343a2.008 2.008 0 002.167-2V4.094a2.008 2.008 0 00-2.167-2c-1.619.128-4.668.344-6.833.344s-5.214-.216-6.833-.344z"/>
</svg>
