<svg xmlns="http://www.w3.org/2000/svg" width="20" height="20" fill="none" viewBox="0 0 20 20">
  <path fill="currentColor" fill-rule="evenodd" d="M16.99 1.865a1 1 0 01-.854 1.126L16 2l-.135-.99a1 1 0 011.126.855zm-1.126-.856L16 2l.135.99-.003.001-.008.001-.033.005-.123.016-.453.058c-.385.047-.922.11-1.533.174-1.213.125-2.756.255-3.982.255-1.226 0-2.768-.13-3.982-.255a79.145 79.145 0 01-1.986-.232l-.123-.016-.033-.005h-.008l-.002-.001h-.001l.134-.98-.134.98a1 1 0 01.27-1.982h.002l.008.001.03.004.116.016.44.056c.374.046.898.108 1.493.17C7.425 1.38 8.883 1.5 10 1.5s2.575-.12 3.776-.245a77.113 77.113 0 001.933-.225l.117-.016.03-.004h.008zM5 5.5a1 1 0 10-2 0v6a7 7 0 1014 0v-6a1 1 0 10-2 0v6a5 5 0 01-10 0v-6z"/>
</svg>
