<svg xmlns="http://www.w3.org/2000/svg" width="20" height="20" fill="none" viewBox="0 0 20 20">
  <path fill="currentColor" fill-rule="evenodd" d="M7.997 16.99a1 1 0 10.292-1.98C5.89 14.657 4 12.508 4 9.86c0-2.294 1.416-4.21 3.358-4.914L6.367 7.25a1 1 0 101.837.79L9.92 4.053a1 1 0 00-.256-1.143l-3-2.658a1 1 0 10-1.326 1.496L6.78 3.027C3.988 3.986 2 6.702 2 9.86c0 3.603 2.581 6.624 5.997 7.13zm4.006-13.98a1 1 0 00-.292 1.98C14.11 5.343 16 7.492 16 10.14c0 2.294-1.416 4.21-3.358 4.913l.991-2.303a1 1 0 00-1.837-.79l-1.715 3.987a1 1 0 00.256 1.143l3 2.659a1 1 0 001.326-1.497l-1.443-1.279c2.792-.958 4.78-3.675 4.78-6.833 0-3.603-2.581-6.624-5.997-7.13z"/>
</svg>
