<svg xmlns="http://www.w3.org/2000/svg" width="20" height="20" fill="none" viewBox="0 0 20 20">
  <path fill="currentColor" fill-rule="evenodd" d="M2.945 11.76a1 1 0 101.86-.736c-.892-2.256.024-4.967 2.316-6.29 1.987-1.147 4.354-.879 5.934.45l-2.49.295a1 1 0 10.234 1.986l4.31-.509a1 1 0 00.863-.793l.802-3.927a1 1 0 00-1.96-.4l-.385 1.889c-2.226-1.939-5.573-2.302-8.308-.723C3 4.803 1.675 8.549 2.945 11.76zm14.11-3.52a1 1 0 00-1.86.736c.892 2.256-.024 4.967-2.316 6.29-1.987 1.147-4.355.879-5.934-.45l2.49-.295a1 1 0 00-.234-1.986l-4.31.509a1 1 0 00-.863.793l-.802 3.927a1 1 0 001.96.4l.385-1.889c2.226 1.939 5.573 2.302 8.308.723 3.12-1.801 4.446-5.547 3.176-8.758z"/>
</svg>
