<svg xmlns="http://www.w3.org/2000/svg" width="20" height="20" fill="none" viewBox="0 0 20 20">
  <path fill="currentColor" fill-rule="evenodd" d="M11.2 1.646a2.03 2.03 0 00-2.4 0c-.736.54-1.942 1.398-2.796 1.886-.794.453-1.894.935-2.635 1.242a2.046 2.046 0 00-1.244 2.161c.115.849.264 2.142.264 3.065 0 .906-.144 2.171-.258 3.021a2.05 2.05 0 001.34 2.199c.86.307 2.132.797 2.922 1.248.762.436 1.699 1.193 2.327 1.733a2.051 2.051 0 002.544.106c.743-.543 1.904-1.365 2.732-1.839.794-.453 1.894-.935 2.635-1.242a2.046 2.046 0 001.244-2.161c-.114-.848-.264-2.142-.264-3.065s.15-2.216.264-3.065a2.046 2.046 0 00-1.244-2.161c-.741-.307-1.841-.789-2.635-1.242-.854-.488-2.06-1.347-2.796-1.886zM9.983 3.259A.028.028 0 0110 3.253c.007 0 .013.002.017.006.732.536 2.022 1.458 2.987 2.01.911.52 2.112 1.042 2.861 1.352.008.004.016.01.022.02a.04.04 0 01.006.027c-.115.85-.282 2.262-.282 3.332 0 1.07.167 2.483.282 3.332a.04.04 0 01-.006.027.045.045 0 01-.022.02c-.75.31-1.95.832-2.861 1.353-.938.535-2.181 1.42-2.92 1.96a.036.036 0 01-.024.007.059.059 0 01-.036-.014c-.635-.546-1.697-1.415-2.639-1.953-.96-.55-2.387-1.09-3.24-1.396a.046.046 0 01-.025-.02.044.044 0 01-.007-.03c.114-.852.276-2.234.276-3.286 0-1.07-.167-2.483-.282-3.332a.04.04 0 01.006-.027.045.045 0 01.022-.02c.75-.31 1.95-.832 2.861-1.353.965-.551 2.255-1.473 2.987-2.01zM9 10a1 1 0 112 0 1 1 0 01-2 0zm1-3a3 3 0 100 6 3 3 0 000-6z"/>
</svg>
