<svg xmlns="http://www.w3.org/2000/svg" width="20" height="20" fill="none" viewBox="0 0 20 20">
  <path fill="currentColor" fill-rule="evenodd" d="M4.968 1a2 2 0 00-1.536.72l-2.425 3.4v.002l.001.008.005.035.015.133.056.497c.047.423.108 1.01.17 1.67.125 1.33.246 2.914.246 4.035 0 1.519-.221 3.872-.37 5.276A2.011 2.011 0 003.128 19h13.744c1.2 0 2.123-1.043 1.998-2.224-.149-1.404-.37-3.757-.37-5.276 0-1.12.12-2.705.246-4.035a107.343 107.343 0 01.226-2.167l.015-.133.005-.035v-.01a1 1 0 00-.285-.827L16 1.586A2 2 0 0014.586 1H4.968zm0 2h9.618l1 1H4.136l.832-1zm-1.85 3h13.764c-.039.367-.083.804-.128 1.278-.125 1.334-.254 3-.254 4.222 0 1.64.233 4.092.38 5.486v.008l-.003.003a.013.013 0 01-.003.003H3.126l-.003-.003a.016.016 0 01-.004-.005v-.006c.148-1.394.381-3.847.381-5.486 0-1.222-.13-2.888-.254-4.222-.045-.474-.09-.91-.128-1.278zm10.98 3.717a1 1 0 10-1.395-1.434l-3.521 3.424-1.609-1.126a1 1 0 00-1.146 1.638l2.285 1.6a1 1 0 001.27-.102l4.115-4z"/>
</svg>
