<svg xmlns="http://www.w3.org/2000/svg" width="20" height="20" fill="none" viewBox="0 0 20 20">
  <path fill="currentColor" fill-rule="evenodd" d="M3.432 1.72A2 2 0 014.968 1h9.618A2 2 0 0116 1.586l2.707 2.707a1 1 0 01.286.826v.003l-.001.008-.005.035-.015.133-.056.497c-.047.423-.108 1.01-.17 1.67-.125 1.33-.246 2.914-.246 4.035 0 1.519.221 3.872.37 5.276A2.011 2.011 0 0116.872 19H3.128a2.011 2.011 0 01-1.998-2.224c.149-1.404.37-3.757.37-5.276 0-1.12-.12-2.705-.246-4.035a106.676 106.676 0 00-.226-2.167l-.015-.133-.005-.035v-.01M14.585 3H4.968l-.833 1h11.45l-1-1zm2.296 3H3.118c.039.367.083.804.128 1.278.125 1.334.254 3 .254 4.222 0 1.64-.233 4.092-.38 5.486v.005c0 .002 0 .004.003.006a.012.012 0 00.003.003h13.748l.003-.003a.016.016 0 00.004-.005v-.006c-.148-1.394-.381-3.847-.381-5.486 0-1.222.13-2.888.254-4.222.045-.474.09-.91.128-1.278z"/>
  <path stroke="currentColor" stroke-linecap="round" stroke-linejoin="round" stroke-width="2" d="M13.4 9l-4.114 4L7 11.4"/>
</svg>
