<svg xmlns="http://www.w3.org/2000/svg" width="20" height="20" fill="none" viewBox="0 0 20 20">
  <path fill="currentColor" fill-rule="evenodd" d="M9 12a1 1 0 102 0V4.26l3.827 3.48a1 1 0 001.346-1.48l-5.5-5a1 1 0 00-1.346 0l-5.5 5a1 1 0 101.346 1.48L9 4.26V12zm-5.895-.796A1 1 0 001.5 12v3.867a2.018 2.018 0 002.227 2.002c1.424-.147 3.96-.369 6.273-.369 2.386 0 5.248.236 6.795.383a2.013 2.013 0 002.205-2V12a1 1 0 10-2 0v3.884l-13.895-4.68zm0 0L2.5 11l.605.204zm0 0l13.892 4.683a.019.019 0 01-.007.005h-.006c-1.558-.148-4.499-.392-6.984-.392-2.416 0-5.034.23-6.478.38h-.009a.026.026 0 01-.013-.011V12a.998.998 0 00-.394-.796z"/>
</svg>
